{"glyphs":{"0":{"ha":829,"x_min":90,"x_max":739,"o":"m 90 493 q 160 122 90 253 q 415 -8 231 -8 q 669 122 599 -8 q 739 493 739 253 q 669 860 739 731 q 415 989 600 989 q 160 860 231 989 q 90 493 90 731 m 676 493 q 656 258 676 353 q 578 106 636 163 q 415 50 521 50 q 251 106 308 50 q 173 258 193 163 q 153 493 153 353 q 173 726 153 632 q 251 876 193 821 q 415 931 308 931 q 578 876 521 931 q 656 726 636 821 q 676 493 676 632 z "},"1":{"ha":344,"x_min":19,"x_max":232,"o":"m 19 921 l 19 979 l 232 979 l 232 0 l 167 0 l 167 921 l 19 921 z "},"2":{"ha":788,"x_min":65,"x_max":724,"o":"m 65 44 q 476 385 324 214 q 629 711 629 557 q 576 874 629 811 q 404 936 524 936 q 219 862 283 936 q 146 663 154 788 l 85 663 q 181 904 94 818 q 407 990 267 990 q 613 922 532 990 q 693 715 693 854 q 611 470 693 596 q 408 236 529 344 q 163 54 286 128 l 724 54 l 724 1 l 65 1 l 65 44 z "},"3":{"ha":806,"x_min":71,"x_max":715,"o":"m 414 994 q 623 925 549 994 q 697 747 697 856 q 642 592 697 657 q 467 515 586 526 l 467 508 q 649 419 583 479 q 715 254 715 360 q 640 64 715 138 q 415 -10 564 -10 q 182 67 272 -10 q 71 283 92 143 l 133 283 q 223 111 151 176 q 413 46 294 46 q 592 105 531 46 q 654 257 654 164 q 567 426 654 368 q 321 483 479 483 l 294 483 l 294 538 l 322 538 q 559 590 482 538 q 636 742 636 643 q 577 885 636 831 q 413 940 518 940 q 237 885 310 940 q 150 714 164 829 l 88 714 q 185 919 100 844 q 414 994 269 994 z "},"4":{"ha":819,"x_min":33,"x_max":794,"o":"m 33 250 l 33 301 l 568 981 l 633 981 l 633 306 l 794 306 l 794 250 l 633 250 l 633 0 l 571 0 l 571 250 l 33 250 m 574 897 l 103 306 l 574 306 l 574 897 z "},"5":{"ha":835,"x_min":101,"x_max":760,"o":"m 713 926 l 174 926 l 174 524 q 286 613 213 579 q 446 646 360 646 q 682 556 604 646 q 760 331 760 465 q 725 160 760 238 q 617 38 690 83 q 433 -8 544 -8 q 208 67 297 -8 q 101 274 118 143 l 163 274 q 256 107 185 165 q 431 49 326 49 q 631 126 564 49 q 699 332 699 204 q 631 524 699 454 q 436 593 563 593 q 280 556 349 593 q 174 454 211 518 l 115 454 l 115 982 l 713 982 l 713 926 z "},"6":{"ha":856,"x_min":94,"x_max":775,"o":"m 678 722 q 603 884 663 826 q 443 942 544 942 q 226 836 301 942 q 151 497 151 731 q 153 432 151 454 q 256 591 171 532 q 457 650 340 650 q 692 560 608 650 q 775 314 775 471 q 742 152 775 225 q 637 35 708 79 q 456 -10 565 -10 q 171 121 247 -10 q 94 475 94 251 q 176 861 94 728 q 446 994 258 994 q 650 921 576 994 q 738 722 724 847 l 678 722 m 163 340 q 193 197 163 264 q 289 88 224 129 q 454 46 354 46 q 644 117 572 46 q 715 314 715 189 q 644 525 715 451 q 447 599 572 599 q 311 570 376 599 q 204 483 246 542 q 163 340 163 425 z "},"7":{"ha":699,"x_min":15,"x_max":649,"o":"m 649 931 l 267 0 l 199 0 l 586 925 l 15 925 l 15 981 l 649 981 l 649 931 z "},"8":{"ha":853,"x_min":75,"x_max":778,"o":"m 103 743 q 141 874 103 817 q 252 963 179 931 q 426 996 325 996 q 601 963 528 996 q 712 874 674 931 q 750 743 750 817 q 701 594 750 656 q 550 510 653 533 q 717 422 657 488 q 778 254 778 356 q 684 44 778 121 q 426 -32 590 -32 q 169 44 263 -32 q 75 254 75 121 q 135 422 75 356 q 303 510 196 488 q 152 595 201 533 q 103 743 103 657 m 164 736 q 235 585 164 639 q 426 531 306 531 q 618 585 547 531 q 689 736 689 639 q 617 888 689 835 q 426 942 546 942 q 235 888 307 942 q 164 736 164 835 m 138 257 q 215 83 138 144 q 426 21 293 21 q 638 83 560 21 q 717 257 717 144 q 635 427 717 372 q 426 482 554 482 q 219 427 300 482 q 138 257 138 372 z "},"9":{"ha":850,"x_min":78,"x_max":760,"o":"m 176 261 q 249 99 190 157 q 411 42 308 42 q 628 147 553 42 q 703 486 703 253 q 701 551 703 529 q 598 392 683 451 q 397 333 513 333 q 162 423 246 333 q 78 669 78 513 q 111 831 78 757 q 217 949 144 904 q 399 993 289 993 q 683 863 607 993 q 760 511 760 733 q 678 124 760 260 q 411 -11 597 -11 q 206 63 281 -11 q 117 261 131 138 l 176 261 m 692 644 q 661 788 692 721 q 565 897 631 856 q 400 939 500 939 q 210 867 282 939 q 139 669 139 794 q 210 458 139 531 q 407 385 282 385 q 543 414 478 385 q 650 501 608 443 q 692 644 692 560 z "},"\u0000":{"ha":0,"x_min":0,"x_max":0,"o":""},"\r":{"ha":382,"x_min":0,"x_max":0,"o":""}," ":{"ha":382,"x_min":0,"x_max":0,"o":""},"अ":{"ha":1140,"x_min":114,"x_max":1185,"o":"m 1185 1028 l 1185 979 l 974 979 l 974 0 l 918 0 l 918 507 l 624 508 q 672 430 656 475 q 689 335 689 385 q 613 142 689 215 q 411 69 538 69 q 258 104 326 69 q 152 201 190 139 q 114 344 114 264 l 167 344 q 198 228 167 279 q 284 148 229 176 q 407 119 339 119 q 574 180 511 119 q 636 338 636 240 q 612 441 636 392 q 535 522 588 490 q 403 553 483 553 l 353 553 l 353 601 l 403 601 q 522 628 474 601 q 594 699 571 656 q 618 789 618 742 q 557 937 618 882 q 404 992 496 992 q 242 938 307 992 q 179 794 178 885 l 125 794 q 203 974 125 907 q 404 1040 282 1040 q 540 1010 479 1040 q 635 926 600 981 q 669 799 669 871 q 624 655 669 714 q 488 579 578 596 l 488 578 q 560 556 531 571 l 918 556 l 918 1028 l 1185 1028 z "},"आ":{"ha":1515,"x_min":114,"x_max":1572,"o":"m 1185 1028 l 1185 979 l 974 979 l 974 0 l 918 0 l 918 507 l 624 508 q 672 430 656 475 q 689 335 689 385 q 613 142 689 215 q 411 69 538 69 q 258 104 326 69 q 152 201 190 139 q 114 344 114 264 l 167 344 q 198 228 167 279 q 284 148 229 176 q 407 119 339 119 q 574 180 511 119 q 636 338 636 240 q 612 441 636 392 q 535 522 588 490 q 403 553 483 553 l 353 553 l 353 601 l 403 601 q 522 628 474 601 q 594 699 571 656 q 618 789 618 742 q 557 937 618 882 q 404 992 496 992 q 242 938 307 992 q 179 794 178 885 l 125 794 q 203 974 125 907 q 404 1040 282 1040 q 540 1010 479 1040 q 635 926 600 981 q 669 799 669 871 q 624 655 669 714 q 488 579 578 596 l 488 578 q 560 556 531 571 l 918 556 l 918 1028 l 1185 1028 m 1306 979 l 1096 979 l 1096 1028 l 1572 1028 l 1572 979 l 1363 979 l 1363 0 l 1306 0 l 1306 979 z "},"इ":{"ha":807,"x_min":-62,"x_max":871,"o":"m 404 731 q 251 699 314 731 q 189 585 189 667 q 242 475 189 510 q 378 440 296 440 l 440 440 q 643 386 561 440 q 725 210 725 332 q 658 49 725 113 q 469 -15 592 -15 q 328 13 386 -15 q 238 78 269 40 q 197 147 207 115 l 197 -100 l 144 -100 l 144 253 l 194 253 q 274 92 204 154 q 461 31 343 31 q 617 82 563 31 q 671 210 671 133 q 603 353 671 311 q 432 396 535 396 q 365 397 385 396 q 198 444 264 397 q 132 585 132 492 q 206 731 132 686 q 385 775 279 775 l 588 775 l 588 979 l -62 979 l -62 1028 l 871 1028 l 871 979 l 642 979 l 642 731 l 404 731 z "},"ई":{"ha":807,"x_min":-62,"x_max":992,"o":"m 404 731 q 251 699 314 731 q 189 585 189 667 q 242 475 189 510 q 378 440 296 440 l 440 440 q 643 386 561 440 q 725 210 725 332 q 658 49 725 113 q 469 -15 592 -15 q 328 13 386 -15 q 238 78 269 40 q 197 147 207 115 l 197 -100 l 144 -100 l 144 253 l 194 253 q 274 92 204 154 q 461 31 343 31 q 617 82 563 31 q 671 210 671 133 q 603 353 671 311 q 432 396 535 396 q 365 397 385 396 q 198 444 264 397 q 132 585 132 492 q 206 731 132 686 q 385 775 279 775 l 588 775 l 588 979 l -62 979 l -62 1028 l 871 1028 l 871 979 l 642 979 l 642 731 l 404 731 m 588 1139 q 640 1323 588 1258 q 793 1388 692 1388 q 938 1331 885 1388 q 990 1182 992 1274 l 940 1182 q 901 1295 940 1251 q 794 1339 861 1339 q 642 1138 642 1339 l 642 1014 l 588 1014 l 588 1139 z "},"उ":{"ha":807,"x_min":-44,"x_max":851,"o":"m 656 801 q 608 656 656 715 q 486 585 560 596 l 486 583 q 643 486 585 565 q 701 301 701 407 q 665 147 701 215 q 562 41 629 79 q 403 3 494 3 q 238 42 311 3 q 122 151 164 82 q 81 307 81 221 l 135 307 q 170 178 135 236 q 267 88 206 121 q 401 54 328 54 q 580 124 513 54 q 647 304 647 193 q 621 424 647 367 q 538 519 594 482 q 393 556 481 556 l 339 556 l 339 607 l 388 607 q 546 664 492 607 q 600 806 600 721 l 600 979 l -44 979 l -44 1028 l 851 1028 l 851 979 l 656 979 l 656 801 z "},"ऊ":{"ha":1211,"x_min":-44,"x_max":1256,"o":"m 656 801 q 608 656 656 715 q 486 585 560 596 l 486 583 l 797 583 q 1027 517 938 583 q 1117 310 1117 450 q 1040 109 1117 174 q 844 44 964 44 q 813 46 826 44 q 789 49 799 47 l 789 93 q 839 90 825 90 q 1000 143 938 90 q 1063 311 1063 196 q 988 483 1063 429 q 797 536 914 536 l 590 536 q 672 435 643 497 q 701 299 701 372 q 665 147 701 214 q 562 41 629 79 q 403 3 494 3 q 238 42 311 3 q 122 151 164 82 q 81 307 81 221 l 135 307 q 170 178 135 236 q 267 88 206 121 q 401 54 328 54 q 580 124 513 54 q 647 304 647 193 q 621 424 647 367 q 538 519 594 482 q 393 556 481 556 l 339 556 l 339 607 l 388 607 q 546 664 492 607 q 600 806 600 721 l 600 979 l -44 979 l -44 1028 l 1256 1028 l 1256 979 l 656 979 l 656 801 z "},"ऋ":{"ha":1394,"x_min":-44,"x_max":1439,"o":"m 763 979 l 763 597 l 1039 597 q 1172 719 1172 597 l 1172 818 l 1224 818 l 1224 324 l 1203 324 q 1065 274 1115 324 q 1015 149 1015 224 q 1067 19 1015 61 q 1199 -22 1119 -22 q 1279 -10 1247 -22 l 1279 -57 q 1241 -66 1265 -62 q 1194 -69 1217 -69 q 1028 -15 1094 -69 q 961 146 961 40 q 1017 294 961 235 q 1172 363 1074 354 l 1172 597 q 1032 550 1125 550 l 763 550 l 763 0 l 710 0 l 710 474 l 261 0 l 193 0 l 193 7 l 708 536 q 627 700 697 636 q 450 764 557 764 q 302 728 367 764 q 201 624 238 692 q 164 467 164 557 l 107 467 q 149 649 107 571 q 267 770 192 728 q 436 813 342 813 q 604 768 535 813 q 710 647 674 724 l 710 979 l -44 979 l -44 1028 l 1439 1028 l 1439 979 l 763 979 z "},"ॠ":{"ha":1315,"x_min":-44,"x_max":1439,"o":"m 763 979 l 763 597 l 1039 597 q 1172 719 1172 597 l 1172 818 l 1224 818 l 1224 322 l 1164 322 q 1058 293 1100 322 q 1015 199 1015 264 q 1059 108 1015 138 q 1172 78 1103 78 l 1229 78 l 1229 32 l 1167 32 q 1058 3 1101 32 q 1015 -92 1015 -26 q 1060 -184 1015 -154 q 1175 -214 1104 -214 q 1247 -207 1210 -214 q 1307 -192 1283 -200 l 1307 -236 q 1246 -253 1283 -246 q 1169 -260 1208 -260 q 1020 -219 1079 -260 q 961 -96 961 -178 q 994 4 961 -35 q 1079 53 1028 43 l 1079 57 q 993 106 1025 69 q 961 201 961 142 q 1016 322 961 282 q 1150 361 1071 361 l 1172 361 l 1172 597 q 1032 550 1125 550 l 763 550 l 763 0 l 710 0 l 710 474 l 261 0 l 193 0 l 193 7 l 708 536 q 627 700 697 636 q 450 764 557 764 q 302 728 367 764 q 201 624 238 692 q 164 467 164 557 l 107 467 q 149 649 107 571 q 267 770 192 728 q 436 813 342 813 q 604 768 535 813 q 710 647 674 724 l 710 979 l -44 979 l -44 1028 l 1439 1028 l 1439 979 l 763 979 z "},"ऌ":{"ha":1246,"x_min":-44,"x_max":1290,"o":"m 903 979 l 903 769 q 1074 675 1013 760 q 1135 461 1135 590 q 1113 322 1135 383 l 1103 322 q 960 273 1011 322 q 910 147 910 224 q 962 19 910 61 q 1094 -24 1014 -24 q 1175 -10 1136 -24 l 1175 -57 q 1089 -71 1133 -71 q 921 -16 988 -71 q 854 146 854 39 q 912 294 854 233 q 1067 361 969 356 q 1079 461 1079 407 q 1024 647 1079 574 q 868 721 969 721 q 705 639 761 721 q 649 414 649 557 l 649 399 l 599 399 l 599 414 q 544 638 599 554 q 390 721 490 721 q 224 649 282 721 q 167 461 167 576 q 235 257 167 335 q 429 179 303 179 q 471 182 443 179 l 471 131 q 425 129 456 129 q 192 222 274 129 q 111 461 111 314 q 184 686 111 601 q 385 771 257 771 q 549 703 490 771 q 622 544 607 636 l 625 544 q 695 697 642 632 q 847 769 749 761 l 847 979 l -44 979 l -44 1028 l 1290 1028 l 1290 979 l 903 979 z "},"ॡ":{"ha":1257,"x_min":-44,"x_max":1292,"o":"m 903 979 l 903 769 q 1074 675 1013 760 q 1135 461 1135 590 q 1113 322 1135 383 l 1056 322 q 949 293 992 322 q 907 199 907 264 q 951 108 907 138 q 1064 78 994 78 l 1119 78 l 1119 32 l 1057 32 q 950 3 993 32 q 907 -92 907 -26 q 951 -184 907 -154 q 1065 -214 994 -214 q 1138 -207 1101 -214 q 1199 -192 1174 -200 l 1199 -236 q 1137 -253 1175 -246 q 1060 -260 1099 -260 q 910 -219 969 -260 q 851 -94 851 -178 q 885 4 851 -35 q 969 53 919 43 l 969 57 q 884 106 915 69 q 853 201 853 143 q 908 322 853 283 q 1040 361 963 361 l 1067 361 q 1079 461 1079 410 q 1024 647 1079 574 q 868 721 969 721 q 705 639 761 721 q 649 414 649 557 l 649 399 l 599 399 l 599 414 q 544 638 599 554 q 390 721 490 721 q 224 649 282 721 q 167 461 167 576 q 235 257 167 335 q 429 179 303 179 q 471 182 443 179 l 471 131 q 425 129 456 129 q 192 222 274 129 q 111 461 111 314 q 184 686 111 601 q 385 771 257 771 q 549 703 490 771 q 622 544 607 636 l 625 544 q 695 697 642 632 q 847 769 749 761 l 847 979 l -44 979 l -44 1028 l 1292 1028 l 1292 979 l 903 979 z "},"ए":{"ha":904,"x_min":-44,"x_max":949,"o":"m 513 567 q 543 565 524 565 q 678 619 638 565 q 719 790 719 672 l 719 979 l 214 979 l 214 383 q 281 158 214 239 q 482 76 349 76 q 671 147 604 76 q 738 346 738 218 l 793 346 q 712 111 793 196 q 483 26 631 26 q 239 122 319 26 q 158 385 158 218 l 158 979 l -44 979 l -44 1028 l 949 1028 l 949 979 l 774 979 l 774 789 q 722 581 774 647 q 553 515 671 515 q 513 517 526 515 l 513 567 z "},"ऐ":{"ha":904,"x_min":-44,"x_max":949,"o":"m 513 567 q 543 565 524 565 q 678 619 638 565 q 719 790 719 672 l 719 979 l 214 979 l 214 383 q 281 158 214 239 q 482 76 349 76 q 671 147 604 76 q 738 346 738 218 l 793 346 q 712 111 793 196 q 483 26 631 26 q 239 122 319 26 q 158 385 158 218 l 158 979 l -44 979 l -44 1028 l 949 1028 l 949 979 l 774 979 l 774 789 q 722 581 774 647 q 553 515 671 515 q 513 517 526 515 l 513 567 m 719 1024 q 584 1210 638 1153 q 484 1284 531 1268 q 357 1300 438 1300 l 307 1300 l 307 1347 l 356 1347 q 503 1329 449 1347 q 620 1243 558 1311 q 774 1024 682 1175 l 719 1024 z "},"ओ":{"ha":1528,"x_min":114,"x_max":1572,"o":"m 1307 1024 q 1172 1210 1225 1153 q 1072 1284 1118 1268 q 944 1300 1025 1300 l 894 1300 l 894 1347 l 943 1347 q 1091 1329 1036 1347 q 1208 1243 1146 1311 q 1361 1024 1269 1175 l 1307 1024 m 1185 1028 l 1185 979 l 974 979 l 974 0 l 918 0 l 918 507 l 624 508 q 672 430 656 475 q 689 335 689 385 q 613 142 689 215 q 411 69 538 69 q 258 104 326 69 q 152 201 190 139 q 114 344 114 264 l 167 344 q 198 228 167 279 q 284 148 229 176 q 407 119 339 119 q 574 180 511 119 q 636 338 636 240 q 612 441 636 392 q 535 522 588 490 q 403 553 483 553 l 353 553 l 353 601 l 403 601 q 522 628 474 601 q 594 699 571 656 q 618 789 618 742 q 557 937 618 882 q 404 992 496 992 q 242 938 307 992 q 179 794 178 885 l 125 794 q 203 974 125 907 q 404 1040 282 1040 q 540 1010 479 1040 q 635 926 600 981 q 669 799 669 871 q 624 655 669 714 q 488 579 578 596 l 488 578 q 560 556 531 571 l 918 556 l 918 1028 l 1185 1028 m 1306 979 l 1096 979 l 1096 1028 l 1572 1028 l 1572 979 l 1363 979 l 1363 0 l 1306 0 l 1306 979 z "},"औ":{"ha":1528,"x_min":114,"x_max":1572,"o":"m 942 1422 q 1088 1401 1035 1422 q 1203 1296 1142 1379 q 1361 1024 1265 1213 l 1311 1024 q 1173 1130 1226 1097 q 1072 1172 1119 1163 q 942 1181 1025 1181 l 892 1181 l 892 1221 l 940 1221 q 1068 1214 1022 1221 q 1165 1178 1114 1207 q 1289 1085 1215 1150 q 1163 1285 1215 1222 q 1065 1364 1111 1347 q 942 1381 1018 1381 l 892 1381 l 892 1422 l 942 1422 m 1185 1028 l 1185 979 l 974 979 l 974 0 l 918 0 l 918 507 l 624 508 q 672 430 656 475 q 689 335 689 385 q 613 142 689 215 q 411 69 538 69 q 258 104 326 69 q 152 201 190 139 q 114 344 114 264 l 167 344 q 198 228 167 279 q 284 148 229 176 q 407 119 339 119 q 574 180 511 119 q 636 338 636 240 q 612 441 636 392 q 535 522 588 490 q 403 553 483 553 l 353 553 l 353 601 l 403 601 q 522 628 474 601 q 594 699 571 656 q 618 789 618 742 q 557 937 618 882 q 404 992 496 992 q 242 938 307 992 q 179 794 178 885 l 125 794 q 203 974 125 907 q 404 1040 282 1040 q 540 1010 479 1040 q 635 926 600 981 q 669 799 669 871 q 624 655 669 714 q 488 579 578 596 l 488 578 q 560 556 531 571 l 918 556 l 918 1028 l 1185 1028 m 1306 979 l 1096 979 l 1096 1028 l 1572 1028 l 1572 979 l 1363 979 l 1363 0 l 1306 0 l 1306 979 z "},"ऍ":{"ha":904,"x_min":-44,"x_max":949,"o":"m 513 567 q 543 565 524 565 q 678 619 638 565 q 719 790 719 672 l 719 979 l 214 979 l 214 383 q 281 158 214 239 q 482 76 349 76 q 671 147 604 76 q 738 346 738 218 l 793 346 q 712 111 793 196 q 483 26 631 26 q 239 122 319 26 q 158 385 158 218 l 158 979 l -44 979 l -44 1028 l 949 1028 l 949 979 l 774 979 l 774 789 q 722 581 774 647 q 553 515 671 515 q 513 517 526 515 l 513 567 m 458 1178 q 317 1209 374 1178 q 232 1290 260 1240 q 204 1394 204 1340 l 254 1394 q 276 1313 254 1353 q 344 1249 299 1274 q 458 1224 390 1224 q 571 1249 525 1224 q 639 1313 617 1274 q 661 1394 661 1353 l 711 1394 q 683 1290 711 1340 q 599 1209 656 1240 q 458 1178 542 1178 z "},"ॲ":{"ha":1140,"x_min":114,"x_max":1211,"o":"m 1185 1028 l 1185 979 l 974 979 l 974 0 l 918 0 l 918 507 l 624 508 q 672 430 656 475 q 689 335 689 385 q 613 142 689 215 q 411 69 538 69 q 258 104 326 69 q 152 201 190 139 q 114 344 114 264 l 167 344 q 198 228 167 279 q 284 148 229 176 q 407 119 339 119 q 574 180 511 119 q 636 338 636 240 q 612 441 636 392 q 535 522 588 490 q 403 553 483 553 l 353 553 l 353 601 l 403 601 q 522 628 474 601 q 594 699 571 656 q 618 789 618 742 q 557 937 618 882 q 404 992 496 992 q 242 938 307 992 q 179 794 178 885 l 125 794 q 203 974 125 907 q 404 1040 282 1040 q 540 1010 479 1040 q 635 926 600 981 q 669 799 669 871 q 624 655 669 714 q 488 579 578 596 l 488 578 q 560 556 531 571 l 918 556 l 918 1028 l 1185 1028 m 958 1179 q 817 1210 874 1179 q 732 1292 760 1242 q 704 1396 704 1342 l 754 1396 q 776 1315 754 1354 q 844 1250 799 1275 q 958 1225 890 1225 q 1071 1250 1025 1225 q 1139 1315 1117 1275 q 1161 1396 1161 1354 l 1211 1396 q 1183 1292 1211 1342 q 1099 1210 1156 1242 q 958 1179 1042 1179 z "},"ऑ":{"ha":1528,"x_min":114,"x_max":1572,"o":"m 1185 1028 l 1185 979 l 974 979 l 974 0 l 918 0 l 918 507 l 624 508 q 672 430 656 475 q 689 335 689 385 q 613 142 689 215 q 411 69 538 69 q 258 104 326 69 q 152 201 190 139 q 114 344 114 264 l 167 344 q 198 228 167 279 q 284 148 229 176 q 407 119 339 119 q 574 180 511 119 q 636 338 636 240 q 612 441 636 392 q 535 522 588 490 q 403 553 483 553 l 353 553 l 353 601 l 403 601 q 522 628 474 601 q 594 699 571 656 q 618 789 618 742 q 557 937 618 882 q 404 992 496 992 q 242 938 307 992 q 179 794 178 885 l 125 794 q 203 974 125 907 q 404 1040 282 1040 q 540 1010 479 1040 q 635 926 600 981 q 669 799 669 871 q 624 655 669 714 q 488 579 578 596 l 488 578 q 560 556 531 571 l 918 556 l 918 1028 l 1185 1028 m 1306 979 l 1096 979 l 1096 1028 l 1572 1028 l 1572 979 l 1363 979 l 1363 0 l 1306 0 l 1306 979 m 1142 1178 q 1000 1209 1057 1178 q 915 1290 943 1240 q 888 1394 888 1340 l 938 1394 q 960 1313 938 1353 q 1028 1249 982 1274 q 1142 1224 1074 1224 q 1254 1249 1208 1224 q 1322 1313 1300 1274 q 1344 1394 1344 1353 l 1394 1394 q 1367 1290 1394 1340 q 1282 1209 1339 1240 q 1142 1178 1225 1178 z "},"ा":{"ha":388,"x_min":-44,"x_max":432,"o":"m 165 979 l -44 979 l -44 1028 l 432 1028 l 432 979 l 222 979 l 222 0 l 165 0 l 165 979 z "},"ि":{"ha":388,"x_min":-44,"x_max":1179,"o":"m 674 1356 q 917 1324 803 1356 q 1106 1222 1032 1293 q 1179 1036 1179 1150 l 1179 1011 l 1124 1011 l 1124 1035 q 1054 1197 1124 1136 q 883 1283 985 1258 q 674 1307 782 1307 q 354 1249 486 1307 q 222 1031 222 1190 l 222 1028 l 432 1028 l 432 979 l 222 979 l 222 0 l 165 0 l 165 979 l -44 979 l -44 1028 l 165 1028 l 165 1031 q 312 1283 165 1211 q 674 1356 458 1356 z "},"ी":{"ha":388,"x_min":-222,"x_max":432,"o":"m 432 1028 l 432 979 l 222 979 l 222 0 l 165 0 l 165 979 l -44 979 l -44 1028 l 167 1028 l 167 1090 q 128 1246 167 1185 q 1 1307 90 1307 q -128 1246 -89 1307 q -167 1090 -167 1185 l -167 1013 l -222 1013 l -222 1088 q -168 1281 -222 1207 q 1 1356 -114 1356 q 169 1282 117 1356 q 222 1088 222 1208 l 222 1028 l 432 1028 z "},"ु":{"ha":0,"x_min":-564,"x_max":-6,"o":"m -262 -385 q -480 -315 -396 -385 q -558 -111 -564 -246 l -507 -111 q -444 -281 -512 -224 q -264 -337 -375 -337 q -112 -292 -169 -337 q -56 -165 -56 -247 q -94 -62 -56 -107 q -197 -18 -133 -18 l -222 -18 l -222 29 l -197 29 q -57 -28 -108 29 q -6 -167 -6 -85 q -74 -326 -6 -268 q -262 -385 -143 -385 z "},"ू":{"ha":0,"x_min":-440,"x_max":125,"o":"m -233 -379 q -382 -326 -324 -379 q -440 -182 -440 -272 q -373 -29 -440 -86 q -196 28 -306 28 q -28 -16 -100 28 q 85 -143 44 -60 q 125 -340 125 -226 l 124 -368 l 75 -368 l 75 -329 q 40 -162 75 -233 q -56 -55 6 -92 q -193 -18 -117 -18 q -338 -63 -285 -18 q -392 -182 -392 -108 q -347 -292 -392 -250 q -231 -333 -301 -333 q -179 -329 -206 -333 l -179 -375 q -233 -379 -206 -379 z "},"ृ":{"ha":0,"x_min":-432,"x_max":-92,"o":"m -192 -410 q -362 -355 -293 -410 q -432 -193 -432 -300 q -369 -35 -432 -97 q -193 28 -306 28 l -165 28 l -165 -15 l -190 -15 q -328 -65 -278 -15 q -378 -192 -378 -115 q -324 -321 -378 -279 q -186 -362 -269 -362 q -92 -349 -133 -362 l -92 -394 q -137 -406 -108 -401 q -192 -410 -165 -410 z "},"ॄ":{"ha":0,"x_min":-425,"x_max":-78,"o":"m -217 -593 q -366 -552 -307 -593 q -425 -429 -425 -511 q -391 -329 -425 -368 q -307 -281 -357 -290 l -307 -276 q -393 -228 -361 -264 q -425 -132 -425 -192 q -370 -12 -425 -51 q -236 28 -315 28 l -165 28 l -165 -11 l -221 -11 q -327 -40 -285 -11 q -369 -135 -369 -69 q -326 -226 -369 -196 q -212 -256 -283 -256 l -157 -256 l -157 -300 l -219 -300 q -326 -330 -283 -300 q -369 -425 -369 -360 q -326 -517 -369 -487 q -211 -546 -282 -546 q -138 -540 -175 -546 q -78 -525 -101 -533 l -78 -569 q -140 -586 -101 -579 q -217 -593 -178 -593 z "},"ॢ":{"ha":0,"x_min":-560,"x_max":206,"o":"m 147 -593 q 206 -583 181 -593 l 206 -625 q 144 -632 181 -632 q 19 -592 68 -632 q -31 -476 -31 -553 q 10 -367 -31 -411 q 122 -318 51 -324 q 131 -253 131 -287 q 93 -121 131 -171 q -17 -71 56 -71 q -131 -128 -92 -71 q -169 -285 -169 -186 l -169 -296 l -211 -296 l -211 -285 q -249 -128 -211 -186 q -358 -71 -287 -71 q -473 -121 -433 -71 q -512 -253 -512 -171 q -465 -393 -512 -339 q -331 -447 -418 -447 q -300 -444 -307 -447 l -300 -487 q -333 -489 -308 -489 q -501 -423 -442 -489 q -560 -253 -560 -357 q -506 -90 -560 -151 q -362 -28 -453 -28 q -245 -76 -287 -28 q -192 -190 -203 -125 l -189 -190 q -133 -76 -176 -124 q -10 -28 -90 -28 q 128 -90 78 -28 q 178 -253 178 -153 q 161 -350 178 -304 l 153 -350 q 52 -385 89 -350 q 15 -472 15 -419 q 53 -562 15 -532 q 147 -593 92 -593 z "},"ॣ":{"ha":0,"x_min":-560,"x_max":222,"o":"m 128 -731 q 222 -715 179 -731 l 222 -753 q 178 -765 206 -760 q 124 -769 151 -769 q 16 -740 58 -769 q -26 -650 -26 -710 q -2 -579 -26 -607 q 58 -543 22 -551 l 58 -542 q -4 -505 18 -532 q -26 -435 -26 -478 q 13 -347 -26 -376 q 107 -318 51 -318 l 122 -318 q 131 -253 131 -287 q 93 -121 131 -171 q -17 -71 56 -71 q -131 -128 -92 -71 q -169 -285 -169 -186 l -169 -296 l -211 -296 l -211 -285 q -249 -128 -211 -186 q -358 -71 -287 -71 q -473 -121 -433 -71 q -512 -253 -512 -171 q -465 -393 -512 -339 q -331 -447 -418 -447 q -300 -444 -307 -447 l -300 -487 q -333 -489 -308 -489 q -501 -423 -442 -489 q -560 -253 -560 -357 q -506 -90 -560 -151 q -362 -28 -453 -28 q -245 -76 -287 -28 q -192 -190 -203 -125 l -189 -190 q -133 -76 -176 -124 q -10 -28 -90 -28 q 128 -90 78 -28 q 178 -253 178 -153 q 161 -350 178 -304 l 119 -350 q 47 -371 76 -350 q 18 -436 18 -392 q 48 -502 18 -481 q 126 -524 78 -524 l 165 -524 l 165 -561 l 125 -561 q 47 -581 78 -561 q 17 -647 17 -600 q 48 -710 17 -689 q 128 -731 79 -731 z "},"े":{"ha":0,"x_min":-632,"x_max":-165,"o":"m -219 1024 q -355 1210 -301 1153 q -455 1284 -408 1268 q -582 1300 -501 1300 l -632 1300 l -632 1347 l -583 1347 q -435 1329 -490 1347 q -319 1243 -381 1311 q -165 1024 -257 1175 l -219 1024 z "},"ै":{"ha":0,"x_min":-635,"x_max":-165,"o":"m -585 1422 q -438 1401 -492 1422 q -323 1296 -385 1379 q -165 1024 -261 1213 l -215 1024 q -353 1130 -300 1097 q -454 1172 -407 1163 q -585 1181 -501 1181 l -635 1181 l -635 1221 l -586 1221 q -458 1214 -504 1221 q -362 1178 -412 1207 q -237 1085 -311 1150 q -363 1285 -311 1222 q -462 1364 -415 1347 q -585 1381 -508 1381 l -635 1381 l -635 1422 l -585 1422 z "},"ो":{"ha":388,"x_min":-244,"x_max":432,"o":"m 165 979 l -44 979 l -44 1028 l 432 1028 l 432 979 l 222 979 l 222 0 l 165 0 l 165 979 m 168 1024 q 33 1210 86 1153 q -67 1284 -21 1268 q -194 1300 -114 1300 l -244 1300 l -244 1347 l -196 1347 q -48 1329 -103 1347 q 69 1243 7 1311 q 222 1024 131 1175 l 168 1024 z "},"ौ":{"ha":388,"x_min":-249,"x_max":432,"o":"m 165 979 l -44 979 l -44 1028 l 432 1028 l 432 979 l 222 979 l 222 0 l 165 0 l 165 979 m -199 1422 q -52 1401 -106 1422 q 63 1296 1 1379 q 221 1024 125 1213 l 171 1024 q 33 1130 86 1097 q -68 1172 -21 1163 q -199 1181 -115 1181 l -249 1181 l -249 1221 l -200 1221 q -72 1214 -118 1221 q 24 1178 -26 1207 q 149 1085 75 1150 q 23 1285 75 1222 q -76 1364 -29 1347 q -199 1381 -122 1381 l -249 1381 l -249 1422 l -199 1422 z "},"ॅ":{"ha":0,"x_min":-450,"x_max":57,"o":"m -196 1142 q -337 1173 -281 1142 q -422 1254 -394 1204 q -450 1358 -450 1304 l -400 1358 q -378 1277 -400 1317 q -310 1213 -356 1238 q -196 1188 -264 1188 q -83 1213 -129 1188 q -15 1277 -37 1238 q 7 1358 7 1317 l 57 1358 q 29 1254 57 1304 q -56 1173 1 1204 q -196 1142 -112 1142 z "},"ॉ":{"ha":388,"x_min":-60,"x_max":447,"o":"m 165 979 l -44 979 l -44 1028 l 432 1028 l 432 979 l 222 979 l 222 0 l 165 0 l 165 979 m 194 1142 q 53 1173 110 1142 q -32 1254 -4 1204 q -60 1358 -60 1304 l -10 1358 q 13 1277 -10 1317 q 81 1213 35 1238 q 194 1188 126 1188 q 307 1213 261 1188 q 375 1277 353 1238 q 397 1358 397 1317 l 447 1358 q 419 1254 447 1304 q 335 1173 392 1204 q 194 1142 278 1142 z "},"क":{"ha":1406,"x_min":-44,"x_max":1450,"o":"m 736 979 l 736 619 q 832 749 765 699 q 1000 799 899 799 q 1149 760 1082 799 q 1256 650 1217 721 q 1294 486 1294 579 q 1256 313 1294 386 q 1152 202 1218 240 q 1003 164 1086 164 q 921 174 957 164 l 921 219 q 993 213 956 213 q 1118 244 1063 213 q 1206 338 1174 276 q 1238 485 1238 400 q 1204 624 1238 564 q 1114 717 1171 685 q 989 750 1057 750 q 846 709 903 750 q 763 605 789 668 q 736 474 736 542 l 736 0 l 683 0 l 683 340 q 584 212 653 261 q 413 163 515 163 q 258 201 326 163 q 150 313 189 240 q 111 485 111 386 q 151 651 111 579 q 259 760 190 722 q 414 799 328 799 q 586 749 518 799 q 683 622 654 700 l 683 979 l -44 979 l -44 1028 l 1450 1028 l 1450 979 l 736 979 m 425 211 q 569 251 511 211 q 656 353 628 292 q 683 479 683 415 q 656 609 683 547 q 569 710 628 671 q 425 750 511 750 q 295 718 354 750 q 201 626 236 686 q 167 485 167 565 q 201 338 167 400 q 293 244 235 276 q 425 211 351 211 z "},"ख":{"ha":1275,"x_min":-44,"x_max":1319,"o":"m 1319 1028 l 1319 979 l 1108 979 l 1108 0 l 1053 0 l 1053 360 q 965 251 1025 293 q 817 210 906 210 q 757 215 783 210 q 642 60 721 121 q 451 -1 564 -1 q 218 83 306 -1 q 131 311 131 167 l 131 550 l 188 550 q 335 599 278 550 q 392 775 392 647 l 392 979 l -44 979 l -44 1028 l 1319 1028 m 453 49 q 613 99 547 49 q 708 229 678 150 q 585 328 631 258 q 539 497 539 397 q 576 644 539 581 q 676 741 613 707 q 817 775 739 775 q 967 734 907 775 q 1053 626 1026 693 l 1053 979 l 447 979 l 447 769 q 204 506 447 506 l 186 506 l 186 307 q 258 119 186 190 q 453 49 331 49 m 825 256 q 953 291 901 256 q 1028 381 1004 326 q 1053 492 1053 435 l 1053 493 q 1028 606 1053 551 q 953 694 1004 660 q 825 729 901 729 q 708 701 761 729 q 624 621 656 674 q 592 497 592 568 q 622 367 592 422 q 706 284 653 313 q 825 256 760 256 z "},"ग":{"ha":979,"x_min":-44,"x_max":1024,"o":"m 1024 1028 l 1024 979 l 814 979 l 814 0 l 757 0 l 757 979 l 468 979 l 468 568 q 420 415 468 475 q 272 356 372 356 q 126 415 175 356 q 76 564 76 474 l 76 606 l 132 606 l 132 563 q 165 451 132 497 q 271 404 199 404 q 379 451 347 404 q 411 567 411 497 l 411 979 l -44 979 l -44 1028 l 1024 1028 z "},"घ":{"ha":996,"x_min":-44,"x_max":1040,"o":"m 1040 979 l 831 979 l 831 0 l 775 0 l 775 356 q 648 209 735 263 q 446 156 561 156 q 215 222 301 156 q 129 410 129 288 q 188 560 129 503 q 335 628 247 618 l 335 631 q 205 694 254 640 q 156 850 156 747 l 156 979 l -44 979 l -44 1028 l 1040 1028 l 1040 979 m 775 979 l 213 979 l 213 851 q 267 703 213 753 q 439 653 321 653 l 510 653 l 510 606 l 436 606 q 247 552 308 606 q 185 414 185 499 q 260 258 185 311 q 456 204 335 204 q 617 242 543 204 q 733 349 690 281 q 775 504 775 417 l 775 979 z "},"ङ":{"ha":882,"x_min":-44,"x_max":926,"o":"m 926 1028 l 926 979 l 643 979 l 643 731 l 404 731 q 254 699 315 731 q 193 585 193 667 q 245 475 193 510 q 379 440 297 440 l 442 440 q 643 386 561 440 q 725 210 725 332 q 653 48 725 111 q 444 -15 581 -15 q 266 19 340 -15 q 153 114 192 53 q 114 253 115 175 l 169 253 q 240 93 169 156 q 443 31 310 31 q 613 81 554 31 q 671 211 671 132 q 603 353 671 311 q 433 396 535 396 l 374 396 q 203 442 271 396 q 136 586 136 489 q 209 731 136 686 q 386 775 282 775 l 589 775 l 589 979 l -44 979 l -44 1028 l 926 1028 m 800 613 q 833 599 819 613 q 846 565 846 586 q 833 533 846 546 q 800 519 819 519 q 765 533 779 519 q 751 565 751 546 q 765 599 751 586 q 800 613 779 613 z "},"च":{"ha":1006,"x_min":-44,"x_max":1050,"o":"m 1050 979 l 840 979 l 840 0 l 783 0 l 783 326 q 672 201 747 249 q 503 153 597 153 q 351 187 419 153 q 242 285 282 221 q 201 438 201 350 q 246 596 201 528 q 369 697 290 664 l 68 697 l 68 744 l 567 744 l 567 697 l 524 697 q 381 665 442 697 q 288 574 321 632 q 256 444 256 517 q 290 313 256 368 q 384 230 325 258 q 513 201 443 201 q 651 238 589 201 q 748 337 713 275 q 783 471 783 399 l 783 979 l -44 979 l -44 1028 l 1050 1028 l 1050 979 z "},"छ":{"ha":1129,"x_min":-44,"x_max":1174,"o":"m 846 979 l 846 772 q 1000 690 939 763 q 1061 488 1061 618 q 996 251 1061 351 q 814 97 931 150 q 549 43 697 43 q 231 122 350 43 q 111 347 111 201 q 173 511 111 450 q 328 583 235 572 l 328 588 q 199 651 249 597 q 150 807 150 704 l 150 979 l -44 979 l -44 1028 l 1174 1028 l 1174 979 l 846 979 m 793 979 l 206 979 l 206 808 q 260 660 206 710 q 431 610 314 610 l 463 610 l 463 563 l 431 563 q 233 503 299 563 q 168 350 168 443 q 272 159 168 225 q 550 93 376 93 q 785 141 681 93 q 950 278 890 189 q 1010 488 1010 368 q 982 622 1010 567 q 910 703 954 676 q 818 729 867 729 q 693 683 747 729 q 639 539 639 636 q 664 397 639 475 l 615 397 q 589 543 589 472 q 647 709 589 653 q 793 772 706 765 l 793 979 z "},"ज":{"ha":1151,"x_min":-44,"x_max":1196,"o":"m 1196 979 l 986 979 l 986 0 l 931 0 l 931 653 l 606 653 l 606 468 q 539 279 606 351 q 360 207 472 207 q 187 279 250 207 q 124 468 124 351 l 124 703 l 179 703 l 179 468 q 228 315 179 374 q 361 257 278 257 q 499 315 449 257 q 550 468 550 374 l 550 703 l 931 703 l 931 979 l -44 979 l -44 1028 l 1196 1028 l 1196 979 z "},"झ":{"ha":1163,"x_min":-44,"x_max":1207,"o":"m 1207 979 l 997 979 l 997 0 l 942 0 l 942 396 l 607 397 q 692 325 661 372 q 724 206 724 278 q 661 56 724 115 q 478 -4 599 -4 q 337 22 394 -4 q 249 82 279 49 q 208 143 219 115 l 208 -101 l 154 -101 l 154 239 l 204 239 q 285 98 218 154 q 468 42 351 42 q 620 90 569 42 q 671 210 671 138 q 609 347 671 297 q 432 396 547 396 q 365 397 385 396 q 198 444 264 397 q 132 585 132 492 q 206 731 132 686 q 385 775 279 775 l 588 775 l 588 979 l -44 979 l -44 1028 l 1207 1028 l 1207 979 m 942 440 l 942 979 l 642 979 l 642 731 l 404 731 q 251 699 314 731 q 189 585 189 667 q 242 475 189 510 q 378 440 296 440 l 440 440 l 942 440 z "},"ञ":{"ha":1104,"x_min":-44,"x_max":1149,"o":"m 1149 979 l 939 979 l 939 0 l 882 0 l 882 456 l 715 456 q 674 303 710 372 q 570 194 638 235 q 407 153 503 153 q 204 219 278 153 q 111 378 131 285 l 165 378 q 245 254 185 306 q 407 203 306 203 q 548 240 490 203 q 634 339 606 276 q 663 478 663 401 q 634 613 663 551 q 548 712 606 675 q 407 749 490 749 q 242 697 301 749 q 165 574 182 644 l 111 574 q 202 733 128 667 q 407 799 276 799 q 569 758 501 799 q 672 652 636 718 q 714 506 708 586 l 882 506 l 882 979 l -44 979 l -44 1028 l 1149 1028 l 1149 979 z "},"ट":{"ha":907,"x_min":-44,"x_max":951,"o":"m 514 738 q 263 658 360 738 q 167 425 167 578 q 206 272 167 339 q 315 166 246 204 q 472 128 385 128 q 630 167 561 128 q 738 277 699 207 q 776 436 776 347 l 831 436 q 785 250 831 332 q 659 123 740 168 q 472 78 578 78 q 287 122 369 78 q 158 245 204 167 q 111 424 111 324 q 222 694 111 601 q 511 786 332 786 l 568 786 l 568 979 l -44 979 l -44 1028 l 951 1028 l 951 979 l 624 979 l 624 738 l 514 738 z "},"ठ":{"ha":943,"x_min":-44,"x_max":988,"o":"m 499 979 l 499 771 q 669 721 593 765 q 788 600 744 676 q 832 426 832 524 q 785 247 832 325 q 656 124 739 168 q 471 81 574 81 q 287 124 369 81 q 158 247 204 168 q 111 426 111 325 q 154 600 111 524 q 273 721 197 676 q 443 771 349 765 l 443 979 l -44 979 l -44 1028 l 988 1028 l 988 979 l 499 979 m 776 426 q 737 580 776 513 q 628 685 697 647 q 471 724 558 724 q 315 685 385 724 q 206 580 246 647 q 167 426 167 513 q 206 273 167 340 q 315 167 246 206 q 471 129 385 129 q 628 167 558 129 q 737 273 697 206 q 776 426 776 340 z "},"ड":{"ha":804,"x_min":-44,"x_max":849,"o":"m 404 731 q 254 699 315 731 q 193 585 193 667 q 245 475 193 510 q 379 440 297 440 l 442 440 q 643 386 561 440 q 725 210 725 332 q 653 48 725 111 q 444 -15 581 -15 q 266 19 340 -15 q 153 114 192 53 q 114 253 115 175 l 169 253 q 240 93 169 156 q 443 31 310 31 q 613 81 554 31 q 671 211 671 132 q 603 353 671 311 q 433 396 535 396 l 374 396 q 203 442 271 396 q 136 586 136 489 q 209 731 136 686 q 386 775 282 775 l 579 775 l 579 979 l -44 979 l -44 1028 l 849 1028 l 849 979 l 633 979 l 633 731 l 404 731 z "},"ढ":{"ha":879,"x_min":-44,"x_max":924,"o":"m 535 744 q 267 658 369 744 q 165 403 165 571 q 210 230 165 306 q 333 112 254 154 q 513 69 413 69 q 648 98 588 69 q 742 176 708 126 q 776 289 776 226 q 727 418 776 367 q 601 469 678 469 q 490 427 536 469 q 443 315 443 385 q 446 286 443 303 l 400 286 q 397 322 397 306 q 456 462 397 410 q 603 514 515 514 q 765 451 703 514 q 826 289 826 388 q 788 151 826 211 q 677 58 749 92 q 511 25 606 25 q 306 72 397 25 q 163 206 215 119 q 111 403 111 292 q 165 617 111 531 q 311 747 218 704 q 522 789 404 789 l 596 789 l 596 979 l -44 979 l -44 1028 l 924 1028 l 924 979 l 650 979 l 650 744 l 535 744 z "},"ण":{"ha":1157,"x_min":-44,"x_max":1201,"o":"m 1201 979 l 990 979 l 990 0 l 935 0 l 935 979 l 614 979 l 614 546 q 550 358 614 429 q 374 286 486 286 q 199 358 263 286 q 135 546 135 431 l 135 979 l -44 979 l -44 1028 l 1201 1028 l 1201 979 m 558 979 l 190 979 l 190 542 q 240 392 190 450 q 375 335 290 335 q 510 392 461 335 q 558 542 558 449 l 558 979 z "},"त":{"ha":953,"x_min":-44,"x_max":997,"o":"m 997 979 l 786 979 l 786 0 l 731 0 l 731 646 l 510 646 q 258 572 349 646 q 167 349 167 497 q 248 128 167 206 q 478 50 329 50 l 510 50 l 510 3 l 472 3 q 207 93 303 3 q 111 350 111 183 q 217 610 111 524 q 507 696 322 696 l 731 696 l 731 979 l -44 979 l -44 1028 l 997 1028 l 997 979 z "},"थ":{"ha":1042,"x_min":129,"x_max":1086,"o":"m 1086 1028 l 1086 979 l 876 979 l 876 0 l 819 0 l 819 350 q 708 210 792 269 q 496 151 624 151 q 226 251 324 151 q 129 521 129 350 q 132 578 129 539 l 278 578 q 493 626 406 578 q 581 800 581 675 q 530 936 581 882 q 393 990 479 990 q 249 936 301 990 q 197 792 197 882 q 204 726 197 764 l 151 726 q 146 796 146 765 q 213 974 146 907 q 393 1040 281 1040 q 520 1008 465 1040 q 605 922 575 976 q 635 799 635 867 q 539 596 635 658 q 292 533 443 533 l 183 533 q 262 290 179 379 q 503 200 344 200 q 661 236 589 200 q 776 340 733 272 q 819 494 819 407 l 819 1028 l 1086 1028 z "},"द":{"ha":844,"x_min":-44,"x_max":889,"o":"m 483 754 q 324 723 396 754 q 210 630 253 692 q 168 478 168 568 q 240 284 168 357 q 435 211 313 211 q 547 235 492 211 q 638 310 601 258 q 674 436 674 361 l 724 436 l 724 -8 l 669 -8 l 669 301 q 574 202 642 240 q 422 164 507 164 q 195 249 279 164 q 111 479 111 335 q 160 658 111 586 q 293 767 210 731 q 479 803 376 803 l 608 803 l 608 979 l -44 979 l -44 1028 l 889 1028 l 889 979 l 664 979 l 664 754 l 483 754 z "},"ध":{"ha":972,"x_min":128,"x_max":1019,"o":"m 1019 979 l 810 979 l 810 0 l 753 0 l 753 351 q 628 206 714 260 q 431 153 543 153 q 219 214 301 153 q 136 389 136 275 q 188 529 136 475 q 311 592 240 583 l 311 594 q 181 667 233 610 q 128 821 128 725 q 190 978 128 915 q 351 1040 251 1040 q 512 982 453 1040 q 571 829 571 924 q 569 788 571 804 l 522 788 l 524 825 q 478 944 524 896 q 353 992 433 992 q 226 942 272 992 q 179 815 179 892 q 240 672 179 725 q 411 618 300 618 l 488 618 l 488 571 l 414 571 q 249 522 304 571 q 193 393 193 472 q 263 249 193 299 q 439 200 332 200 q 598 240 526 200 q 711 349 669 279 q 753 510 753 419 l 753 1028 l 1019 1028 l 1019 979 z "},"न":{"ha":1071,"x_min":-44,"x_max":1115,"o":"m 1115 979 l 904 979 l 904 0 l 849 0 l 849 658 l 506 658 q 589 575 557 629 q 621 450 621 521 q 588 320 621 376 q 496 233 554 264 q 364 201 438 201 q 226 233 286 201 q 132 322 165 265 q 99 451 99 378 q 174 638 99 568 q 368 707 249 707 l 849 707 l 849 979 l -44 979 l -44 1028 l 1115 1028 l 1115 979 m 572 454 q 513 600 572 543 q 364 657 454 657 q 210 601 269 657 q 151 453 151 544 q 210 306 151 363 q 364 250 268 250 q 513 308 454 250 q 572 454 572 365 z "},"प":{"ha":892,"x_min":-44,"x_max":936,"o":"m 936 979 l 726 979 l 726 0 l 669 0 l 669 451 q 574 343 638 382 q 422 304 511 304 q 206 393 279 304 q 132 640 132 482 l 132 979 l -44 979 l -44 1028 l 936 1028 l 936 979 m 669 979 l 188 979 l 188 640 q 248 428 188 503 q 432 354 308 354 q 560 387 506 354 q 642 475 614 419 q 669 599 669 531 l 669 979 z "},"फ":{"ha":1369,"x_min":-44,"x_max":1414,"o":"m 699 979 l 699 618 q 794 748 726 697 q 964 799 861 799 q 1113 760 1046 799 q 1219 651 1181 722 q 1258 486 1258 579 q 1220 313 1258 386 q 1116 202 1182 240 q 967 164 1050 164 q 883 174 919 164 l 883 219 q 957 213 921 213 q 1083 244 1026 213 q 1171 338 1139 276 q 1203 485 1203 400 q 1169 624 1203 564 q 1078 717 1136 685 q 953 750 1021 750 q 810 708 867 750 q 726 603 753 667 q 699 469 699 539 l 699 0 l 643 0 l 643 451 q 553 344 613 383 q 408 304 493 304 q 202 392 272 304 q 132 638 132 481 l 132 979 l -44 979 l -44 1028 l 1414 1028 l 1414 979 l 699 979 m 643 979 l 188 979 l 188 638 q 244 428 188 501 q 418 354 301 354 q 583 424 524 354 q 643 596 643 493 l 643 979 z "},"ब":{"ha":958,"x_min":-44,"x_max":1003,"o":"m 1003 1028 l 1003 979 l 792 979 l 792 0 l 738 0 l 738 333 q 631 203 706 254 q 447 153 556 153 q 278 192 356 153 q 156 306 201 232 q 111 479 111 381 q 155 655 111 579 q 274 771 199 731 q 443 811 350 811 q 628 759 553 811 q 738 626 704 707 l 738 979 l -44 979 l -44 1028 l 1003 1028 m 451 769 q 342 751 393 769 q 250 696 290 732 l 676 299 q 724 385 708 338 q 740 482 740 433 q 708 620 740 554 q 610 728 675 686 q 451 769 544 769 m 163 479 q 201 328 163 393 q 307 231 240 264 q 454 197 374 197 q 654 274 578 197 l 228 672 q 163 479 163 593 z "},"भ":{"ha":1057,"x_min":122,"x_max":1101,"o":"m 1101 1028 l 1101 979 l 892 979 l 892 0 l 836 0 l 836 575 l 575 575 l 575 443 q 517 241 575 310 q 351 172 458 172 q 185 234 249 172 q 122 397 122 296 q 190 562 122 501 q 367 622 258 622 l 522 622 l 522 768 q 483 932 522 874 q 364 990 444 990 q 250 943 293 990 q 207 813 207 896 q 213 754 207 782 l 157 754 q 151 814 151 796 q 209 979 151 918 q 363 1040 267 1040 q 522 967 469 1040 q 575 763 575 894 l 575 622 l 836 622 l 836 1028 l 1101 1028 m 522 575 l 367 575 q 229 526 282 575 q 176 397 176 478 q 226 269 176 318 q 351 221 275 221 q 476 278 431 221 q 522 440 522 336 l 522 575 z "},"म":{"ha":1046,"x_min":-44,"x_max":1090,"o":"m 1090 979 l 881 979 l 881 0 l 824 0 l 824 575 l 525 575 l 525 443 q 467 241 525 310 q 301 172 408 172 q 136 234 199 172 q 74 397 74 296 q 141 562 74 501 q 317 622 208 622 l 472 622 l 472 979 l -44 979 l -44 1028 l 1090 1028 l 1090 979 m 824 979 l 525 979 l 525 622 l 824 622 l 824 979 m 472 575 l 317 575 q 179 526 232 575 q 126 397 126 478 q 176 269 126 318 q 301 221 225 221 q 426 278 381 221 q 472 440 472 336 l 472 575 z "},"य":{"ha":1008,"x_min":-44,"x_max":1053,"o":"m 1053 979 l 843 979 l 843 0 l 786 0 l 786 361 q 669 231 751 283 q 469 179 588 179 q 202 285 297 179 q 107 571 107 390 q 110 625 107 592 l 133 625 q 335 678 263 625 q 407 865 407 731 l 407 979 l -44 979 l -44 1028 l 1053 1028 l 1053 979 m 786 979 l 463 979 l 463 858 q 385 651 463 713 q 161 588 307 589 l 161 567 q 245 318 161 408 q 478 228 329 228 q 633 263 563 228 q 744 364 703 299 q 786 513 786 429 l 786 979 z "},"र":{"ha":747,"x_min":-44,"x_max":792,"o":"m 186 503 l 186 282 q 237 103 186 169 q 388 38 288 38 q 535 99 481 38 q 589 263 589 161 l 589 282 l 643 282 l 643 264 q 574 63 643 138 q 389 -12 506 -12 q 197 68 263 -12 q 131 286 131 149 l 131 550 l 281 550 q 474 615 406 550 q 542 813 542 681 l 542 979 l -44 979 l -44 1028 l 792 1028 l 792 979 l 599 979 l 599 813 q 520 581 599 658 q 294 503 442 503 l 186 503 z "},"ल":{"ha":1247,"x_min":-44,"x_max":1292,"o":"m 907 979 l 907 768 q 1076 672 1015 756 q 1138 460 1138 588 q 1102 289 1138 364 q 995 171 1067 214 q 822 128 924 128 q 776 131 807 128 l 776 182 q 818 179 807 179 q 1013 257 944 179 q 1081 460 1081 335 q 1026 647 1081 574 q 868 719 971 719 q 705 638 761 719 q 649 413 649 556 l 649 399 l 599 399 l 599 413 q 544 636 599 553 q 390 719 490 719 q 224 647 282 719 q 167 460 167 575 q 235 257 167 335 q 429 179 303 179 q 471 182 443 179 l 471 131 q 425 128 440 128 q 253 171 324 128 q 147 289 182 214 q 111 460 111 364 q 184 685 111 600 q 385 769 257 769 q 549 702 490 769 q 622 543 607 635 l 626 543 q 696 696 642 631 q 851 768 750 761 l 851 979 l -44 979 l -44 1028 l 1292 1028 l 1292 979 l 907 979 z "},"व":{"ha":943,"x_min":-44,"x_max":988,"o":"m 988 1028 l 988 979 l 776 979 l 776 0 l 722 0 l 722 342 q 616 210 690 261 q 432 160 542 160 q 267 199 340 160 q 153 313 194 239 q 111 486 111 386 q 153 653 111 581 q 269 765 196 725 q 432 804 342 804 q 616 753 542 804 q 722 622 690 703 l 722 979 l -44 979 l -44 1028 l 988 1028 m 442 207 q 599 248 536 207 q 692 351 663 289 q 722 479 722 414 l 722 481 q 692 613 722 550 q 599 717 663 676 q 442 757 536 757 q 303 724 365 757 q 203 630 240 692 q 167 485 167 568 q 203 336 167 399 q 301 240 239 274 q 442 207 364 207 z "},"श":{"ha":1097,"x_min":143,"x_max":1142,"o":"m 199 471 l 199 286 q 254 106 199 174 q 417 38 310 38 q 566 100 511 38 q 621 267 621 163 l 621 282 l 675 282 l 675 265 q 606 63 675 138 q 417 -12 536 -12 q 213 69 283 -12 q 143 290 143 151 l 143 519 l 353 519 q 556 583 478 519 q 635 761 635 646 q 576 929 635 868 q 419 990 518 990 q 263 929 322 990 q 204 764 204 868 q 211 694 204 733 l 154 694 q 149 765 149 742 q 222 965 149 890 q 419 1040 296 1040 q 617 965 543 1040 q 692 758 692 890 q 601 546 692 621 q 365 471 511 471 l 199 471 m 1142 1028 l 1142 979 l 932 979 l 932 0 l 875 0 l 875 1028 l 1142 1028 z "},"ष":{"ha":894,"x_min":-44,"x_max":939,"o":"m 939 979 l 729 979 l 729 0 l 674 0 l 674 450 q 578 341 643 381 q 424 301 514 301 q 206 391 281 301 q 132 640 132 481 l 132 979 l -44 979 l -44 1028 l 939 1028 l 939 979 m 674 979 l 186 979 l 671 556 q 674 597 674 581 l 674 979 m 433 351 q 578 395 519 351 q 661 511 638 439 l 186 926 l 186 639 q 247 426 186 501 q 433 351 308 351 z "},"स":{"ha":1131,"x_min":-44,"x_max":1175,"o":"m 1175 979 l 965 979 l 965 0 l 908 0 l 908 525 l 186 525 l 186 283 q 238 105 186 172 q 389 38 289 38 q 536 99 482 38 q 590 263 590 161 l 590 279 l 646 279 l 646 261 q 576 62 646 136 q 389 -12 507 -12 q 197 69 264 -12 q 131 286 131 150 l 131 569 l 275 569 q 467 640 397 569 q 536 833 536 711 l 536 979 l -44 979 l -44 1028 l 1175 1028 l 1175 979 m 908 979 l 590 979 l 590 833 q 553 672 590 739 q 454 572 517 606 l 908 572 l 908 979 z "},"ह":{"ha":815,"x_min":-44,"x_max":860,"o":"m 390 735 q 258 702 310 735 q 206 597 206 669 q 243 503 206 540 q 343 450 281 465 q 428 458 383 458 q 630 396 556 458 q 722 247 704 333 l 668 247 q 590 361 653 311 q 428 411 528 411 q 288 377 346 411 q 201 285 231 343 q 172 160 172 228 q 239 -18 172 53 q 428 -89 306 -89 q 588 -40 525 -89 q 668 74 650 8 l 722 74 q 674 -29 710 19 q 575 -108 638 -78 q 428 -139 513 -139 q 258 -98 328 -139 q 152 11 188 -57 q 117 161 117 79 q 161 324 117 253 q 285 431 206 396 q 189 494 228 450 q 150 604 150 538 q 213 735 150 692 q 378 779 276 779 l 599 779 l 599 979 l -44 979 l -44 1028 l 860 1028 l 860 979 l 653 979 l 653 735 l 390 735 z "},"ळ":{"ha":1415,"x_min":-44,"x_max":1460,"o":"m 1035 979 l 1035 785 q 1174 735 1113 776 q 1269 626 1235 694 q 1304 472 1304 558 q 1265 314 1304 383 q 1154 206 1225 244 q 996 167 1083 167 q 808 228 885 167 q 710 379 731 289 l 706 379 q 608 228 685 289 q 418 167 531 167 q 260 206 331 167 q 151 314 190 244 q 111 472 111 383 q 151 637 111 565 q 260 747 190 708 q 417 786 331 786 q 606 726 533 786 q 706 576 679 667 l 708 576 q 803 722 735 663 q 979 786 871 781 l 979 979 l -44 979 l -44 1028 l 1460 1028 l 1460 979 l 1035 979 m 424 215 q 556 249 499 215 q 646 340 614 282 q 678 472 678 399 q 608 664 678 590 q 422 738 538 738 q 290 705 349 738 q 199 612 232 672 q 165 472 165 551 q 199 339 165 397 q 291 248 232 281 q 424 215 350 215 m 1249 472 q 1215 612 1249 551 q 1124 705 1182 672 q 992 738 1065 738 q 858 703 915 738 q 768 610 800 669 q 736 472 736 550 q 768 340 736 399 q 858 249 800 282 q 990 215 915 215 q 1123 248 1064 215 q 1215 339 1182 281 q 1249 472 1249 397 z "},"क़":{"ha":1406,"x_min":-44,"x_max":1450,"o":"m 736 979 l 736 619 q 832 749 765 699 q 1000 799 899 799 q 1149 760 1082 799 q 1256 650 1217 721 q 1294 486 1294 579 q 1256 313 1294 386 q 1152 202 1218 240 q 1003 164 1086 164 q 921 174 957 164 l 921 219 q 993 213 956 213 q 1118 244 1063 213 q 1206 338 1174 276 q 1238 485 1238 400 q 1204 624 1238 564 q 1114 717 1171 685 q 989 750 1057 750 q 846 709 903 750 q 763 605 789 668 q 736 474 736 542 l 736 0 l 683 0 l 683 340 q 584 212 653 261 q 413 163 515 163 q 258 201 326 163 q 150 313 189 240 q 111 485 111 386 q 151 651 111 579 q 259 760 190 722 q 414 799 328 799 q 586 749 518 799 q 683 622 654 700 l 683 979 l -44 979 l -44 1028 l 1450 1028 l 1450 979 l 736 979 m 425 211 q 569 251 511 211 q 656 353 628 292 q 683 479 683 415 q 656 609 683 547 q 569 710 628 671 q 425 750 511 750 q 295 718 354 750 q 201 626 236 686 q 167 485 167 565 q 201 338 167 400 q 293 244 235 276 q 425 211 351 211 m 400 -64 q 364 -50 378 -64 q 350 -15 350 -36 q 364 19 350 6 q 400 33 378 33 q 435 19 421 33 q 449 -15 449 6 q 435 -50 449 -36 q 400 -64 421 -64 z "},"ख़":{"ha":1275,"x_min":-44,"x_max":1319,"o":"m 1319 1028 l 1319 979 l 1108 979 l 1108 0 l 1053 0 l 1053 360 q 965 251 1025 293 q 817 210 906 210 q 757 215 783 210 q 642 60 721 121 q 451 -1 564 -1 q 218 83 306 -1 q 131 311 131 167 l 131 550 l 188 550 q 335 599 278 550 q 392 775 392 647 l 392 979 l -44 979 l -44 1028 l 1319 1028 m 453 49 q 613 99 547 49 q 708 229 678 150 q 585 328 631 258 q 539 497 539 397 q 576 644 539 581 q 676 741 613 707 q 817 775 739 775 q 967 734 907 775 q 1053 626 1026 693 l 1053 979 l 447 979 l 447 769 q 204 506 447 506 l 186 506 l 186 307 q 258 119 186 190 q 453 49 331 49 m 825 256 q 953 291 901 256 q 1028 381 1004 326 q 1053 492 1053 435 l 1053 493 q 1028 606 1053 551 q 953 694 1004 660 q 825 729 901 729 q 708 701 761 729 q 624 621 656 674 q 592 497 592 568 q 622 367 592 422 q 706 284 653 313 q 825 256 760 256 m 432 -228 q 396 -214 410 -228 q 382 -179 382 -200 q 396 -144 382 -158 q 432 -131 410 -131 q 467 -144 453 -131 q 481 -179 481 -158 q 467 -214 481 -200 q 432 -228 453 -228 z "},"ग़":{"ha":979,"x_min":-44,"x_max":1024,"o":"m 1024 1028 l 1024 979 l 814 979 l 814 0 l 757 0 l 757 979 l 468 979 l 468 568 q 420 415 468 475 q 272 356 372 356 q 126 415 175 356 q 76 564 76 474 l 76 606 l 132 606 l 132 563 q 165 451 132 497 q 271 404 199 404 q 379 451 347 404 q 411 567 411 497 l 411 979 l -44 979 l -44 1028 l 1024 1028 m 282 121 q 246 135 260 121 q 232 169 232 149 q 246 204 232 190 q 282 218 260 218 q 317 204 303 218 q 331 169 331 190 q 317 135 331 149 q 282 121 303 121 z "},"ज़":{"ha":1151,"x_min":-44,"x_max":1196,"o":"m 1196 979 l 986 979 l 986 0 l 931 0 l 931 653 l 606 653 l 606 468 q 539 279 606 351 q 360 207 472 207 q 187 279 250 207 q 124 468 124 351 l 124 703 l 179 703 l 179 468 q 228 315 179 374 q 361 257 278 257 q 499 315 449 257 q 550 468 550 374 l 550 703 l 931 703 l 931 979 l -44 979 l -44 1028 l 1196 1028 l 1196 979 m 368 -19 q 332 -6 346 -19 q 318 29 318 8 q 332 64 318 50 q 368 78 346 78 q 403 64 389 78 q 417 29 417 50 q 403 -6 417 8 q 368 -19 389 -19 z "},"ड़":{"ha":804,"x_min":-44,"x_max":849,"o":"m 404 731 q 254 699 315 731 q 193 585 193 667 q 245 475 193 510 q 379 440 297 440 l 442 440 q 643 386 561 440 q 725 210 725 332 q 653 48 725 111 q 444 -15 581 -15 q 266 19 340 -15 q 153 114 192 53 q 114 253 115 175 l 169 253 q 240 93 169 156 q 443 31 310 31 q 613 81 554 31 q 671 211 671 132 q 603 353 671 311 q 433 396 535 396 l 374 396 q 203 442 271 396 q 136 586 136 489 q 209 731 136 686 q 386 775 282 775 l 579 775 l 579 979 l -44 979 l -44 1028 l 849 1028 l 849 979 l 633 979 l 633 731 l 404 731 m 436 -242 q 400 -228 414 -242 q 386 -193 386 -214 q 400 -158 386 -172 q 436 -144 414 -144 q 471 -158 457 -144 q 485 -193 485 -172 q 471 -228 485 -214 q 436 -242 457 -242 z "},"ढ़":{"ha":879,"x_min":-44,"x_max":924,"o":"m 535 744 q 267 658 369 744 q 165 403 165 571 q 210 230 165 306 q 333 112 254 154 q 513 69 413 69 q 648 98 588 69 q 742 176 708 126 q 776 289 776 226 q 727 418 776 367 q 601 469 678 469 q 490 427 536 469 q 443 315 443 385 q 446 286 443 303 l 400 286 q 397 322 397 306 q 456 462 397 410 q 603 514 515 514 q 765 451 703 514 q 826 289 826 388 q 788 151 826 211 q 677 58 749 92 q 511 25 606 25 q 306 72 397 25 q 163 206 215 119 q 111 403 111 292 q 165 617 111 531 q 311 747 218 704 q 522 789 404 789 l 596 789 l 596 979 l -44 979 l -44 1028 l 924 1028 l 924 979 l 650 979 l 650 744 l 535 744 m 475 -201 q 439 -187 453 -201 q 425 -153 425 -174 q 439 -118 425 -132 q 475 -104 453 -104 q 510 -118 496 -104 q 524 -153 524 -132 q 510 -187 524 -174 q 475 -201 496 -201 z "},"फ़":{"ha":1369,"x_min":-44,"x_max":1414,"o":"m 699 979 l 699 618 q 794 748 726 697 q 964 799 861 799 q 1113 760 1046 799 q 1219 651 1181 722 q 1258 486 1258 579 q 1220 313 1258 386 q 1116 202 1182 240 q 967 164 1050 164 q 883 174 919 164 l 883 219 q 957 213 921 213 q 1083 244 1026 213 q 1171 338 1139 276 q 1203 485 1203 400 q 1169 624 1203 564 q 1078 717 1136 685 q 953 750 1021 750 q 810 708 867 750 q 726 603 753 667 q 699 469 699 539 l 699 0 l 643 0 l 643 451 q 553 344 613 383 q 408 304 493 304 q 202 392 272 304 q 132 638 132 481 l 132 979 l -44 979 l -44 1028 l 1414 1028 l 1414 979 l 699 979 m 643 979 l 188 979 l 188 638 q 244 428 188 501 q 418 354 301 354 q 583 424 524 354 q 643 596 643 493 l 643 979 m 388 79 q 351 93 365 79 q 338 128 338 107 q 351 163 338 149 q 388 176 365 176 q 422 163 408 176 q 436 128 436 149 q 422 93 436 107 q 388 79 408 79 z "},"ऱ":{"ha":747,"x_min":-44,"x_max":792,"o":"m 186 503 l 186 282 q 237 103 186 169 q 388 38 288 38 q 535 99 481 38 q 589 263 589 161 l 589 282 l 643 282 l 643 264 q 574 63 643 138 q 389 -12 506 -12 q 197 68 263 -12 q 131 286 131 149 l 131 550 l 281 550 q 474 615 406 550 q 542 813 542 681 l 542 979 l -44 979 l -44 1028 l 792 1028 l 792 979 l 599 979 l 599 813 q 520 581 599 658 q 294 503 442 503 l 186 503 m 167 -179 q 131 -165 144 -179 q 117 -131 117 -151 q 131 -96 117 -110 q 167 -82 144 -82 q 201 -96 188 -82 q 215 -131 215 -110 q 201 -165 215 -151 q 167 -179 188 -179 z "},"ं":{"ha":0,"x_min":-243,"x_max":-144,"o":"m -193 1178 q -229 1192 -215 1178 q -243 1226 -243 1206 q -229 1261 -243 1247 q -193 1275 -215 1275 q -158 1261 -172 1275 q -144 1226 -144 1247 q -158 1192 -144 1206 q -193 1178 -172 1178 z "},"ँ":{"ha":0,"x_min":-450,"x_max":57,"o":"m -196 1360 q -227 1372 -215 1360 q -239 1403 -239 1385 q -226 1433 -239 1421 q -196 1444 -214 1444 q -165 1433 -178 1444 q -153 1403 -153 1421 q -165 1372 -153 1385 q -196 1360 -178 1360 m -196 1142 q -336 1173 -279 1142 q -422 1253 -393 1204 q -450 1358 -450 1303 l -403 1358 q -380 1277 -403 1317 q -310 1212 -357 1238 q -196 1186 -264 1186 q -83 1212 -129 1186 q -13 1277 -36 1238 q 10 1358 10 1317 l 57 1358 q 29 1254 57 1304 q -56 1173 1 1204 q -196 1142 -114 1142 z "},"ः":{"ha":283,"x_min":92,"x_max":192,"o":"m 143 653 q 106 667 121 653 q 92 703 92 682 q 106 738 92 724 q 143 751 121 751 q 178 738 164 751 q 192 703 192 724 q 178 667 192 682 q 143 653 164 653 m 143 221 q 106 235 121 221 q 92 269 92 249 q 106 304 92 290 q 143 318 121 318 q 178 304 164 318 q 192 269 192 290 q 178 235 192 249 q 143 221 164 221 z "},"ऽ":{"ha":785,"x_min":121,"x_max":656,"o":"m 121 147 l 443 147 q 546 178 510 147 q 582 256 582 208 q 538 364 582 313 q 406 490 494 415 q 297 589 339 547 q 227 680 256 631 q 199 783 199 729 q 252 899 199 864 q 392 933 306 933 l 656 933 l 656 885 l 404 885 q 294 861 335 885 q 254 778 254 838 q 299 665 254 718 q 436 533 344 611 q 588 386 536 449 q 639 250 639 324 q 592 142 639 186 q 453 97 546 97 l 121 97 l 121 147 z "},"्":{"ha":0,"x_min":-218,"x_max":4,"o":"m -218 -89 l -161 -89 l 4 -347 l -54 -347 l -218 -89 z "},"़":{"ha":0,"x_min":-610,"x_max":-511,"o":"m -560 -112 q -596 -99 -582 -112 q -610 -64 -610 -85 q -596 -29 -610 -43 q -560 -15 -582 -15 q -525 -29 -539 -15 q -511 -64 -511 -43 q -525 -99 -511 -85 q -560 -112 -539 -112 z "},"०":{"ha":829,"x_min":90,"x_max":739,"o":"m 90 493 q 160 122 90 253 q 415 -8 231 -8 q 669 122 599 -8 q 739 493 739 253 q 669 860 739 731 q 415 989 600 989 q 160 860 231 989 q 90 493 90 731 m 676 493 q 656 258 676 353 q 578 106 636 163 q 415 50 521 50 q 251 106 308 50 q 173 258 193 163 q 153 493 153 353 q 173 726 153 632 q 251 876 193 821 q 415 931 308 931 q 578 876 521 931 q 656 726 636 821 q 676 493 676 632 z "},"१":{"ha":344,"x_min":19,"x_max":232,"o":"m 19 921 l 19 979 l 232 979 l 232 0 l 167 0 l 167 921 l 19 921 z "},"२":{"ha":788,"x_min":65,"x_max":724,"o":"m 65 44 q 476 385 324 214 q 629 711 629 557 q 576 874 629 811 q 404 936 524 936 q 219 862 283 936 q 146 663 154 788 l 85 663 q 181 904 94 818 q 407 990 267 990 q 613 922 532 990 q 693 715 693 854 q 611 470 693 596 q 408 236 529 344 q 163 54 286 128 l 724 54 l 724 1 l 65 1 l 65 44 z "},"३":{"ha":806,"x_min":71,"x_max":715,"o":"m 414 994 q 623 925 549 994 q 697 747 697 856 q 642 592 697 657 q 467 515 586 526 l 467 508 q 649 419 583 479 q 715 254 715 360 q 640 64 715 138 q 415 -10 564 -10 q 182 67 272 -10 q 71 283 92 143 l 133 283 q 223 111 151 176 q 413 46 294 46 q 592 105 531 46 q 654 257 654 164 q 567 426 654 368 q 321 483 479 483 l 294 483 l 294 538 l 322 538 q 559 590 482 538 q 636 742 636 643 q 577 885 636 831 q 413 940 518 940 q 237 885 310 940 q 150 714 164 829 l 88 714 q 185 919 100 844 q 414 994 269 994 z "},"४":{"ha":819,"x_min":33,"x_max":794,"o":"m 33 250 l 33 301 l 568 981 l 633 981 l 633 306 l 794 306 l 794 250 l 633 250 l 633 0 l 571 0 l 571 250 l 33 250 m 574 897 l 103 306 l 574 306 l 574 897 z "},"५":{"ha":835,"x_min":101,"x_max":760,"o":"m 713 926 l 174 926 l 174 524 q 286 613 213 579 q 446 646 360 646 q 682 556 604 646 q 760 331 760 465 q 725 160 760 238 q 617 38 690 83 q 433 -8 544 -8 q 208 67 297 -8 q 101 274 118 143 l 163 274 q 256 107 185 165 q 431 49 326 49 q 631 126 564 49 q 699 332 699 204 q 631 524 699 454 q 436 593 563 593 q 280 556 349 593 q 174 454 211 518 l 115 454 l 115 982 l 713 982 l 713 926 z "},"६":{"ha":856,"x_min":94,"x_max":775,"o":"m 678 722 q 603 884 663 826 q 443 942 544 942 q 226 836 301 942 q 151 497 151 731 q 153 432 151 454 q 256 591 171 532 q 457 650 340 650 q 692 560 608 650 q 775 314 775 471 q 742 152 775 225 q 637 35 708 79 q 456 -10 565 -10 q 171 121 247 -10 q 94 475 94 251 q 176 861 94 728 q 446 994 258 994 q 650 921 576 994 q 738 722 724 847 l 678 722 m 163 340 q 193 197 163 264 q 289 88 224 129 q 454 46 354 46 q 644 117 572 46 q 715 314 715 189 q 644 525 715 451 q 447 599 572 599 q 311 570 376 599 q 204 483 246 542 q 163 340 163 425 z "},"७":{"ha":699,"x_min":15,"x_max":649,"o":"m 649 931 l 267 0 l 199 0 l 586 925 l 15 925 l 15 981 l 649 981 l 649 931 z "},"८":{"ha":853,"x_min":75,"x_max":778,"o":"m 103 743 q 141 874 103 817 q 252 963 179 931 q 426 996 325 996 q 601 963 528 996 q 712 874 674 931 q 750 743 750 817 q 701 594 750 656 q 550 510 653 533 q 717 422 657 488 q 778 254 778 356 q 684 44 778 121 q 426 -32 590 -32 q 169 44 263 -32 q 75 254 75 121 q 135 422 75 356 q 303 510 196 488 q 152 595 201 533 q 103 743 103 657 m 164 736 q 235 585 164 639 q 426 531 306 531 q 618 585 547 531 q 689 736 689 639 q 617 888 689 835 q 426 942 546 942 q 235 888 307 942 q 164 736 164 835 m 138 257 q 215 83 138 144 q 426 21 293 21 q 638 83 560 21 q 717 257 717 144 q 635 427 717 372 q 426 482 554 482 q 219 427 300 482 q 138 257 138 372 z "},"९":{"ha":850,"x_min":78,"x_max":760,"o":"m 176 261 q 249 99 190 157 q 411 42 308 42 q 628 147 553 42 q 703 486 703 253 q 701 551 703 529 q 598 392 683 451 q 397 333 513 333 q 162 423 246 333 q 78 669 78 513 q 111 831 78 757 q 217 949 144 904 q 399 993 289 993 q 683 863 607 993 q 760 511 760 733 q 678 124 760 260 q 411 -11 597 -11 q 206 63 281 -11 q 117 261 131 138 l 176 261 m 692 644 q 661 788 692 721 q 565 897 631 856 q 400 939 500 939 q 210 867 282 939 q 139 669 139 794 q 210 458 139 531 q 407 385 282 385 q 543 414 478 385 q 650 501 608 443 q 692 644 692 560 z "},"ॐ":{"ha":1454,"x_min":119,"x_max":1322,"o":"m 811 1268 q 781 1280 793 1268 q 769 1310 769 1292 q 781 1340 769 1328 q 811 1351 793 1351 q 842 1340 829 1351 q 854 1310 854 1328 q 842 1280 854 1292 q 811 1268 831 1268 m 811 1049 q 671 1080 728 1049 q 585 1160 614 1111 q 557 1265 557 1210 l 604 1265 q 627 1184 604 1224 q 697 1119 650 1144 q 811 1093 743 1093 q 924 1119 878 1093 q 994 1184 971 1144 q 1017 1265 1017 1224 l 1064 1265 q 1036 1161 1064 1211 q 951 1080 1008 1111 q 811 1049 893 1049 m 1069 957 q 1265 870 1207 957 q 1322 613 1322 783 l 1322 411 q 1244 133 1322 225 q 982 42 1165 42 q 849 56 929 42 l 849 104 q 975 92 933 92 q 1202 170 1138 92 q 1267 413 1267 249 l 1267 617 q 1222 833 1267 760 q 1069 907 1176 907 q 926 849 971 907 q 882 697 882 792 q 826 526 882 578 q 661 474 769 474 l 631 474 q 679 394 663 440 q 696 296 696 347 q 619 94 696 171 q 417 18 543 18 q 264 53 332 18 q 158 151 196 88 q 119 294 119 214 l 174 294 q 205 177 174 229 q 290 97 236 125 q 414 68 344 68 q 580 132 518 68 q 642 300 642 196 q 618 406 642 356 q 542 488 594 456 q 408 519 489 519 l 360 519 l 360 569 l 408 569 q 528 599 479 569 q 601 674 578 628 q 625 768 625 719 q 562 926 625 868 q 406 983 499 983 q 248 931 311 983 q 185 788 185 878 l 132 788 q 209 967 132 900 q 406 1033 286 1033 q 545 1001 483 1033 q 642 912 607 969 q 676 778 676 854 q 630 626 676 689 q 494 547 583 564 l 494 544 q 569 521 535 539 l 656 521 q 783 561 739 521 q 828 699 828 601 q 885 888 828 818 q 1069 957 942 957 z "},"॰":{"ha":700,"x_min":124,"x_max":575,"o":"m 575 492 q 513 336 575 397 q 353 275 450 275 q 235 303 288 275 q 153 382 182 332 q 124 494 124 432 q 153 607 124 557 q 235 685 182 657 q 353 714 288 714 q 513 652 451 714 q 575 492 575 590 m 165 494 q 218 365 165 415 q 353 315 271 315 q 483 365 433 315 q 533 492 533 414 q 483 623 533 572 q 353 674 433 674 q 218 624 271 674 q 165 494 165 574 z "},"।":{"ha":343,"x_min":225,"x_max":281,"o":"m 281 0 l 225 0 l 225 1031 l 281 1031 l 281 0 z "},"॥":{"ha":585,"x_min":225,"x_max":524,"o":"m 281 0 l 225 0 l 225 1031 l 281 1031 l 281 0 m 524 0 l 468 0 l 468 1031 l 524 1031 l 524 0 z "},"₨":{"ha":1417,"x_min":113,"x_max":1340,"o":"m 706 696 q 634 499 706 571 q 426 418 563 428 l 714 0 l 642 0 l 358 417 l 175 417 l 175 0 l 113 0 l 113 979 l 386 979 q 627 903 549 979 q 706 696 706 826 m 175 468 l 382 468 q 643 694 643 468 q 581 863 643 804 q 382 922 519 922 l 175 922 l 175 468 m 872 561 q 901 481 872 511 q 972 435 929 450 q 1086 403 1015 419 q 1219 365 1168 385 q 1305 304 1269 346 q 1340 192 1340 263 q 1276 47 1340 103 q 1108 -10 1213 -10 q 902 53 983 -10 q 807 226 821 117 l 869 226 q 940 94 878 147 q 1108 40 1001 40 q 1235 83 1190 40 q 1281 193 1281 126 q 1251 279 1281 247 q 1178 326 1221 311 q 1061 360 1136 342 q 931 397 981 378 q 848 455 882 415 q 814 563 814 494 q 880 709 814 654 q 1056 764 946 764 q 1247 701 1175 764 q 1335 528 1319 638 l 1272 528 q 1208 661 1264 608 q 1054 714 1151 714 q 921 672 969 714 q 872 561 872 631 z "},"₹":{"ha":919,"x_min":85,"x_max":835,"o":"m 621 746 l 621 725 l 835 725 l 835 682 l 618 682 q 571 528 610 582 q 447 453 532 475 q 210 432 363 432 l 210 271 q 261 97 210 157 q 417 36 313 36 q 563 94 514 36 q 613 260 613 151 l 674 260 q 606 56 672 126 q 418 -14 539 -14 q 219 61 286 -14 q 151 271 151 136 l 151 478 q 403 494 319 478 q 520 552 486 510 q 561 682 554 594 l 85 682 l 85 725 l 563 725 l 563 747 l 563 932 l 85 932 l 85 979 l 835 979 l 835 932 l 621 932 l 621 746 z "},"‌":{"ha":0,"x_min":-32,"x_max":33,"o":"m -32 1126 l 33 1126 l 33 -319 l -32 -319 l -32 1126 z "},"‍":{"ha":0,"x_min":-178,"x_max":178,"o":"m 32 882 l 32 -319 l -33 -319 l -33 882 l -129 781 l -175 826 l -46 956 l -178 1088 l -132 1133 l 0 1001 l 133 1133 l 178 1089 l 44 956 l 178 824 l 132 778 l 32 882 z "},"◌":{"ha":904,"x_min":69,"x_max":835,"o":"m 418 633 q 375 649 392 633 q 358 692 358 665 q 375 734 358 718 q 418 750 392 750 q 461 734 444 750 q 478 692 478 718 q 461 649 478 665 q 418 633 444 633 m 586 613 q 543 628 560 613 q 526 671 526 644 q 543 713 526 697 q 586 729 560 729 q 629 713 613 729 q 646 671 646 697 q 629 628 646 644 q 586 613 613 613 m 256 575 q 213 591 229 575 q 196 633 196 607 q 213 676 196 660 q 256 692 229 692 q 299 676 282 692 q 315 633 315 660 q 299 591 315 607 q 256 575 282 575 m 714 510 q 671 526 688 510 q 654 568 654 542 q 671 610 654 594 q 714 626 688 626 q 757 610 740 626 q 774 568 774 594 q 757 526 774 542 q 714 510 740 510 m 150 438 q 107 453 124 438 q 90 496 90 469 q 107 538 90 522 q 150 554 124 554 q 193 538 176 554 q 210 496 210 522 q 193 453 210 469 q 150 438 176 438 m 775 351 q 732 367 749 351 q 715 410 715 383 q 732 452 715 436 q 775 468 749 468 q 818 452 801 468 q 835 410 835 436 q 818 367 835 383 q 775 351 801 351 m 129 269 q 86 285 103 269 q 69 328 69 301 q 86 370 69 354 q 129 386 103 386 q 172 370 156 386 q 189 328 189 354 q 172 285 189 301 q 129 269 156 269 m 761 185 q 718 201 735 185 q 701 243 701 217 q 718 285 701 269 q 761 301 735 301 q 804 285 788 301 q 821 243 821 269 q 804 201 821 217 q 761 185 788 185 m 192 113 q 149 128 165 113 q 132 171 132 144 q 149 213 132 197 q 192 229 165 229 q 235 213 218 229 q 251 171 251 197 q 235 128 251 144 q 192 113 218 113 m 660 51 q 617 67 633 51 q 600 110 600 83 q 617 152 600 136 q 660 168 633 168 q 703 152 686 168 q 719 110 719 136 q 703 67 719 83 q 660 51 686 51 m 328 7 q 285 23 301 7 q 268 65 268 39 q 285 108 268 92 q 328 124 301 124 q 371 108 354 124 q 388 65 388 92 q 371 23 388 39 q 328 7 354 7 m 500 -12 q 457 3 474 -12 q 440 46 440 19 q 457 88 440 72 q 500 104 474 104 q 543 88 526 104 q 560 46 560 72 q 543 3 560 19 q 500 -12 526 -12 z "},"!":{"ha":347,"x_min":126,"x_max":225,"o":"m 210 986 l 197 251 l 150 251 l 138 986 l 210 986 m 225 96 l 225 0 l 126 0 l 126 96 l 225 96 z "},"\"":{"ha":324,"x_min":57,"x_max":267,"o":"m 125 1103 l 114 844 l 68 844 l 57 1103 l 125 1103 m 267 1103 l 256 844 l 211 844 l 199 1103 l 267 1103 z "},"#":{"ha":1065,"x_min":50,"x_max":1015,"o":"m 789 639 l 735 381 l 942 381 l 942 324 l 722 324 l 653 0 l 593 0 l 663 324 l 333 324 l 264 0 l 204 0 l 274 324 l 50 324 l 50 381 l 286 381 l 340 639 l 124 639 l 124 696 l 353 696 l 424 1028 l 483 1028 l 413 696 l 742 696 l 813 1028 l 872 1028 l 801 696 l 1015 696 l 1015 639 l 789 639 m 729 639 l 400 639 l 346 381 l 675 381 l 729 639 z "},"$":{"ha":767,"x_min":78,"x_max":689,"o":"m 400 524 q 553 467 496 494 q 649 386 610 440 q 689 242 689 332 q 659 120 689 178 q 566 26 629 63 q 407 -10 503 -10 l 400 -10 l 400 -121 l 367 -121 l 367 -8 q 224 36 286 0 q 125 127 161 72 q 82 244 89 182 l 147 244 q 178 161 153 204 q 251 85 203 118 q 367 44 299 53 l 367 475 q 214 528 271 503 q 117 607 157 554 q 78 747 78 660 q 111 872 78 817 q 208 958 144 926 q 360 989 271 989 l 367 989 l 367 1111 l 400 1111 l 400 988 q 583 913 515 976 q 667 765 650 850 l 600 765 q 538 874 588 824 q 400 935 488 925 l 400 524 m 144 749 q 174 642 144 683 q 249 578 203 601 q 367 533 294 556 l 367 938 l 360 938 q 203 888 261 938 q 144 749 144 839 m 407 42 q 567 98 511 42 q 624 240 624 154 q 594 350 624 307 q 517 417 564 393 q 400 464 471 442 l 400 42 l 407 42 z "},"%":{"ha":799,"x_min":53,"x_max":746,"o":"m 238 989 q 371 937 318 989 q 424 801 424 885 q 371 665 424 718 q 238 613 318 613 q 106 665 158 613 q 53 801 53 718 q 106 937 53 885 q 238 989 158 989 m 721 979 l 142 0 l 76 0 l 656 979 l 721 979 m 101 801 q 140 698 101 739 q 238 657 178 657 q 335 698 297 657 q 374 801 374 739 q 335 904 374 864 q 238 944 297 944 q 140 904 178 944 q 101 801 101 864 m 561 365 q 694 313 642 365 q 746 176 746 260 q 694 41 746 93 q 561 -11 642 -11 q 428 41 481 -11 q 375 176 375 93 q 428 313 375 260 q 561 365 481 365 m 425 176 q 463 74 425 114 q 561 33 501 33 q 659 74 621 33 q 697 176 697 114 q 659 281 697 240 q 561 321 621 321 q 463 281 501 321 q 425 176 425 240 z "},"&":{"ha":939,"x_min":53,"x_max":926,"o":"m 858 0 l 578 303 q 589 247 589 276 q 556 116 589 175 q 465 24 524 57 q 333 -10 407 -10 q 192 24 256 -10 q 90 123 128 58 q 53 274 53 188 q 86 421 53 360 q 174 513 119 482 q 296 544 229 544 q 382 528 346 544 l 344 569 q 269 669 294 622 q 244 781 244 715 q 270 883 244 835 q 347 960 296 931 q 472 989 399 989 q 648 925 589 989 q 711 768 707 861 q 714 735 714 746 q 713 714 714 721 l 653 714 q 654 751 654 728 q 605 886 653 838 q 474 935 557 935 q 349 889 393 935 q 304 776 304 843 q 324 684 304 722 q 386 601 344 646 l 926 0 l 858 0 m 335 46 q 485 106 426 46 q 544 258 544 165 q 510 377 544 324 q 422 461 476 431 q 310 492 367 492 q 166 436 222 492 q 110 275 110 381 q 140 152 110 204 q 222 73 171 100 q 335 46 274 46 z "},"'":{"ha":190,"x_min":57,"x_max":135,"o":"m 135 1103 l 118 844 l 74 844 l 57 1103 l 135 1103 z "},"(":{"ha":508,"x_min":75,"x_max":497,"o":"m 75 560 q 174 1038 75 829 q 436 1372 272 1246 l 497 1372 l 497 1365 q 226 1015 315 1219 q 136 560 136 810 q 226 105 136 310 q 497 -246 315 -100 l 497 -253 l 436 -253 q 174 82 272 -126 q 75 560 75 290 z "},")":{"ha":508,"x_min":11,"x_max":433,"o":"m 433 560 q 335 82 433 290 q 74 -253 236 -126 l 11 -253 l 11 -246 q 283 105 194 -100 q 372 560 372 310 q 283 1015 372 810 q 11 1365 194 1219 l 11 1372 l 74 1372 q 335 1038 236 1246 q 433 560 433 829 z "},"*":{"ha":619,"x_min":64,"x_max":557,"o":"m 515 917 l 557 842 l 343 757 l 557 674 l 517 599 l 335 728 l 360 500 l 274 500 l 293 728 l 107 596 l 64 672 l 276 757 l 64 842 l 108 921 l 292 788 l 274 1014 l 358 1014 l 335 788 l 515 917 z "},"+":{"ha":811,"x_min":53,"x_max":760,"o":"m 760 492 l 436 492 l 436 167 l 375 167 l 375 492 l 53 492 l 53 550 l 375 550 l 375 875 l 436 875 l 436 550 l 760 550 l 760 492 z "},",":{"ha":194,"x_min":40,"x_max":149,"o":"m 142 61 q 149 -10 149 28 q 121 -108 149 -74 q 40 -142 93 -142 l 40 -106 q 88 -87 74 -106 q 103 -29 103 -68 l 103 -19 l 50 -19 l 50 61 l 142 61 z "},"-":{"ha":640,"x_min":-39,"x_max":483,"o":"m 483 549 l 483 494 l -39 494 l -39 549 l 483 549 z "},".":{"ha":186,"x_min":43,"x_max":142,"o":"m 142 96 l 142 0 l 43 0 l 43 96 l 142 96 z "},"/":{"ha":506,"x_min":31,"x_max":476,"o":"m 476 1303 l 92 -224 l 31 -224 l 413 1303 l 476 1303 z "},":":{"ha":194,"x_min":49,"x_max":147,"o":"m 147 717 l 147 619 l 49 619 l 49 717 l 147 717 m 147 96 l 147 0 l 49 0 l 49 96 l 147 96 z "},";":{"ha":246,"x_min":82,"x_max":192,"o":"m 192 715 l 192 619 l 93 619 l 93 715 l 192 715 m 183 61 q 190 -10 190 28 q 163 -108 190 -74 q 82 -142 135 -142 l 82 -106 q 130 -87 115 -106 q 144 -29 144 -68 l 144 -19 l 92 -19 l 92 61 l 183 61 z "},"<":{"ha":550,"x_min":53,"x_max":497,"o":"m 419 196 l 53 521 l 419 847 l 497 847 l 131 521 l 497 196 l 419 196 z "},"=":{"ha":794,"x_min":53,"x_max":742,"o":"m 742 682 l 742 625 l 53 625 l 53 682 l 742 682 m 742 418 l 742 361 l 53 361 l 53 418 l 742 418 z "},">":{"ha":550,"x_min":53,"x_max":497,"o":"m 53 847 l 131 847 l 497 521 l 131 196 l 53 196 l 419 521 l 53 847 z "},"?":{"ha":679,"x_min":40,"x_max":628,"o":"m 342 999 q 549 924 471 999 q 628 725 628 850 q 534 497 628 568 q 272 424 440 425 l 272 235 l 213 235 l 213 469 l 246 469 q 477 523 389 469 q 565 725 565 576 q 505 887 565 828 q 340 946 444 946 q 167 886 233 946 q 100 729 100 826 l 40 729 q 79 872 40 811 q 187 966 118 933 q 342 999 256 999 m 293 96 l 293 0 l 194 0 l 194 96 l 293 96 z "},"@":{"ha":1479,"x_min":68,"x_max":1415,"o":"m 793 1069 q 1135 991 994 1069 q 1345 774 1275 913 q 1415 454 1415 636 q 1376 214 1415 321 q 1269 46 1336 107 q 1122 -15 1201 -15 q 985 115 985 -15 q 993 186 985 147 q 863 38 942 90 q 676 -15 783 -15 q 521 27 589 -15 q 415 147 453 69 q 376 324 376 224 q 428 553 376 451 q 568 713 479 656 q 764 771 657 771 q 938 728 867 771 q 1046 613 1010 686 q 1082 451 1082 540 q 1075 375 1082 419 l 1039 158 q 1036 122 1036 144 q 1059 58 1036 76 q 1125 40 1082 40 q 1238 90 1186 40 q 1321 234 1290 140 q 1351 453 1351 328 q 1287 747 1351 621 q 1095 944 1222 874 q 788 1014 968 1014 q 436 923 585 1014 q 210 675 288 832 q 132 322 132 518 q 296 -130 132 21 q 747 -286 460 -281 l 736 -340 q 246 -167 424 -335 q 68 322 68 0 q 154 696 68 525 q 405 968 240 867 q 793 1069 569 1069 m 1019 436 q 954 636 1019 560 q 757 713 889 713 q 591 663 664 713 q 478 526 518 614 q 438 331 438 439 q 467 183 438 249 q 555 78 497 117 q 690 40 613 40 q 856 90 781 40 q 976 231 932 140 q 1019 436 1019 321 z "},"A":{"ha":865,"x_min":36,"x_max":828,"o":"m 665 254 l 201 254 l 106 0 l 36 0 l 399 953 l 468 953 l 828 0 l 760 0 l 665 254 m 646 306 l 433 876 l 219 306 l 646 306 z "},"B":{"ha":800,"x_min":113,"x_max":735,"o":"m 524 508 q 676 424 617 492 q 735 263 735 356 q 655 73 735 146 q 422 0 575 0 l 113 0 l 113 979 l 421 979 q 640 913 567 979 q 713 738 713 846 q 659 582 713 640 q 524 508 606 524 m 175 532 l 418 532 q 590 585 531 532 q 649 731 649 638 q 590 872 649 819 q 411 924 531 924 l 175 924 l 175 532 m 414 56 q 603 112 535 56 q 671 268 671 168 q 601 423 671 365 q 411 481 532 481 l 175 481 l 175 56 l 414 56 z "},"C":{"ha":1065,"x_min":78,"x_max":988,"o":"m 538 989 q 824 906 710 989 q 988 679 938 824 l 922 679 q 782 862 881 793 q 538 931 683 931 q 337 877 426 931 q 195 724 247 824 q 143 489 143 624 q 195 256 143 356 q 337 102 247 156 q 538 49 426 49 q 782 117 683 49 q 922 299 881 186 l 988 299 q 824 72 938 154 q 538 -10 710 -10 q 299 53 404 -10 q 136 231 194 117 q 78 489 78 344 q 136 747 78 633 q 299 925 194 861 q 538 989 404 989 z "},"D":{"ha":982,"x_min":113,"x_max":904,"o":"m 904 490 q 771 129 904 258 q 388 0 638 0 l 113 0 l 113 979 l 388 979 q 771 850 638 979 q 904 490 904 721 m 385 57 q 725 171 610 57 q 840 490 840 285 q 724 810 840 696 q 385 924 608 924 l 175 924 l 175 57 l 385 57 z "},"E":{"ha":679,"x_min":113,"x_max":613,"o":"m 175 926 l 175 515 l 571 515 l 571 465 l 175 465 l 175 53 l 613 53 l 613 0 l 113 0 l 113 979 l 613 979 l 613 926 l 175 926 z "},"F":{"ha":669,"x_min":113,"x_max":617,"o":"m 617 979 l 617 926 l 175 926 l 175 514 l 567 514 l 567 464 l 175 464 l 175 0 l 113 0 l 113 979 l 617 979 z "},"G":{"ha":1093,"x_min":78,"x_max":1015,"o":"m 549 988 q 825 905 711 988 q 986 682 939 822 l 921 682 q 782 861 879 793 q 549 929 685 929 q 342 876 435 929 q 197 722 250 822 q 143 489 143 622 q 197 253 143 353 q 344 99 250 153 q 553 46 438 46 q 753 96 663 46 q 899 239 844 146 q 960 458 954 332 l 526 458 l 526 507 l 1015 507 l 1015 460 q 951 217 1011 325 q 787 49 892 110 q 549 -11 682 -11 q 305 53 413 -11 q 138 231 197 117 q 78 489 78 344 q 138 747 78 633 q 305 924 197 861 q 549 988 413 988 z "},"H":{"ha":919,"x_min":113,"x_max":808,"o":"m 808 979 l 808 0 l 744 0 l 744 476 l 175 476 l 175 0 l 113 0 l 113 979 l 175 979 l 175 529 l 744 529 l 744 979 l 808 979 z "},"I":{"ha":288,"x_min":113,"x_max":175,"o":"m 175 979 l 175 0 l 113 0 l 113 979 l 175 979 z "},"J":{"ha":621,"x_min":39,"x_max":515,"o":"m 515 979 l 515 218 q 454 53 515 117 q 285 -10 393 -10 q 103 61 168 -10 q 39 257 39 132 l 100 257 q 144 106 100 164 q 283 47 189 47 q 413 97 374 47 q 453 218 453 147 l 453 979 l 515 979 z "},"K":{"ha":732,"x_min":113,"x_max":706,"o":"m 226 490 l 706 0 l 626 0 l 175 464 l 175 0 l 113 0 l 113 979 l 175 979 l 175 515 l 626 979 l 706 979 l 226 490 z "},"L":{"ha":568,"x_min":113,"x_max":540,"o":"m 175 51 l 540 51 l 540 0 l 113 0 l 113 979 l 175 979 l 175 51 z "},"M":{"ha":1133,"x_min":113,"x_max":1022,"o":"m 1022 954 l 1022 0 l 960 0 l 960 844 l 596 0 l 539 0 l 175 839 l 175 0 l 113 0 l 113 954 l 183 954 l 568 79 l 950 954 l 1022 954 z "},"N":{"ha":922,"x_min":113,"x_max":810,"o":"m 810 0 l 747 0 l 175 872 l 175 0 l 113 0 l 113 978 l 175 978 l 747 106 l 747 978 l 810 978 l 810 0 z "},"O":{"ha":1100,"x_min":78,"x_max":1021,"o":"m 550 988 q 792 924 685 988 q 960 747 900 861 q 1021 489 1021 633 q 960 231 1021 344 q 792 53 900 117 q 550 -11 685 -11 q 308 53 415 -11 q 139 231 200 117 q 78 489 78 344 q 139 747 78 633 q 308 924 200 861 q 550 988 415 988 m 550 931 q 342 876 435 931 q 197 722 250 822 q 143 489 143 622 q 197 256 143 356 q 342 101 250 156 q 550 47 435 47 q 757 101 664 47 q 903 256 850 156 q 957 489 957 356 q 903 722 957 622 q 757 876 850 822 q 550 931 664 931 z "},"P":{"ha":754,"x_min":113,"x_max":703,"o":"m 175 425 l 175 0 l 113 0 l 113 979 l 382 979 q 624 906 544 979 q 703 700 703 832 q 621 495 703 565 q 382 425 539 425 l 175 425 m 378 481 q 639 700 639 481 q 578 867 639 810 q 378 924 517 924 l 175 924 l 175 481 l 378 481 z "},"Q":{"ha":1100,"x_min":78,"x_max":1038,"o":"m 950 -201 l 701 13 q 550 -11 628 -11 q 308 53 415 -11 q 139 231 200 117 q 78 489 78 344 q 139 747 78 633 q 308 924 200 861 q 550 988 415 988 q 792 924 685 988 q 960 747 900 861 q 1021 489 1021 633 q 950 213 1021 332 q 757 35 879 93 l 1038 -201 l 950 -201 m 143 489 q 197 256 143 356 q 342 101 250 156 q 550 47 435 47 q 757 101 664 47 q 903 256 850 156 q 957 489 957 356 q 903 722 957 622 q 757 876 850 822 q 550 931 664 931 q 342 876 435 931 q 197 722 250 822 q 143 489 143 622 z "},"R":{"ha":767,"x_min":113,"x_max":714,"o":"m 642 0 l 358 417 l 175 417 l 175 0 l 113 0 l 113 979 l 386 979 q 627 903 549 979 q 706 696 706 826 q 634 499 706 571 q 426 418 563 428 l 714 0 l 642 0 m 175 468 l 382 468 q 643 694 643 468 q 581 863 643 804 q 382 922 519 922 l 175 922 l 175 468 z "},"S":{"ha":760,"x_min":78,"x_max":682,"o":"m 682 242 q 653 120 682 178 q 561 26 624 63 q 404 -10 499 -10 q 243 25 314 -10 q 131 118 172 60 q 82 244 89 176 l 147 244 q 183 153 154 200 q 267 74 211 106 q 403 42 322 42 q 561 99 506 42 q 617 240 617 156 q 582 358 617 314 q 497 426 547 403 q 358 476 446 450 q 210 530 265 504 q 116 608 154 556 q 78 747 78 661 q 151 921 78 853 q 356 989 225 989 q 565 923 488 989 q 660 765 642 857 l 593 765 q 519 884 579 831 q 356 938 460 938 q 202 888 260 938 q 144 749 144 839 q 178 637 144 679 q 260 572 211 594 q 394 524 310 549 q 546 469 489 496 q 642 388 603 442 q 682 242 682 333 z "},"T":{"ha":678,"x_min":26,"x_max":653,"o":"m 653 979 l 653 926 l 371 926 l 371 0 l 307 0 l 307 926 l 26 926 l 26 979 l 653 979 z "},"U":{"ha":889,"x_min":106,"x_max":785,"o":"m 168 979 l 168 378 q 243 128 168 207 q 447 49 318 49 q 648 128 575 49 q 721 378 721 207 l 721 979 l 785 979 l 785 378 q 694 86 785 182 q 447 -10 603 -10 q 198 86 290 -10 q 106 378 106 182 l 106 979 l 168 979 z "},"V":{"ha":885,"x_min":36,"x_max":849,"o":"m 107 979 l 440 81 l 778 979 l 849 979 l 479 0 l 404 0 l 36 979 l 107 979 z "},"W":{"ha":1290,"x_min":47,"x_max":1242,"o":"m 1242 979 l 985 0 l 913 0 l 644 883 l 378 0 l 306 0 l 47 979 l 118 979 l 342 90 l 610 979 l 681 979 l 947 90 l 1171 979 l 1242 979 z "},"X":{"ha":740,"x_min":36,"x_max":704,"o":"m 631 0 l 363 440 l 110 0 l 39 0 l 329 497 l 36 979 l 110 979 l 374 546 l 629 979 l 700 979 l 407 489 l 704 0 l 631 0 z "},"Y":{"ha":757,"x_min":36,"x_max":719,"o":"m 719 979 l 411 396 l 411 0 l 349 0 l 349 396 l 36 979 l 110 979 l 379 463 l 647 979 l 719 979 z "},"Z":{"ha":701,"x_min":51,"x_max":650,"o":"m 121 54 l 650 54 l 650 0 l 51 0 l 51 53 l 569 924 l 67 924 l 67 979 l 638 979 l 638 925 l 121 54 z "},"[":{"ha":358,"x_min":119,"x_max":300,"o":"m 300 1303 l 300 1250 l 181 1250 l 181 -171 l 300 -171 l 300 -224 l 119 -224 l 119 1303 l 300 1303 z "},"\\":{"ha":729,"x_min":71,"x_max":606,"o":"m 543 -224 l 71 1303 l 136 1303 l 606 -224 l 543 -224 z "},"]":{"ha":358,"x_min":58,"x_max":239,"o":"m 58 -224 l 58 -171 l 178 -171 l 178 1250 l 58 1250 l 58 1303 l 239 1303 l 239 -224 l 58 -224 z "},"^":{"ha":803,"x_min":53,"x_max":750,"o":"m 115 240 l 53 240 l 375 954 l 428 954 l 750 240 l 688 240 l 403 874 l 115 240 z "},"_":{"ha":781,"x_min":57,"x_max":725,"o":"m 725 -44 l 725 -103 l 57 -103 l 57 -44 l 725 -44 z "},"`":{"ha":381,"x_min":50,"x_max":322,"o":"m 322 867 l 322 817 l 50 992 l 50 1049 l 322 867 z "},"a":{"ha":933,"x_min":76,"x_max":822,"o":"m 436 764 q 644 699 560 764 q 760 529 729 635 l 760 754 l 822 754 l 822 0 l 760 0 l 760 225 q 644 55 729 119 q 436 -10 560 -10 q 249 37 331 -10 q 122 172 168 83 q 76 378 76 260 q 122 583 76 496 q 249 717 168 671 q 436 764 331 764 m 450 708 q 224 619 308 708 q 140 378 140 531 q 224 135 140 224 q 450 46 307 46 q 610 87 539 46 q 720 203 681 128 q 760 378 760 279 q 720 551 760 476 q 610 667 681 626 q 450 708 539 708 z "},"b":{"ha":933,"x_min":113,"x_max":857,"o":"m 497 764 q 684 717 603 764 q 811 583 765 671 q 857 378 857 496 q 811 172 857 260 q 684 37 765 83 q 497 -10 603 -10 q 290 55 375 -10 q 174 225 204 119 l 174 0 l 113 0 l 113 1028 l 174 1028 l 174 529 q 290 699 204 635 q 497 764 375 764 m 485 708 q 325 667 396 708 q 214 551 254 626 q 174 378 174 476 q 214 203 174 279 q 325 87 254 128 q 485 46 396 46 q 710 135 626 46 q 794 378 794 224 q 710 619 794 531 q 485 708 626 708 z "},"c":{"ha":869,"x_min":76,"x_max":793,"o":"m 443 764 q 679 690 586 764 q 793 493 772 615 l 728 493 q 633 651 711 593 q 442 710 556 710 q 292 674 360 710 q 182 563 224 638 q 140 378 140 488 q 182 193 140 268 q 292 82 224 118 q 442 46 360 46 q 633 104 556 46 q 728 263 711 163 l 793 263 q 679 65 772 139 q 443 -10 586 -10 q 253 37 336 -10 q 124 171 171 83 q 76 378 76 258 q 124 583 76 496 q 253 717 171 671 q 443 764 336 764 z "},"d":{"ha":933,"x_min":76,"x_max":822,"o":"m 436 764 q 644 699 560 764 q 760 529 729 635 l 760 1028 l 822 1028 l 822 0 l 760 0 l 760 225 q 644 55 729 119 q 436 -10 560 -10 q 249 37 331 -10 q 122 172 168 83 q 76 378 76 260 q 122 583 76 496 q 249 717 168 671 q 436 764 331 764 m 450 708 q 224 619 308 708 q 140 378 140 531 q 224 135 140 224 q 450 46 307 46 q 610 87 539 46 q 720 203 681 128 q 760 378 760 279 q 720 551 760 476 q 610 667 681 626 q 450 708 539 708 z "},"e":{"ha":871,"x_min":76,"x_max":794,"o":"m 440 43 q 632 101 554 43 q 726 258 710 158 l 792 258 q 678 64 771 138 q 443 -10 586 -10 q 253 37 336 -10 q 124 171 171 83 q 76 378 76 258 q 124 583 76 496 q 253 717 171 671 q 443 764 336 764 q 633 717 553 764 q 753 595 713 671 q 794 433 794 519 q 788 360 794 399 l 139 360 q 183 183 140 254 q 292 77 225 111 q 440 43 360 43 m 443 713 q 293 678 361 713 q 183 572 225 643 q 139 397 140 501 l 733 397 q 699 573 739 501 q 590 678 658 644 q 443 713 522 713 z "},"f":{"ha":453,"x_min":26,"x_max":410,"o":"m 410 981 q 251 938 296 981 q 207 796 207 894 l 207 754 l 410 754 l 410 697 l 207 697 l 207 0 l 143 0 l 143 697 l 26 697 l 26 754 l 143 754 l 143 800 q 206 980 143 921 q 410 1038 269 1039 l 410 981 z "},"g":{"ha":933,"x_min":76,"x_max":822,"o":"m 436 764 q 644 699 560 764 q 760 529 729 635 l 760 754 l 822 754 l 822 -22 q 777 -206 822 -126 q 653 -327 732 -285 q 481 -369 575 -369 q 247 -301 339 -369 q 124 -114 154 -232 l 185 -114 q 288 -260 213 -206 q 478 -314 363 -314 q 622 -278 557 -314 q 723 -177 686 -243 q 760 -22 760 -111 l 760 225 q 644 55 729 119 q 436 -10 560 -10 q 249 37 331 -10 q 122 172 168 83 q 76 378 76 260 q 122 583 76 496 q 249 717 168 671 q 436 764 331 764 m 450 708 q 224 619 308 708 q 140 378 140 531 q 224 135 140 224 q 450 46 307 46 q 610 87 539 46 q 720 203 681 128 q 760 378 760 279 q 720 551 760 476 q 610 667 681 626 q 450 708 539 708 z "},"h":{"ha":867,"x_min":113,"x_max":763,"o":"m 463 769 q 679 686 596 769 q 763 440 763 603 l 763 0 l 700 0 l 700 438 q 632 645 700 574 q 446 717 564 717 q 249 637 324 717 q 175 401 175 557 l 175 0 l 113 0 l 113 1028 l 175 1028 l 175 556 q 281 715 203 661 q 463 769 360 769 z "},"i":{"ha":288,"x_min":90,"x_max":197,"o":"m 90 982 q 105 1019 90 1004 q 143 1033 119 1033 q 182 1019 167 1033 q 197 982 197 1004 q 182 944 197 958 q 143 929 167 929 q 105 944 119 929 q 90 982 90 958 m 175 754 l 175 0 l 113 0 l 113 754 l 175 754 z "},"j":{"ha":299,"x_min":-36,"x_max":210,"o":"m 156 929 q 117 944 132 929 q 101 982 101 958 q 117 1019 101 1004 q 156 1033 132 1033 q 194 1019 179 1033 q 210 982 210 1004 q 194 944 210 958 q 156 929 179 929 m -36 -299 l 15 -299 q 98 -274 72 -299 q 124 -185 124 -249 l 124 754 l 188 754 l 188 -192 q 21 -356 188 -356 l -36 -356 l -36 -299 z "},"k":{"ha":597,"x_min":113,"x_max":585,"o":"m 501 0 l 175 347 l 175 0 l 113 0 l 113 1028 l 175 1028 l 175 415 l 494 754 l 576 754 l 218 381 l 585 0 l 501 0 z "},"l":{"ha":288,"x_min":113,"x_max":175,"o":"m 175 1028 l 175 0 l 113 0 l 113 1028 l 175 1028 z "},"m":{"ha":1406,"x_min":113,"x_max":1300,"o":"m 1013 769 q 1220 686 1140 769 q 1300 440 1300 603 l 1300 0 l 1239 0 l 1239 438 q 1175 643 1239 572 q 1000 714 1111 714 q 809 635 881 714 q 738 401 738 556 l 738 0 l 676 0 l 676 438 q 612 643 676 572 q 436 714 547 714 q 247 635 318 714 q 175 401 175 556 l 175 0 l 113 0 l 113 754 l 175 754 l 175 558 q 277 716 201 663 q 451 769 353 769 q 628 713 554 769 q 726 546 703 657 q 831 713 753 657 q 1013 769 910 769 z "},"n":{"ha":867,"x_min":113,"x_max":763,"o":"m 463 769 q 679 686 596 769 q 763 440 763 603 l 763 0 l 700 0 l 700 438 q 632 645 700 574 q 446 717 564 717 q 249 637 324 717 q 175 401 175 557 l 175 0 l 113 0 l 113 754 l 175 754 l 175 556 q 281 715 203 661 q 463 769 360 769 z "},"o":{"ha":897,"x_min":76,"x_max":821,"o":"m 449 764 q 640 717 556 764 q 773 583 725 671 q 821 378 821 496 q 773 171 821 258 q 640 37 725 83 q 449 -10 556 -10 q 258 37 343 -10 q 125 172 174 83 q 76 378 76 260 q 125 583 76 496 q 258 717 174 671 q 449 764 343 764 m 449 708 q 297 672 367 708 q 183 562 226 636 q 140 378 140 488 q 183 193 140 268 q 297 82 226 118 q 449 46 367 46 q 601 82 531 46 q 714 193 671 118 q 757 378 757 268 q 715 562 757 488 q 602 672 672 636 q 449 708 532 708 z "},"p":{"ha":933,"x_min":113,"x_max":857,"o":"m 497 764 q 684 717 603 764 q 811 583 765 671 q 857 378 857 496 q 811 172 857 260 q 684 37 765 83 q 497 -10 603 -10 q 290 55 375 -10 q 174 225 204 119 l 174 -356 l 113 -356 l 113 754 l 174 754 l 174 529 q 290 699 204 635 q 497 764 375 764 m 485 708 q 325 667 396 708 q 214 551 254 626 q 174 378 174 476 q 214 203 174 279 q 325 87 254 128 q 485 46 396 46 q 710 135 626 46 q 794 378 794 224 q 710 619 794 531 q 485 708 626 708 z "},"q":{"ha":933,"x_min":76,"x_max":822,"o":"m 439 764 q 644 701 560 764 q 760 535 728 638 l 760 754 l 822 754 l 822 -356 l 760 -356 l 760 222 q 645 53 729 117 q 439 -10 561 -10 q 251 38 333 -10 q 123 172 169 85 q 76 376 76 260 q 123 581 76 493 q 251 717 169 669 q 439 764 333 764 m 450 708 q 224 619 308 708 q 140 376 140 531 q 224 134 140 222 q 450 46 308 46 q 608 87 538 46 q 719 203 679 128 q 760 378 760 279 q 719 551 760 476 q 608 667 679 626 q 450 708 538 708 z "},"r":{"ha":492,"x_min":113,"x_max":465,"o":"m 175 588 q 278 723 204 676 q 465 769 351 769 l 465 701 l 444 701 q 253 638 331 701 q 175 431 175 574 l 175 0 l 113 0 l 113 754 l 175 754 l 175 588 z "},"s":{"ha":688,"x_min":78,"x_max":610,"o":"m 326 764 q 517 701 444 764 q 603 528 589 638 l 543 528 q 478 662 535 608 q 326 715 422 715 q 194 674 242 715 q 146 563 146 632 q 174 481 146 511 q 244 435 203 450 q 358 403 285 421 q 490 365 440 385 q 575 304 540 346 q 610 190 610 263 q 546 46 610 101 q 378 -10 482 -10 q 173 53 253 -10 q 78 226 93 117 l 140 226 q 210 92 149 146 q 379 39 272 39 q 505 81 460 39 q 550 192 550 124 q 521 278 550 246 q 448 326 492 311 q 332 358 404 342 q 202 397 250 378 q 120 455 154 415 q 86 563 86 494 q 151 709 86 654 q 326 764 217 764 z "},"t":{"ha":486,"x_min":26,"x_max":432,"o":"m 208 697 l 208 213 q 240 90 208 122 q 353 57 272 57 l 432 57 l 432 0 l 346 0 q 194 49 242 0 q 146 213 146 97 l 146 697 l 26 697 l 26 754 l 146 754 l 146 946 l 208 946 l 208 754 l 432 754 l 432 697 l 208 697 z "},"u":{"ha":849,"x_min":88,"x_max":738,"o":"m 738 754 l 738 0 l 674 0 l 674 197 q 567 39 646 93 q 386 -15 489 -15 q 171 68 254 -15 q 88 315 88 151 l 88 754 l 149 754 l 149 317 q 217 110 149 182 q 403 39 285 39 q 600 119 526 39 q 674 354 674 199 l 674 754 l 738 754 z "},"v":{"ha":743,"x_min":26,"x_max":717,"o":"m 372 79 l 649 754 l 717 754 l 404 0 l 338 0 l 26 754 l 93 754 l 372 79 z "},"w":{"ha":1133,"x_min":24,"x_max":1108,"o":"m 1108 754 l 879 0 l 818 0 l 567 671 l 315 0 l 254 0 l 24 754 l 89 754 l 288 78 l 536 754 l 599 754 l 849 78 l 1047 754 l 1108 754 z "},"x":{"ha":622,"x_min":26,"x_max":597,"o":"m 525 0 l 306 333 l 96 0 l 26 0 l 271 386 l 29 754 l 101 754 l 314 432 l 521 754 l 590 754 l 349 379 l 597 0 l 525 0 z "},"y":{"ha":729,"x_min":22,"x_max":707,"o":"m 92 754 l 375 83 l 638 754 l 707 754 l 269 -356 l 197 -356 l 342 4 l 22 754 l 92 754 z "},"z":{"ha":585,"x_min":40,"x_max":544,"o":"m 108 54 l 544 54 l 544 0 l 40 0 l 40 53 l 460 700 l 53 700 l 53 754 l 531 754 l 531 703 l 108 54 z "},"{":{"ha":446,"x_min":58,"x_max":403,"o":"m 106 515 q 231 437 189 497 q 272 294 272 376 q 257 178 272 247 q 242 93 247 129 q 236 10 236 57 q 287 -176 236 -96 q 403 -294 338 -256 l 403 -301 l 343 -301 q 232 -187 288 -268 q 176 18 176 -107 q 196 178 176 83 q 213 296 213 258 q 183 415 213 361 q 58 496 153 468 l 58 538 q 183 618 154 565 q 213 738 213 671 q 196 856 213 775 q 176 1015 176 950 q 232 1221 176 1140 q 343 1335 288 1301 l 403 1335 l 403 1328 q 287 1209 338 1289 q 236 1024 236 1129 q 242 941 236 976 q 257 857 247 906 q 272 739 272 786 q 231 597 272 657 q 106 518 189 536 l 106 515 z "},"|":{"ha":276,"x_min":107,"x_max":169,"o":"m 169 -129 l 107 -129 l 107 1089 l 169 1089 l 169 -129 z "},"}":{"ha":453,"x_min":56,"x_max":399,"o":"m 351 518 q 227 596 268 536 q 186 735 186 656 q 193 808 186 772 q 201 853 200 844 q 217 937 211 901 q 222 1019 222 972 q 171 1207 222 1125 q 56 1328 119 1289 l 56 1335 l 115 1335 q 226 1221 171 1301 q 281 1015 281 1140 q 261 856 281 950 q 246 738 246 782 q 275 617 246 671 q 399 538 304 564 l 399 496 q 275 416 304 469 q 246 296 246 363 q 261 178 246 251 q 281 18 281 83 q 226 -187 281 -107 q 115 -301 171 -268 l 56 -301 l 56 -294 q 171 -174 119 -256 q 222 14 222 -92 q 217 97 222 61 q 201 181 211 132 q 193 225 200 189 q 186 299 186 261 q 227 438 186 378 q 351 515 268 497 l 351 518 z "},"~":{"ha":624,"x_min":53,"x_max":572,"o":"m 201 524 q 263 511 236 524 q 326 474 290 499 q 381 441 360 451 q 429 431 403 431 q 488 457 464 431 q 519 524 511 483 l 572 524 q 522 411 560 451 q 424 371 483 371 q 363 383 390 371 q 300 421 335 396 q 245 453 268 443 q 196 464 222 464 q 138 438 161 464 q 106 371 114 411 l 53 371 q 103 483 65 443 q 201 524 142 524 z "}," ":{"ha":382,"x_min":0,"x_max":0,"o":""},"¡":{"ha":353,"x_min":126,"x_max":225,"o":"m 210 -217 l 197 518 l 150 518 l 138 -217 l 210 -217 m 225 674 l 225 769 l 126 769 l 126 674 l 225 674 z "},"¢":{"ha":815,"x_min":76,"x_max":739,"o":"m 417 79 q 591 137 519 79 q 679 294 663 194 l 739 294 q 638 102 721 175 q 426 26 556 29 l 426 -128 l 386 -128 l 386 28 q 162 128 247 38 q 76 372 76 219 q 162 616 76 525 q 386 717 247 707 l 386 860 l 426 860 l 426 718 q 638 642 556 715 q 739 450 721 569 l 679 450 q 591 608 663 550 q 417 665 519 665 q 277 633 340 665 q 176 535 214 601 q 138 372 138 468 q 176 210 138 276 q 277 111 214 143 q 417 79 340 79 z "},"£":{"ha":774,"x_min":67,"x_max":726,"o":"m 318 306 q 290 175 318 235 q 204 53 263 115 l 719 53 l 719 -1 l 146 -1 l 136 40 q 230 167 200 113 q 260 299 260 222 q 231 446 260 361 l 67 446 l 67 493 l 213 493 q 171 621 185 571 q 157 732 157 671 q 191 869 157 808 q 287 965 225 931 q 429 999 349 999 q 635 922 557 999 q 726 725 713 844 l 667 725 q 593 883 657 821 q 431 944 529 944 q 280 889 342 944 q 218 728 218 833 q 230 632 218 676 q 265 519 242 588 l 275 493 l 539 493 l 539 446 l 292 446 q 318 306 318 367 z "},"¤":{"ha":714,"x_min":99,"x_max":614,"o":"m 579 524 q 529 367 579 432 l 614 285 l 582 256 l 501 336 q 357 283 438 283 q 211 336 271 283 l 129 256 l 99 285 l 182 367 q 135 524 135 432 q 185 682 135 619 l 99 767 l 129 796 l 213 713 q 357 765 274 765 q 499 713 438 765 l 582 796 l 614 767 l 528 682 q 579 524 579 617 m 357 326 q 440 350 401 326 q 503 419 479 374 q 526 524 526 464 q 503 628 526 583 q 440 697 479 674 q 357 721 401 721 q 236 667 283 721 q 189 524 189 614 q 236 379 189 432 q 357 326 283 326 z "},"¥":{"ha":811,"x_min":67,"x_max":750,"o":"m 496 499 l 719 499 l 719 453 l 472 453 l 442 396 l 442 325 l 719 325 l 719 276 l 442 276 l 442 0 l 378 0 l 378 276 l 100 276 l 100 325 l 378 325 l 378 396 l 347 453 l 100 453 l 100 499 l 324 499 l 67 979 l 140 979 l 410 458 l 678 979 l 750 979 l 496 499 z "},"¦":{"ha":306,"x_min":122,"x_max":185,"o":"m 122 1089 l 185 1089 l 185 589 l 122 589 l 122 1089 m 185 -129 l 122 -129 l 122 372 l 185 372 l 185 -129 z "},"§":{"ha":792,"x_min":76,"x_max":715,"o":"m 453 179 q 618 103 556 151 q 681 -28 681 54 q 614 -166 681 -112 q 429 -219 547 -219 q 221 -156 303 -219 q 125 19 139 -93 l 188 19 q 257 -116 199 -61 q 431 -171 315 -171 q 566 -135 515 -171 q 617 -31 617 -100 q 564 74 617 33 q 383 150 511 115 q 221 204 286 175 q 116 283 156 233 q 76 407 76 332 q 107 515 76 464 q 199 598 138 565 q 344 633 260 631 q 111 846 111 697 q 179 981 111 929 q 368 1033 247 1033 q 573 970 493 1033 q 667 796 653 907 l 604 796 q 574 885 600 842 q 496 956 549 928 q 367 985 443 985 q 227 950 279 985 q 175 847 175 915 q 228 740 175 782 q 408 665 281 699 q 572 610 507 639 q 676 531 636 581 q 715 407 715 482 q 685 301 715 350 q 596 218 656 251 q 453 179 536 185 m 142 407 q 210 271 142 322 q 399 219 279 219 q 535 245 478 219 q 621 314 592 271 q 650 407 650 357 q 582 544 650 492 q 393 596 514 596 q 257 570 314 596 q 171 501 200 544 q 142 407 142 457 z "},"¨":{"ha":460,"x_min":78,"x_max":382,"o":"m 78 921 q 92 957 78 942 q 129 972 107 972 q 166 957 151 972 q 181 921 181 942 q 166 885 181 900 q 129 869 151 869 q 92 885 107 869 q 78 921 78 900 m 281 921 q 295 957 281 942 q 332 972 310 972 q 367 957 353 972 q 382 921 382 942 q 367 885 382 900 q 332 869 353 869 q 295 885 310 869 q 281 921 281 900 z "},"©":{"ha":1110,"x_min":78,"x_max":1032,"o":"m 556 978 q 307 916 415 978 q 138 743 199 854 q 78 490 78 632 q 138 238 78 349 q 307 64 199 126 q 556 1 415 1 q 804 64 696 1 q 972 238 913 126 q 1032 490 1032 349 q 972 743 1032 632 q 804 916 913 854 q 556 978 696 978 m 556 944 q 788 886 688 944 q 942 724 888 828 q 996 490 996 621 q 942 256 996 360 q 788 94 888 153 q 556 35 688 35 q 323 93 422 35 q 169 256 224 151 q 115 490 115 360 q 169 724 115 621 q 323 886 224 828 q 556 944 422 944 m 560 818 q 738 760 660 818 q 843 597 817 703 l 786 597 q 699 724 761 679 q 558 768 636 768 q 438 736 493 768 q 349 641 382 704 q 315 489 315 578 q 349 338 315 400 q 438 243 382 275 q 558 211 493 211 q 699 256 636 211 q 786 382 761 300 l 843 382 q 738 220 817 278 q 560 163 660 163 q 410 201 478 163 q 301 313 342 239 q 261 492 261 388 q 301 668 261 594 q 410 780 342 742 q 560 818 478 818 z "},"ª":{"ha":610,"x_min":53,"x_max":531,"o":"m 278 985 q 406 947 356 985 q 478 843 457 910 l 478 978 l 531 978 l 531 492 l 478 492 l 478 625 q 406 520 457 558 q 278 482 356 482 q 115 551 176 482 q 53 733 53 621 q 115 916 53 847 q 278 985 176 985 m 288 940 q 157 884 208 940 q 106 733 106 828 q 157 583 106 639 q 288 528 208 528 q 425 584 372 528 q 478 735 478 640 q 425 884 478 828 q 288 940 372 940 z "},"«":{"ha":563,"x_min":63,"x_max":494,"o":"m 206 167 l 63 410 l 206 653 l 274 653 l 128 410 l 274 167 l 206 167 m 426 167 l 283 410 l 426 653 l 494 653 l 349 410 l 494 167 l 426 167 z "},"¬":{"ha":999,"x_min":75,"x_max":932,"o":"m 932 593 l 932 338 l 872 338 l 872 540 l 75 540 l 75 593 l 932 593 z "},"­":{"ha":640,"x_min":-39,"x_max":483,"o":"m 483 549 l 483 494 l -39 494 l -39 549 l 483 549 z "},"®":{"ha":1099,"x_min":78,"x_max":1021,"o":"m 550 979 q 796 919 689 979 q 962 748 903 858 q 1021 492 1021 638 q 962 238 1021 350 q 796 63 903 126 q 550 0 689 0 q 305 63 413 0 q 138 238 197 126 q 78 492 78 350 q 138 748 78 638 q 304 919 197 858 q 550 979 411 979 m 550 44 q 780 100 682 44 q 931 257 878 156 q 985 492 985 358 q 931 731 985 628 q 780 890 878 833 q 550 946 682 946 q 319 890 418 946 q 168 731 221 833 q 115 492 115 628 q 168 257 115 358 q 319 100 221 156 q 550 44 418 44 m 786 654 q 736 528 786 574 q 593 479 686 483 l 786 197 l 731 197 l 542 479 l 418 479 l 418 197 l 371 197 l 371 826 l 574 826 q 733 780 681 826 q 786 654 786 733 m 572 517 q 739 650 739 517 q 700 750 739 717 q 572 783 661 783 l 418 783 l 418 517 l 572 517 z "},"¯":{"ha":551,"x_min":50,"x_max":501,"o":"m 501 957 l 501 908 l 50 908 l 50 957 l 501 957 z "},"°":{"ha":519,"x_min":40,"x_max":478,"o":"m 260 964 q 418 898 358 964 q 478 724 478 832 q 418 548 478 614 q 260 482 358 482 q 101 549 161 482 q 40 724 40 615 q 101 898 40 832 q 260 964 161 964 m 260 922 q 140 869 185 922 q 94 724 94 817 q 140 577 94 631 q 260 524 185 524 q 381 576 336 524 q 425 724 425 629 q 380 869 425 817 q 260 922 335 922 z "},"±":{"ha":811,"x_min":53,"x_max":760,"o":"m 760 592 l 760 535 l 436 535 l 436 226 l 375 226 l 375 535 l 53 535 l 53 592 l 375 592 l 375 881 l 436 881 l 436 592 l 760 592 m 53 185 l 760 185 l 760 128 l 53 128 l 53 185 z "},"²":{"ha":439,"x_min":56,"x_max":386,"o":"m 386 532 l 386 489 l 57 489 l 57 522 l 219 672 q 292 756 267 717 q 318 844 318 794 q 291 917 318 893 q 222 942 264 942 q 143 912 172 942 q 108 825 114 882 l 56 825 q 103 938 60 893 q 226 983 147 983 q 333 946 293 983 q 372 847 372 908 q 340 740 372 788 q 240 638 307 693 l 119 532 l 386 532 z "},"³":{"ha":438,"x_min":51,"x_max":385,"o":"m 225 983 q 338 947 294 983 q 382 849 382 910 q 358 776 382 806 q 288 733 335 746 l 288 731 q 359 689 333 719 q 385 613 385 658 q 342 520 385 558 q 222 482 299 482 q 101 517 143 482 q 51 624 60 553 l 106 624 q 219 524 117 524 q 302 549 274 524 q 331 618 331 574 q 298 690 331 664 q 214 715 265 715 l 133 715 l 133 747 l 215 747 q 297 773 267 747 q 328 844 328 799 q 299 914 328 888 q 221 940 269 940 q 142 917 171 940 q 104 853 113 894 l 53 853 q 105 947 61 910 q 225 983 149 983 z "},"´":{"ha":374,"x_min":50,"x_max":322,"o":"m 322 992 l 50 817 l 50 867 l 322 1049 l 322 992 z "},"µ":{"ha":883,"x_min":117,"x_max":767,"o":"m 767 754 l 767 0 l 704 0 l 704 199 q 603 39 678 93 q 432 -15 529 -15 q 278 26 346 -15 q 178 160 210 67 l 178 -356 l 117 -356 l 117 754 l 178 754 l 178 365 q 251 122 178 204 q 447 40 325 40 q 634 120 564 40 q 704 354 704 200 l 704 754 l 767 754 z "},"¶":{"ha":729,"x_min":28,"x_max":613,"o":"m 613 0 l 558 0 l 558 904 l 417 904 l 417 0 l 363 0 l 363 407 l 356 407 q 111 481 194 407 q 28 681 28 556 q 112 880 28 806 q 356 954 196 954 l 613 954 l 613 0 z "},"·":{"ha":190,"x_min":46,"x_max":144,"o":"m 144 538 l 144 442 l 46 442 l 46 538 l 144 538 z "},"¸":{"ha":363,"x_min":50,"x_max":313,"o":"m 136 -112 q 266 -139 219 -108 q 313 -231 313 -169 q 271 -322 313 -287 q 157 -356 229 -356 l 50 -356 l 50 -312 l 150 -312 q 263 -229 263 -312 q 235 -174 263 -194 q 150 -153 208 -153 l 90 -153 l 90 10 l 136 10 l 136 -112 z "},"¹":{"ha":236,"x_min":53,"x_max":182,"o":"m 53 933 l 53 978 l 182 978 l 182 489 l 129 489 l 129 933 l 53 933 z "},"º":{"ha":582,"x_min":53,"x_max":533,"o":"m 293 985 q 417 953 363 985 q 502 863 471 921 q 533 731 533 806 q 502 599 533 657 q 417 510 471 542 q 293 478 363 478 q 169 510 224 478 q 83 599 114 542 q 53 731 53 657 q 83 863 53 806 q 169 953 114 921 q 293 985 224 985 m 293 939 q 158 884 211 939 q 106 731 106 829 q 158 578 106 633 q 293 524 211 524 q 426 578 374 524 q 479 731 479 633 q 426 883 479 828 q 293 939 374 939 z "},"»":{"ha":563,"x_min":69,"x_max":501,"o":"m 217 410 l 69 653 l 139 653 l 281 410 l 139 167 l 69 167 l 217 410 m 438 410 l 290 653 l 360 653 l 501 410 l 360 167 l 290 167 l 438 410 z "},"¼":{"ha":775,"x_min":82,"x_max":722,"o":"m 640 979 l 150 0 l 89 0 l 579 979 l 640 979 m 82 933 l 82 978 l 211 978 l 211 489 l 158 489 l 158 933 l 82 933 m 722 103 l 650 103 l 650 0 l 597 0 l 597 103 l 353 103 l 353 139 l 592 493 l 650 493 l 650 142 l 722 142 l 722 103 m 599 419 l 408 143 l 599 143 l 599 419 z "},"½":{"ha":882,"x_min":68,"x_max":819,"o":"m 622 979 l 129 0 l 68 0 l 560 979 l 622 979 m 161 933 l 85 933 l 85 978 l 214 978 l 214 489 l 161 489 l 161 933 m 819 42 l 819 -1 l 490 -1 l 490 32 l 653 182 q 726 265 700 226 q 751 354 751 304 q 724 427 751 403 q 656 451 697 451 q 576 422 606 451 q 542 335 547 392 l 489 335 q 537 448 493 403 q 660 493 581 493 q 766 456 726 493 q 806 357 806 418 q 773 250 806 297 q 674 147 740 203 l 553 42 l 819 42 z "},"¾":{"ha":825,"x_min":82,"x_max":774,"o":"m 256 983 q 369 947 325 983 q 413 849 413 910 q 389 776 413 806 q 318 733 365 746 l 318 731 q 390 689 364 719 q 415 613 415 658 q 372 520 415 558 q 253 482 329 482 q 132 517 174 482 q 82 624 90 553 l 136 624 q 250 524 147 524 q 333 549 304 524 q 361 618 361 574 q 328 690 361 664 q 244 715 296 715 l 164 715 l 164 747 l 246 747 q 328 773 297 747 q 358 844 358 799 q 329 914 358 888 q 251 940 300 940 q 172 917 201 940 q 135 853 143 894 l 83 853 q 135 947 92 910 q 256 983 179 983 m 725 979 l 238 0 l 175 0 l 663 979 l 725 979 m 774 103 l 700 103 l 700 0 l 647 0 l 647 103 l 403 103 l 403 139 l 639 493 l 700 493 l 700 142 l 774 142 l 774 103 m 649 422 l 458 142 l 649 142 l 649 422 z "},"¿":{"ha":656,"x_min":50,"x_max":638,"o":"m 336 -246 q 128 -172 207 -246 q 50 28 50 -97 q 144 256 50 185 q 406 329 238 328 l 406 518 l 465 518 l 465 283 l 432 283 q 201 230 289 283 q 113 28 113 176 q 173 -134 113 -75 q 338 -193 233 -193 q 511 -133 444 -193 q 578 24 578 -74 l 638 24 q 599 -119 638 -58 q 491 -213 560 -181 q 336 -246 422 -246 m 385 657 l 385 753 l 483 753 l 483 657 l 385 657 z "},"À":{"ha":865,"x_min":36,"x_max":828,"o":"m 665 254 l 201 254 l 106 0 l 36 0 l 399 953 l 468 953 l 828 0 l 760 0 l 665 254 m 646 306 l 433 876 l 219 306 l 646 306 m 447 1092 l 447 1042 l 175 1217 l 175 1274 l 447 1092 z "},"Á":{"ha":865,"x_min":36,"x_max":828,"o":"m 665 254 l 201 254 l 106 0 l 36 0 l 399 953 l 468 953 l 828 0 l 760 0 l 665 254 m 646 306 l 433 876 l 219 306 l 646 306 m 678 1217 l 406 1042 l 406 1092 l 678 1274 l 678 1217 z "},"Â":{"ha":865,"x_min":36,"x_max":828,"o":"m 665 254 l 201 254 l 106 0 l 36 0 l 399 953 l 468 953 l 828 0 l 760 0 l 665 254 m 646 306 l 433 876 l 219 306 l 646 306 m 433 1194 l 253 1082 l 253 1131 l 433 1244 l 611 1131 l 611 1082 l 433 1194 z "},"Ã":{"ha":865,"x_min":36,"x_max":828,"o":"m 665 254 l 201 254 l 106 0 l 36 0 l 399 953 l 468 953 l 828 0 l 760 0 l 665 254 m 646 306 l 433 876 l 219 306 l 646 306 m 354 1176 q 397 1167 379 1176 q 438 1140 415 1158 q 474 1115 458 1124 q 510 1107 489 1107 q 550 1124 533 1107 q 571 1172 567 1140 l 613 1172 q 578 1094 607 1124 q 508 1064 550 1064 q 465 1073 483 1064 q 419 1101 446 1082 q 384 1124 397 1117 q 353 1132 371 1132 q 293 1065 303 1132 l 253 1065 q 286 1147 260 1118 q 354 1176 313 1176 z "},"Ä":{"ha":865,"x_min":36,"x_max":828,"o":"m 665 254 l 201 254 l 106 0 l 36 0 l 399 953 l 468 953 l 828 0 l 760 0 l 665 254 m 646 306 l 433 876 l 219 306 l 646 306 m 281 1146 q 295 1182 281 1167 q 332 1197 310 1197 q 369 1182 354 1197 q 383 1146 383 1167 q 369 1110 383 1125 q 332 1094 354 1094 q 295 1110 310 1094 q 281 1146 281 1125 m 483 1146 q 498 1182 483 1167 q 535 1197 513 1197 q 570 1182 556 1197 q 585 1146 585 1167 q 570 1110 585 1125 q 535 1094 556 1094 q 498 1110 513 1094 q 483 1146 483 1125 z "},"Å":{"ha":865,"x_min":36,"x_max":828,"o":"m 665 254 l 201 254 l 106 0 l 36 0 l 399 953 l 468 953 l 828 0 l 760 0 l 665 254 m 646 306 l 433 876 l 219 306 l 646 306 m 432 1340 q 526 1304 488 1340 q 564 1208 564 1268 q 526 1111 564 1147 q 432 1075 488 1075 q 338 1111 376 1075 q 299 1208 299 1147 q 338 1304 299 1268 q 432 1340 376 1340 m 432 1303 q 365 1278 390 1303 q 339 1208 339 1253 q 365 1138 339 1164 q 432 1113 390 1113 q 499 1138 472 1113 q 525 1208 525 1164 q 499 1277 525 1251 q 432 1303 472 1303 z "},"Æ":{"ha":1189,"x_min":13,"x_max":1122,"o":"m 686 926 l 686 517 l 1081 517 l 1081 465 l 686 465 l 686 53 l 1122 53 l 1122 0 l 624 0 l 624 253 l 233 253 l 82 0 l 13 0 l 597 979 l 1122 979 l 1122 926 l 686 926 m 624 304 l 624 904 l 264 304 l 624 304 z "},"Ç":{"ha":1065,"x_min":78,"x_max":988,"o":"m 538 989 q 824 906 710 989 q 988 679 938 824 l 922 679 q 782 862 881 793 q 538 931 683 931 q 337 877 426 931 q 195 724 247 824 q 143 489 143 624 q 195 256 143 356 q 337 102 247 156 q 538 49 426 49 q 782 117 683 49 q 922 299 881 186 l 988 299 q 824 72 938 154 q 538 -10 710 -10 q 299 53 404 -10 q 136 231 194 117 q 78 489 78 344 q 136 747 78 633 q 299 925 194 861 q 538 989 404 989 m 556 -112 q 685 -139 639 -108 q 732 -231 732 -169 q 690 -322 732 -287 q 576 -356 649 -356 l 469 -356 l 469 -312 l 569 -312 q 682 -229 682 -312 q 655 -174 682 -194 q 569 -153 628 -153 l 510 -153 l 510 10 l 556 10 l 556 -112 z "},"È":{"ha":679,"x_min":104,"x_max":613,"o":"m 175 926 l 175 515 l 571 515 l 571 465 l 175 465 l 175 53 l 613 53 l 613 0 l 113 0 l 113 979 l 613 979 l 613 926 l 175 926 m 376 1092 l 376 1042 l 104 1217 l 104 1274 l 376 1092 z "},"É":{"ha":679,"x_min":113,"x_max":613,"o":"m 175 926 l 175 515 l 571 515 l 571 465 l 175 465 l 175 53 l 613 53 l 613 0 l 113 0 l 113 979 l 613 979 l 613 926 l 175 926 m 608 1217 l 336 1042 l 336 1092 l 608 1274 l 608 1217 z "},"Ê":{"ha":679,"x_min":113,"x_max":613,"o":"m 175 926 l 175 515 l 571 515 l 571 465 l 175 465 l 175 53 l 613 53 l 613 0 l 113 0 l 113 979 l 613 979 l 613 926 l 175 926 m 364 1194 l 183 1082 l 183 1131 l 364 1244 l 542 1131 l 542 1082 l 364 1194 z "},"Ë":{"ha":679,"x_min":113,"x_max":613,"o":"m 175 926 l 175 515 l 571 515 l 571 465 l 175 465 l 175 53 l 613 53 l 613 0 l 113 0 l 113 979 l 613 979 l 613 926 l 175 926 m 211 1146 q 226 1182 211 1167 q 263 1197 240 1197 q 299 1182 285 1197 q 314 1146 314 1167 q 299 1110 314 1125 q 263 1094 285 1094 q 226 1110 240 1094 q 211 1146 211 1125 m 414 1146 q 428 1182 414 1167 q 465 1197 443 1197 q 501 1182 486 1197 q 515 1146 515 1167 q 501 1110 515 1125 q 465 1094 486 1094 q 428 1110 443 1094 q 414 1146 414 1125 z "},"Ì":{"ha":288,"x_min":-114,"x_max":175,"o":"m 175 979 l 175 0 l 113 0 l 113 979 l 175 979 m 158 1092 l 158 1042 l -114 1217 l -114 1274 l 158 1092 z "},"Í":{"ha":288,"x_min":113,"x_max":389,"o":"m 175 979 l 175 0 l 113 0 l 113 979 l 175 979 m 389 1217 l 117 1042 l 117 1092 l 389 1274 l 389 1217 z "},"Î":{"ha":288,"x_min":-35,"x_max":324,"o":"m 175 979 l 175 0 l 113 0 l 113 979 l 175 979 m 146 1194 l -35 1082 l -35 1131 l 146 1244 l 324 1131 l 324 1082 l 146 1194 z "},"Ï":{"ha":288,"x_min":-8,"x_max":296,"o":"m 175 979 l 175 0 l 113 0 l 113 979 l 175 979 m -8 1146 q 6 1182 -8 1167 q 43 1197 21 1197 q 80 1182 65 1197 q 94 1146 94 1167 q 80 1110 94 1125 q 43 1094 65 1094 q 6 1110 21 1094 q -8 1146 -8 1125 m 194 1146 q 209 1182 194 1167 q 246 1197 224 1197 q 281 1182 267 1197 q 296 1146 296 1167 q 281 1110 296 1125 q 246 1094 267 1094 q 209 1110 224 1094 q 194 1146 194 1125 z "},"Ð":{"ha":1031,"x_min":13,"x_max":953,"o":"m 436 979 q 819 850 686 979 q 953 490 953 721 q 819 129 953 258 q 436 0 686 0 l 161 0 l 161 464 l 13 464 l 13 515 l 161 515 l 161 979 l 436 979 m 433 57 q 774 171 658 57 q 889 490 889 285 q 773 810 889 696 q 433 924 657 924 l 224 924 l 224 515 l 529 515 l 529 464 l 224 464 l 224 57 l 433 57 z "},"Ñ":{"ha":922,"x_min":113,"x_max":810,"o":"m 810 0 l 747 0 l 175 872 l 175 0 l 113 0 l 113 978 l 175 978 l 747 106 l 747 978 l 810 978 l 810 0 m 382 1176 q 425 1167 407 1176 q 465 1140 443 1158 q 501 1115 486 1124 q 538 1107 517 1107 q 578 1124 561 1107 q 599 1172 594 1140 l 640 1172 q 606 1094 635 1124 q 536 1064 578 1064 q 492 1073 511 1064 q 447 1101 474 1082 q 412 1124 425 1117 q 381 1132 399 1132 q 321 1065 331 1132 l 281 1065 q 314 1147 288 1118 q 382 1176 340 1176 z "},"Ò":{"ha":1100,"x_min":78,"x_max":1021,"o":"m 550 988 q 792 924 685 988 q 960 747 900 861 q 1021 489 1021 633 q 960 231 1021 344 q 792 53 900 117 q 550 -11 685 -11 q 308 53 415 -11 q 139 231 200 117 q 78 489 78 344 q 139 747 78 633 q 308 924 200 861 q 550 988 415 988 m 550 931 q 342 876 435 931 q 197 722 250 822 q 143 489 143 622 q 197 256 143 356 q 342 101 250 156 q 550 47 435 47 q 757 101 664 47 q 903 256 850 156 q 957 489 957 356 q 903 722 957 622 q 757 876 850 822 q 550 931 664 931 m 565 1092 l 565 1042 l 293 1217 l 293 1274 l 565 1092 z "},"Ó":{"ha":1100,"x_min":78,"x_max":1021,"o":"m 550 988 q 792 924 685 988 q 960 747 900 861 q 1021 489 1021 633 q 960 231 1021 344 q 792 53 900 117 q 550 -11 685 -11 q 308 53 415 -11 q 139 231 200 117 q 78 489 78 344 q 139 747 78 633 q 308 924 200 861 q 550 988 415 988 m 550 931 q 342 876 435 931 q 197 722 250 822 q 143 489 143 622 q 197 256 143 356 q 342 101 250 156 q 550 47 435 47 q 757 101 664 47 q 903 256 850 156 q 957 489 957 356 q 903 722 957 622 q 757 876 850 822 q 550 931 664 931 m 796 1217 l 524 1042 l 524 1092 l 796 1274 l 796 1217 z "},"Ô":{"ha":1100,"x_min":78,"x_max":1021,"o":"m 550 988 q 792 924 685 988 q 960 747 900 861 q 1021 489 1021 633 q 960 231 1021 344 q 792 53 900 117 q 550 -11 685 -11 q 308 53 415 -11 q 139 231 200 117 q 78 489 78 344 q 139 747 78 633 q 308 924 200 861 q 550 988 415 988 m 550 931 q 342 876 435 931 q 197 722 250 822 q 143 489 143 622 q 197 256 143 356 q 342 101 250 156 q 550 47 435 47 q 757 101 664 47 q 903 256 850 156 q 957 489 957 356 q 903 722 957 622 q 757 876 850 822 q 550 931 664 931 m 551 1194 l 371 1082 l 371 1131 l 551 1244 l 729 1131 l 729 1082 l 551 1194 z "},"Õ":{"ha":1100,"x_min":78,"x_max":1021,"o":"m 550 988 q 792 924 685 988 q 960 747 900 861 q 1021 489 1021 633 q 960 231 1021 344 q 792 53 900 117 q 550 -11 685 -11 q 308 53 415 -11 q 139 231 200 117 q 78 489 78 344 q 139 747 78 633 q 308 924 200 861 q 550 988 415 988 m 550 931 q 342 876 435 931 q 197 722 250 822 q 143 489 143 622 q 197 256 143 356 q 342 101 250 156 q 550 47 435 47 q 757 101 664 47 q 903 256 850 156 q 957 489 957 356 q 903 722 957 622 q 757 876 850 822 q 550 931 664 931 m 472 1176 q 515 1167 497 1176 q 556 1140 533 1158 q 592 1115 576 1124 q 628 1107 607 1107 q 668 1124 651 1107 q 689 1172 685 1140 l 731 1172 q 697 1094 725 1124 q 626 1064 668 1064 q 583 1073 601 1064 q 538 1101 564 1082 q 502 1124 515 1117 q 471 1132 489 1132 q 411 1065 421 1132 l 371 1065 q 404 1147 378 1118 q 472 1176 431 1176 z "},"Ö":{"ha":1100,"x_min":78,"x_max":1021,"o":"m 550 988 q 792 924 685 988 q 960 747 900 861 q 1021 489 1021 633 q 960 231 1021 344 q 792 53 900 117 q 550 -11 685 -11 q 308 53 415 -11 q 139 231 200 117 q 78 489 78 344 q 139 747 78 633 q 308 924 200 861 q 550 988 415 988 m 550 931 q 342 876 435 931 q 197 722 250 822 q 143 489 143 622 q 197 256 143 356 q 342 101 250 156 q 550 47 435 47 q 757 101 664 47 q 903 256 850 156 q 957 489 957 356 q 903 722 957 622 q 757 876 850 822 q 550 931 664 931 m 399 1146 q 413 1182 399 1167 q 450 1197 428 1197 q 487 1182 472 1197 q 501 1146 501 1167 q 487 1110 501 1125 q 450 1094 472 1094 q 413 1110 428 1094 q 399 1146 399 1125 m 601 1146 q 616 1182 601 1167 q 653 1197 631 1197 q 688 1182 674 1197 q 703 1146 703 1167 q 688 1110 703 1125 q 653 1094 674 1094 q 616 1110 631 1094 q 601 1146 601 1125 z "},"×":{"ha":671,"x_min":53,"x_max":619,"o":"m 576 239 l 335 481 l 94 240 l 53 281 l 293 521 l 53 761 l 96 804 l 336 564 l 575 803 l 615 763 l 376 524 l 619 281 l 576 239 z "},"Ø":{"ha":1100,"x_min":78,"x_max":1022,"o":"m 896 840 q 988 684 956 774 q 1021 489 1021 594 q 960 231 1021 344 q 792 53 900 117 q 550 -11 685 -11 q 374 21 456 -11 q 229 111 292 53 l 128 0 l 78 0 l 203 138 q 110 294 143 204 q 78 489 78 385 q 139 747 78 633 q 308 924 200 861 q 550 988 415 988 q 725 956 643 988 q 869 867 807 925 l 972 979 l 1022 979 l 896 840 m 143 489 q 169 318 143 396 q 244 183 196 240 l 829 822 q 703 903 775 875 q 550 931 631 931 q 342 876 435 931 q 197 722 250 822 q 143 489 143 622 m 957 489 q 930 660 957 582 q 854 796 903 738 l 271 156 q 397 75 325 103 q 550 47 468 47 q 757 101 664 47 q 903 256 850 156 q 957 489 957 356 z "},"Ù":{"ha":889,"x_min":106,"x_max":785,"o":"m 168 979 l 168 378 q 243 128 168 207 q 447 49 318 49 q 648 128 575 49 q 721 378 721 207 l 721 979 l 785 979 l 785 378 q 694 86 785 182 q 447 -10 603 -10 q 198 86 290 -10 q 106 378 106 182 l 106 979 l 168 979 m 458 1092 l 458 1042 l 186 1217 l 186 1274 l 458 1092 z "},"Ú":{"ha":889,"x_min":106,"x_max":785,"o":"m 168 979 l 168 378 q 243 128 168 207 q 447 49 318 49 q 648 128 575 49 q 721 378 721 207 l 721 979 l 785 979 l 785 378 q 694 86 785 182 q 447 -10 603 -10 q 198 86 290 -10 q 106 378 106 182 l 106 979 l 168 979 m 690 1217 l 418 1042 l 418 1092 l 690 1274 l 690 1217 z "},"Û":{"ha":889,"x_min":106,"x_max":785,"o":"m 168 979 l 168 378 q 243 128 168 207 q 447 49 318 49 q 648 128 575 49 q 721 378 721 207 l 721 979 l 785 979 l 785 378 q 694 86 785 182 q 447 -10 603 -10 q 198 86 290 -10 q 106 378 106 182 l 106 979 l 168 979 m 446 1194 l 265 1082 l 265 1131 l 446 1244 l 624 1131 l 624 1082 l 446 1194 z "},"Ü":{"ha":889,"x_min":106,"x_max":785,"o":"m 168 979 l 168 378 q 243 128 168 207 q 447 49 318 49 q 648 128 575 49 q 721 378 721 207 l 721 979 l 785 979 l 785 378 q 694 86 785 182 q 447 -10 603 -10 q 198 86 290 -10 q 106 378 106 182 l 106 979 l 168 979 m 293 1146 q 308 1182 293 1167 q 344 1197 322 1197 q 381 1182 367 1197 q 396 1146 396 1167 q 381 1110 396 1125 q 344 1094 367 1094 q 308 1110 322 1094 q 293 1146 293 1125 m 496 1146 q 510 1182 496 1167 q 547 1197 525 1197 q 583 1182 568 1197 q 597 1146 597 1167 q 583 1110 597 1125 q 547 1094 568 1094 q 510 1110 525 1094 q 496 1146 496 1125 z "},"Ý":{"ha":757,"x_min":36,"x_max":719,"o":"m 719 979 l 411 396 l 411 0 l 349 0 l 349 396 l 36 979 l 110 979 l 379 463 l 647 979 l 719 979 m 624 1217 l 351 1042 l 351 1092 l 624 1274 l 624 1217 z "},"Þ":{"ha":754,"x_min":113,"x_max":703,"o":"m 175 215 l 175 0 l 113 0 l 113 979 l 175 979 l 175 765 l 382 765 q 624 692 544 765 q 703 489 703 619 q 621 285 703 354 q 382 215 539 215 l 175 215 m 378 269 q 639 489 639 269 q 578 656 639 599 q 378 713 517 713 l 175 713 l 175 269 l 378 269 z "},"ß":{"ha":849,"x_min":113,"x_max":799,"o":"m 618 490 q 757 363 715 428 q 799 211 799 297 q 767 95 799 147 q 678 14 735 43 q 551 -15 622 -15 q 367 51 435 -15 q 299 233 299 117 l 354 233 q 403 94 356 147 q 547 40 451 40 q 688 92 639 40 q 738 214 738 144 q 706 333 738 281 q 593 439 675 385 l 369 586 l 369 622 l 426 650 q 506 715 481 676 q 531 808 531 753 q 484 935 531 886 q 361 985 438 985 q 224 935 274 985 q 175 797 175 885 l 175 0 l 113 0 l 113 789 q 181 975 113 908 q 365 1042 249 1042 q 530 983 465 1042 q 594 822 594 924 q 458 629 594 692 l 428 614 l 618 490 z "},"à":{"ha":933,"x_min":76,"x_max":822,"o":"m 436 764 q 644 699 560 764 q 760 529 729 635 l 760 754 l 822 754 l 822 0 l 760 0 l 760 225 q 644 55 729 119 q 436 -10 560 -10 q 249 37 331 -10 q 122 172 168 83 q 76 378 76 260 q 122 583 76 496 q 249 717 168 671 q 436 764 331 764 m 450 708 q 224 619 308 708 q 140 378 140 531 q 224 135 140 224 q 450 46 307 46 q 610 87 539 46 q 720 203 681 128 q 760 378 760 279 q 720 551 760 476 q 610 667 681 626 q 450 708 539 708 m 464 867 l 464 817 l 192 992 l 192 1049 l 464 867 z "},"á":{"ha":933,"x_min":76,"x_max":822,"o":"m 436 764 q 644 699 560 764 q 760 529 729 635 l 760 754 l 822 754 l 822 0 l 760 0 l 760 225 q 644 55 729 119 q 436 -10 560 -10 q 249 37 331 -10 q 122 172 168 83 q 76 378 76 260 q 122 583 76 496 q 249 717 168 671 q 436 764 331 764 m 450 708 q 224 619 308 708 q 140 378 140 531 q 224 135 140 224 q 450 46 307 46 q 610 87 539 46 q 720 203 681 128 q 760 378 760 279 q 720 551 760 476 q 610 667 681 626 q 450 708 539 708 m 694 992 l 422 817 l 422 867 l 694 1049 l 694 992 z "},"â":{"ha":933,"x_min":76,"x_max":822,"o":"m 436 764 q 644 699 560 764 q 760 529 729 635 l 760 754 l 822 754 l 822 0 l 760 0 l 760 225 q 644 55 729 119 q 436 -10 560 -10 q 249 37 331 -10 q 122 172 168 83 q 76 378 76 260 q 122 583 76 496 q 249 717 168 671 q 436 764 331 764 m 450 708 q 224 619 308 708 q 140 378 140 531 q 224 135 140 224 q 450 46 307 46 q 610 87 539 46 q 720 203 681 128 q 760 378 760 279 q 720 551 760 476 q 610 667 681 626 q 450 708 539 708 m 451 969 l 271 857 l 271 906 l 451 1019 l 629 906 l 629 857 l 451 969 z "},"ã":{"ha":933,"x_min":76,"x_max":822,"o":"m 436 764 q 644 699 560 764 q 760 529 729 635 l 760 754 l 822 754 l 822 0 l 760 0 l 760 225 q 644 55 729 119 q 436 -10 560 -10 q 249 37 331 -10 q 122 172 168 83 q 76 378 76 260 q 122 583 76 496 q 249 717 168 671 q 436 764 331 764 m 450 708 q 224 619 308 708 q 140 378 140 531 q 224 135 140 224 q 450 46 307 46 q 610 87 539 46 q 720 203 681 128 q 760 378 760 279 q 720 551 760 476 q 610 667 681 626 q 450 708 539 708 m 371 951 q 414 942 396 951 q 454 915 432 933 q 490 890 475 899 q 526 882 506 882 q 567 899 550 882 q 588 947 583 915 l 629 947 q 595 869 624 899 q 525 839 567 839 q 481 848 500 839 q 436 876 463 857 q 401 899 414 892 q 369 907 388 907 q 310 840 319 907 l 269 840 q 303 922 276 893 q 371 951 329 951 z "},"ä":{"ha":933,"x_min":76,"x_max":822,"o":"m 436 764 q 644 699 560 764 q 760 529 729 635 l 760 754 l 822 754 l 822 0 l 760 0 l 760 225 q 644 55 729 119 q 436 -10 560 -10 q 249 37 331 -10 q 122 172 168 83 q 76 378 76 260 q 122 583 76 496 q 249 717 168 671 q 436 764 331 764 m 450 708 q 224 619 308 708 q 140 378 140 531 q 224 135 140 224 q 450 46 307 46 q 610 87 539 46 q 720 203 681 128 q 760 378 760 279 q 720 551 760 476 q 610 667 681 626 q 450 708 539 708 m 297 921 q 312 957 297 942 q 349 972 326 972 q 385 957 371 972 q 400 921 400 942 q 385 885 400 900 q 349 869 371 869 q 312 885 326 869 q 297 921 297 900 m 500 921 q 515 957 500 942 q 551 972 529 972 q 587 957 572 972 q 601 921 601 942 q 587 885 601 900 q 551 869 572 869 q 515 885 529 869 q 500 921 500 900 z "},"å":{"ha":933,"x_min":76,"x_max":822,"o":"m 436 764 q 644 699 560 764 q 760 529 729 635 l 760 754 l 822 754 l 822 0 l 760 0 l 760 225 q 644 55 729 119 q 436 -10 560 -10 q 249 37 331 -10 q 122 172 168 83 q 76 378 76 260 q 122 583 76 496 q 249 717 168 671 q 436 764 331 764 m 450 708 q 224 619 308 708 q 140 378 140 531 q 224 135 140 224 q 450 46 307 46 q 610 87 539 46 q 720 203 681 128 q 760 378 760 279 q 720 551 760 476 q 610 667 681 626 q 450 708 539 708 m 450 1115 q 544 1079 506 1115 q 582 983 582 1043 q 544 886 582 922 q 450 850 506 850 q 356 886 394 850 q 317 983 317 922 q 356 1079 317 1043 q 450 1115 394 1115 m 450 1078 q 383 1053 408 1078 q 357 983 357 1028 q 383 913 357 939 q 450 888 408 888 q 517 913 490 888 q 543 983 543 939 q 517 1052 543 1026 q 450 1078 490 1078 z "},"æ":{"ha":1563,"x_min":76,"x_max":1486,"o":"m 1129 43 q 1323 101 1244 43 q 1419 258 1401 158 l 1483 258 q 1374 64 1464 138 q 1143 -10 1283 -10 q 938 51 1025 -10 q 822 226 850 113 l 822 0 l 760 0 l 760 225 q 644 55 729 119 q 436 -10 560 -10 q 249 37 331 -10 q 122 172 168 83 q 76 378 76 260 q 122 583 76 496 q 249 717 168 671 q 436 764 331 764 q 644 699 560 764 q 760 529 729 635 l 760 754 l 822 754 l 822 528 q 938 702 850 640 q 1143 764 1025 764 q 1329 717 1251 764 q 1447 595 1407 671 q 1486 433 1486 519 q 1481 360 1486 392 l 824 360 q 869 183 826 254 q 980 78 911 113 q 1129 43 1049 43 m 1131 713 q 981 678 1050 713 q 868 573 911 644 q 824 397 825 501 l 1425 397 q 1390 572 1431 501 q 1281 678 1350 643 q 1131 713 1211 713 m 450 46 q 610 87 539 46 q 720 203 681 128 q 760 378 760 279 q 720 551 760 476 q 610 667 681 626 q 450 708 539 708 q 224 619 308 708 q 140 378 140 531 q 224 135 140 224 q 450 46 307 46 z "},"ç":{"ha":869,"x_min":76,"x_max":793,"o":"m 443 764 q 679 690 586 764 q 793 493 772 615 l 728 493 q 633 651 711 593 q 442 710 556 710 q 292 674 360 710 q 182 563 224 638 q 140 378 140 488 q 182 193 140 268 q 292 82 224 118 q 442 46 360 46 q 633 104 556 46 q 728 263 711 163 l 793 263 q 679 65 772 139 q 443 -10 586 -10 q 253 37 336 -10 q 124 171 171 83 q 76 378 76 258 q 124 583 76 496 q 253 717 171 671 q 443 764 336 764 m 451 -112 q 581 -139 535 -108 q 628 -231 628 -169 q 586 -322 628 -287 q 472 -356 544 -356 l 365 -356 l 365 -312 l 465 -312 q 578 -229 578 -312 q 551 -174 578 -194 q 465 -153 524 -153 l 406 -153 l 406 10 l 451 10 l 451 -112 z "},"è":{"ha":871,"x_min":76,"x_max":794,"o":"m 440 43 q 632 101 554 43 q 726 258 710 158 l 792 258 q 678 64 771 138 q 443 -10 586 -10 q 253 37 336 -10 q 124 171 171 83 q 76 378 76 258 q 124 583 76 496 q 253 717 171 671 q 443 764 336 764 q 633 717 553 764 q 753 595 713 671 q 794 433 794 519 q 788 360 794 399 l 139 360 q 183 183 140 254 q 292 77 225 111 q 440 43 360 43 m 443 713 q 293 678 361 713 q 183 572 225 643 q 139 397 140 501 l 733 397 q 699 573 739 501 q 590 678 658 644 q 443 713 522 713 m 450 867 l 450 817 l 178 992 l 178 1049 l 450 867 z "},"é":{"ha":871,"x_min":76,"x_max":794,"o":"m 440 43 q 632 101 554 43 q 726 258 710 158 l 792 258 q 678 64 771 138 q 443 -10 586 -10 q 253 37 336 -10 q 124 171 171 83 q 76 378 76 258 q 124 583 76 496 q 253 717 171 671 q 443 764 336 764 q 633 717 553 764 q 753 595 713 671 q 794 433 794 519 q 788 360 794 399 l 139 360 q 183 183 140 254 q 292 77 225 111 q 440 43 360 43 m 443 713 q 293 678 361 713 q 183 572 225 643 q 139 397 140 501 l 733 397 q 699 573 739 501 q 590 678 658 644 q 443 713 522 713 m 681 992 l 408 817 l 408 867 l 681 1049 l 681 992 z "},"ê":{"ha":871,"x_min":76,"x_max":794,"o":"m 440 43 q 632 101 554 43 q 726 258 710 158 l 792 258 q 678 64 771 138 q 443 -10 586 -10 q 253 37 336 -10 q 124 171 171 83 q 76 378 76 258 q 124 583 76 496 q 253 717 171 671 q 443 764 336 764 q 633 717 553 764 q 753 595 713 671 q 794 433 794 519 q 788 360 794 399 l 139 360 q 183 183 140 254 q 292 77 225 111 q 440 43 360 43 m 443 713 q 293 678 361 713 q 183 572 225 643 q 139 397 140 501 l 733 397 q 699 573 739 501 q 590 678 658 644 q 443 713 522 713 m 438 969 l 257 857 l 257 906 l 438 1019 l 615 906 l 615 857 l 438 969 z "},"ë":{"ha":871,"x_min":76,"x_max":794,"o":"m 440 43 q 632 101 554 43 q 726 258 710 158 l 792 258 q 678 64 771 138 q 443 -10 586 -10 q 253 37 336 -10 q 124 171 171 83 q 76 378 76 258 q 124 583 76 496 q 253 717 171 671 q 443 764 336 764 q 633 717 553 764 q 753 595 713 671 q 794 433 794 519 q 788 360 794 399 l 139 360 q 183 183 140 254 q 292 77 225 111 q 440 43 360 43 m 443 713 q 293 678 361 713 q 183 572 225 643 q 139 397 140 501 l 733 397 q 699 573 739 501 q 590 678 658 644 q 443 713 522 713 m 283 921 q 298 957 283 942 q 335 972 313 972 q 372 957 357 972 q 386 921 386 942 q 372 885 386 900 q 335 869 357 869 q 298 885 313 869 q 283 921 283 900 m 486 921 q 501 957 486 942 q 538 972 515 972 q 573 957 558 972 q 588 921 588 942 q 573 885 588 900 q 538 869 558 869 q 501 885 515 869 q 486 921 486 900 z "},"ì":{"ha":296,"x_min":-110,"x_max":179,"o":"m 179 754 l 179 0 l 117 0 l 117 754 l 179 754 m 163 867 l 163 817 l -110 992 l -110 1049 l 163 867 z "},"í":{"ha":296,"x_min":117,"x_max":393,"o":"m 179 754 l 179 0 l 117 0 l 117 754 l 179 754 m 393 992 l 121 817 l 121 867 l 393 1049 l 393 992 z "},"î":{"ha":296,"x_min":-31,"x_max":328,"o":"m 179 754 l 179 0 l 117 0 l 117 754 l 179 754 m 150 969 l -31 857 l -31 906 l 150 1019 l 328 906 l 328 857 l 150 969 z "},"ï":{"ha":296,"x_min":-4,"x_max":300,"o":"m 179 754 l 179 0 l 117 0 l 117 754 l 179 754 m -4 921 q 10 957 -4 942 q 47 972 25 972 q 84 957 69 972 q 99 921 99 942 q 84 885 99 900 q 47 869 69 869 q 10 885 25 869 q -4 921 -4 900 m 199 921 q 213 957 199 942 q 250 972 228 972 q 285 957 271 972 q 300 921 300 942 q 285 885 300 900 q 250 869 271 869 q 213 885 228 869 q 199 921 199 900 z "},"ð":{"ha":896,"x_min":76,"x_max":819,"o":"m 601 935 q 766 699 713 824 q 819 428 819 575 q 773 187 819 285 q 643 40 726 89 q 450 -10 560 -10 q 253 42 338 -10 q 122 185 168 93 q 76 397 76 276 q 122 592 76 508 q 251 723 168 676 q 444 769 335 769 q 641 708 556 769 q 760 524 726 646 q 695 735 742 642 q 558 919 649 828 l 353 846 l 353 881 l 532 944 q 435 1028 482 989 l 494 1028 q 575 960 522 1007 l 769 1028 l 769 994 l 601 935 m 450 46 q 606 85 536 46 q 715 199 675 124 q 756 378 756 275 q 715 559 756 483 q 603 674 674 635 q 449 714 533 714 q 290 677 360 714 q 181 569 221 640 q 140 397 140 497 q 180 208 140 288 q 290 88 219 129 q 450 46 360 46 z "},"ñ":{"ha":867,"x_min":113,"x_max":763,"o":"m 463 769 q 679 686 596 769 q 763 440 763 603 l 763 0 l 700 0 l 700 438 q 632 645 700 574 q 446 717 564 717 q 249 637 324 717 q 175 401 175 557 l 175 0 l 113 0 l 113 754 l 175 754 l 175 556 q 281 715 203 661 q 463 769 360 769 m 358 951 q 401 942 383 951 q 442 915 419 933 q 478 890 463 899 q 514 882 493 882 q 554 899 538 882 q 575 947 571 915 l 617 947 q 583 869 611 899 q 513 839 554 839 q 469 848 488 839 q 424 876 450 857 q 388 899 401 892 q 357 907 375 907 q 297 840 307 907 l 257 840 q 290 922 264 893 q 358 951 317 951 z "},"ò":{"ha":897,"x_min":76,"x_max":821,"o":"m 449 764 q 640 717 556 764 q 773 583 725 671 q 821 378 821 496 q 773 171 821 258 q 640 37 725 83 q 449 -10 556 -10 q 258 37 343 -10 q 125 172 174 83 q 76 378 76 260 q 125 583 76 496 q 258 717 174 671 q 449 764 343 764 m 449 708 q 297 672 367 708 q 183 562 226 636 q 140 378 140 488 q 183 193 140 268 q 297 82 226 118 q 449 46 367 46 q 601 82 531 46 q 714 193 671 118 q 757 378 757 268 q 715 562 757 488 q 602 672 672 636 q 449 708 532 708 m 463 867 l 463 817 l 190 992 l 190 1049 l 463 867 z "},"ó":{"ha":897,"x_min":76,"x_max":821,"o":"m 449 764 q 640 717 556 764 q 773 583 725 671 q 821 378 821 496 q 773 171 821 258 q 640 37 725 83 q 449 -10 556 -10 q 258 37 343 -10 q 125 172 174 83 q 76 378 76 260 q 125 583 76 496 q 258 717 174 671 q 449 764 343 764 m 449 708 q 297 672 367 708 q 183 562 226 636 q 140 378 140 488 q 183 193 140 268 q 297 82 226 118 q 449 46 367 46 q 601 82 531 46 q 714 193 671 118 q 757 378 757 268 q 715 562 757 488 q 602 672 672 636 q 449 708 532 708 m 693 992 l 421 817 l 421 867 l 693 1049 l 693 992 z "},"ô":{"ha":897,"x_min":76,"x_max":821,"o":"m 449 764 q 640 717 556 764 q 773 583 725 671 q 821 378 821 496 q 773 171 821 258 q 640 37 725 83 q 449 -10 556 -10 q 258 37 343 -10 q 125 172 174 83 q 76 378 76 260 q 125 583 76 496 q 258 717 174 671 q 449 764 343 764 m 449 708 q 297 672 367 708 q 183 562 226 636 q 140 378 140 488 q 183 193 140 268 q 297 82 226 118 q 449 46 367 46 q 601 82 531 46 q 714 193 671 118 q 757 378 757 268 q 715 562 757 488 q 602 672 672 636 q 449 708 532 708 m 450 969 l 269 857 l 269 906 l 450 1019 l 628 906 l 628 857 l 450 969 z "},"õ":{"ha":897,"x_min":76,"x_max":821,"o":"m 449 764 q 640 717 556 764 q 773 583 725 671 q 821 378 821 496 q 773 171 821 258 q 640 37 725 83 q 449 -10 556 -10 q 258 37 343 -10 q 125 172 174 83 q 76 378 76 260 q 125 583 76 496 q 258 717 174 671 q 449 764 343 764 m 449 708 q 297 672 367 708 q 183 562 226 636 q 140 378 140 488 q 183 193 140 268 q 297 82 226 118 q 449 46 367 46 q 601 82 531 46 q 714 193 671 118 q 757 378 757 268 q 715 562 757 488 q 602 672 672 636 q 449 708 532 708 m 369 951 q 413 942 394 951 q 453 915 431 933 q 489 890 474 899 q 525 882 504 882 q 565 899 549 882 q 586 947 582 915 l 628 947 q 594 869 622 899 q 524 839 565 839 q 480 848 499 839 q 435 876 461 857 q 399 899 413 892 q 368 907 386 907 q 308 840 318 907 l 268 840 q 301 922 275 893 q 369 951 328 951 z "},"ö":{"ha":897,"x_min":76,"x_max":821,"o":"m 449 764 q 640 717 556 764 q 773 583 725 671 q 821 378 821 496 q 773 171 821 258 q 640 37 725 83 q 449 -10 556 -10 q 258 37 343 -10 q 125 172 174 83 q 76 378 76 260 q 125 583 76 496 q 258 717 174 671 q 449 764 343 764 m 449 708 q 297 672 367 708 q 183 562 226 636 q 140 378 140 488 q 183 193 140 268 q 297 82 226 118 q 449 46 367 46 q 601 82 531 46 q 714 193 671 118 q 757 378 757 268 q 715 562 757 488 q 602 672 672 636 q 449 708 532 708 m 296 921 q 310 957 296 942 q 347 972 325 972 q 384 957 369 972 q 399 921 399 942 q 384 885 399 900 q 347 869 369 869 q 310 885 325 869 q 296 921 296 900 m 499 921 q 513 957 499 942 q 550 972 528 972 q 585 957 571 972 q 600 921 600 942 q 585 885 600 900 q 550 869 571 869 q 513 885 528 869 q 499 921 499 900 z "},"÷":{"ha":811,"x_min":53,"x_max":760,"o":"m 456 869 l 456 774 l 357 774 l 357 869 l 456 869 m 760 550 l 760 493 l 53 493 l 53 550 l 760 550 m 456 272 l 456 176 l 357 176 l 357 272 l 456 272 z "},"ø":{"ha":894,"x_min":75,"x_max":819,"o":"m 722 653 q 819 378 819 547 q 772 171 819 258 q 639 37 724 83 q 447 -10 554 -10 q 311 13 375 -10 q 199 76 247 35 l 129 0 l 83 0 l 175 100 q 101 222 126 151 q 75 378 75 292 q 124 583 75 496 q 257 717 172 671 q 447 764 342 764 q 585 741 521 764 q 699 675 650 718 l 769 754 l 814 754 l 722 653 m 139 378 q 215 146 139 233 l 658 632 q 562 689 617 669 q 447 708 507 708 q 295 672 365 708 q 182 562 225 636 q 139 378 139 488 m 447 46 q 599 82 529 46 q 713 193 669 118 q 756 378 756 268 q 681 608 756 519 l 239 121 q 334 65 281 83 q 447 46 388 46 z "},"ù":{"ha":849,"x_min":88,"x_max":738,"o":"m 738 754 l 738 0 l 674 0 l 674 197 q 567 39 646 93 q 386 -15 489 -15 q 171 68 254 -15 q 88 315 88 151 l 88 754 l 149 754 l 149 317 q 217 110 149 182 q 403 39 285 39 q 600 119 526 39 q 674 354 674 199 l 674 754 l 738 754 m 426 867 l 426 817 l 154 992 l 154 1049 l 426 867 z "},"ú":{"ha":849,"x_min":88,"x_max":738,"o":"m 738 754 l 738 0 l 674 0 l 674 197 q 567 39 646 93 q 386 -15 489 -15 q 171 68 254 -15 q 88 315 88 151 l 88 754 l 149 754 l 149 317 q 217 110 149 182 q 403 39 285 39 q 600 119 526 39 q 674 354 674 199 l 674 754 l 738 754 m 657 992 l 385 817 l 385 867 l 657 1049 l 657 992 z "},"û":{"ha":849,"x_min":88,"x_max":738,"o":"m 738 754 l 738 0 l 674 0 l 674 197 q 567 39 646 93 q 386 -15 489 -15 q 171 68 254 -15 q 88 315 88 151 l 88 754 l 149 754 l 149 317 q 217 110 149 182 q 403 39 285 39 q 600 119 526 39 q 674 354 674 199 l 674 754 l 738 754 m 414 969 l 233 857 l 233 906 l 414 1019 l 592 906 l 592 857 l 414 969 z "},"ü":{"ha":849,"x_min":88,"x_max":738,"o":"m 738 754 l 738 0 l 674 0 l 674 197 q 567 39 646 93 q 386 -15 489 -15 q 171 68 254 -15 q 88 315 88 151 l 88 754 l 149 754 l 149 317 q 217 110 149 182 q 403 39 285 39 q 600 119 526 39 q 674 354 674 199 l 674 754 l 738 754 m 260 921 q 274 957 260 942 q 311 972 289 972 q 348 957 333 972 q 363 921 363 942 q 348 885 363 900 q 311 869 333 869 q 274 885 289 869 q 260 921 260 900 m 463 921 q 477 957 463 942 q 514 972 492 972 q 549 957 535 972 q 564 921 564 942 q 549 885 564 900 q 514 869 535 869 q 477 885 492 869 q 463 921 463 900 z "},"ý":{"ha":729,"x_min":22,"x_max":707,"o":"m 92 754 l 375 83 l 638 754 l 707 754 l 269 -356 l 197 -356 l 342 4 l 22 754 l 92 754 m 610 992 l 338 817 l 338 867 l 610 1049 l 610 992 z "},"þ":{"ha":933,"x_min":113,"x_max":857,"o":"m 494 764 q 682 717 600 764 q 810 581 764 669 q 857 376 857 493 q 810 172 857 260 q 682 38 764 85 q 494 -10 600 -10 q 289 53 374 -10 q 174 222 204 117 l 174 -356 l 113 -356 l 113 1028 l 174 1028 l 174 535 q 289 701 204 638 q 494 764 374 764 m 485 708 q 325 667 396 708 q 214 551 254 626 q 174 378 174 476 q 214 203 174 278 q 325 87 254 128 q 485 46 396 46 q 710 134 625 46 q 794 376 794 222 q 756 554 794 479 q 647 669 717 629 q 485 708 576 708 z "},"ÿ":{"ha":729,"x_min":22,"x_max":707,"o":"m 92 754 l 375 83 l 638 754 l 707 754 l 269 -356 l 197 -356 l 342 4 l 22 754 l 92 754 m 213 921 q 227 957 213 942 q 264 972 242 972 q 301 957 286 972 q 315 921 315 942 q 301 885 315 900 q 264 869 286 869 q 227 885 242 869 q 213 921 213 900 m 415 921 q 430 957 415 942 q 467 972 444 972 q 502 957 488 972 q 517 921 517 942 q 502 885 517 900 q 467 869 488 869 q 430 885 444 869 q 415 921 415 900 z "},"Ā":{"ha":865,"x_min":36,"x_max":828,"o":"m 665 254 l 201 254 l 106 0 l 36 0 l 399 953 l 468 953 l 828 0 l 760 0 l 665 254 m 646 306 l 433 876 l 219 306 l 646 306 m 658 1182 l 658 1133 l 207 1133 l 207 1182 l 658 1182 z "},"ā":{"ha":933,"x_min":76,"x_max":822,"o":"m 436 764 q 644 699 560 764 q 760 529 729 635 l 760 754 l 822 754 l 822 0 l 760 0 l 760 225 q 644 55 729 119 q 436 -10 560 -10 q 249 37 331 -10 q 122 172 168 83 q 76 378 76 260 q 122 583 76 496 q 249 717 168 671 q 436 764 331 764 m 450 708 q 224 619 308 708 q 140 378 140 531 q 224 135 140 224 q 450 46 307 46 q 610 87 539 46 q 720 203 681 128 q 760 378 760 279 q 720 551 760 476 q 610 667 681 626 q 450 708 539 708 m 675 957 l 675 908 l 224 908 l 224 957 l 675 957 z "},"Ă":{"ha":865,"x_min":36,"x_max":828,"o":"m 665 254 l 201 254 l 106 0 l 36 0 l 399 953 l 468 953 l 828 0 l 760 0 l 665 254 m 646 306 l 433 876 l 219 306 l 646 306 m 432 1078 q 301 1125 347 1078 q 256 1239 256 1172 l 256 1247 l 299 1247 q 333 1159 299 1190 q 432 1128 368 1128 q 531 1159 496 1128 q 565 1247 565 1190 l 608 1247 l 608 1239 q 563 1125 608 1172 q 432 1078 518 1078 z "},"ă":{"ha":933,"x_min":76,"x_max":822,"o":"m 436 764 q 644 699 560 764 q 760 529 729 635 l 760 754 l 822 754 l 822 0 l 760 0 l 760 225 q 644 55 729 119 q 436 -10 560 -10 q 249 37 331 -10 q 122 172 168 83 q 76 378 76 260 q 122 583 76 496 q 249 717 168 671 q 436 764 331 764 m 450 708 q 224 619 308 708 q 140 378 140 531 q 224 135 140 224 q 450 46 307 46 q 610 87 539 46 q 720 203 681 128 q 760 378 760 279 q 720 551 760 476 q 610 667 681 626 q 450 708 539 708 m 449 853 q 318 900 364 853 q 272 1014 272 947 l 272 1022 l 315 1022 q 350 934 315 965 q 449 903 385 903 q 547 934 513 903 q 582 1022 582 965 l 625 1022 l 625 1014 q 580 900 625 947 q 449 853 535 853 z "},"Ą":{"ha":865,"x_min":36,"x_max":883,"o":"m 883 -225 l 883 -269 l 772 -269 q 650 -232 694 -269 q 606 -132 606 -194 q 644 -41 606 -76 q 760 1 682 -6 l 665 254 l 201 254 l 106 0 l 36 0 l 399 953 l 468 953 l 828 3 l 828 -37 l 776 -37 q 688 -62 719 -37 q 656 -131 656 -87 q 688 -200 656 -175 q 776 -225 719 -225 l 883 -225 m 646 306 l 433 872 l 221 306 l 646 306 z "},"ą":{"ha":933,"x_min":76,"x_max":878,"o":"m 436 764 q 644 699 560 764 q 760 529 729 635 l 760 754 l 822 754 l 822 0 l 760 0 l 760 225 q 644 55 729 119 q 436 -10 560 -10 q 249 37 331 -10 q 122 172 168 83 q 76 378 76 260 q 122 583 76 496 q 249 717 168 671 q 436 764 331 764 m 450 708 q 224 619 308 708 q 140 378 140 531 q 224 135 140 224 q 450 46 307 46 q 610 87 539 46 q 720 203 681 128 q 760 378 760 279 q 720 551 760 476 q 610 667 681 626 q 450 708 539 708 m 821 7 l 821 -35 l 769 -35 q 682 -60 714 -35 q 650 -129 650 -86 q 682 -198 650 -172 q 769 -224 714 -224 l 878 -224 l 878 -267 l 765 -267 q 644 -229 689 -267 q 600 -131 600 -192 q 644 -31 600 -69 q 763 7 688 7 l 821 7 z "},"Ć":{"ha":1065,"x_min":78,"x_max":988,"o":"m 538 989 q 824 906 710 989 q 988 679 938 824 l 922 679 q 782 862 881 793 q 538 931 683 931 q 337 877 426 931 q 195 724 247 824 q 143 489 143 624 q 195 256 143 356 q 337 102 247 156 q 538 49 426 49 q 782 117 683 49 q 922 299 881 186 l 988 299 q 824 72 938 154 q 538 -10 710 -10 q 299 53 404 -10 q 136 231 194 117 q 78 489 78 344 q 136 747 78 633 q 299 925 194 861 q 538 989 404 989 m 778 1217 l 506 1042 l 506 1092 l 778 1274 l 778 1217 z "},"ć":{"ha":869,"x_min":76,"x_max":793,"o":"m 443 764 q 679 690 586 764 q 793 493 772 615 l 728 493 q 633 651 711 593 q 442 710 556 710 q 292 674 360 710 q 182 563 224 638 q 140 378 140 488 q 182 193 140 268 q 292 82 224 118 q 442 46 360 46 q 633 104 556 46 q 728 263 711 163 l 793 263 q 679 65 772 139 q 443 -10 586 -10 q 253 37 336 -10 q 124 171 171 83 q 76 378 76 258 q 124 583 76 496 q 253 717 171 671 q 443 764 336 764 m 681 992 l 408 817 l 408 867 l 681 1049 l 681 992 z "},"Ċ":{"ha":1065,"x_min":78,"x_max":988,"o":"m 538 989 q 824 906 710 989 q 988 679 938 824 l 922 679 q 782 862 881 793 q 538 931 683 931 q 337 877 426 931 q 195 724 247 824 q 143 489 143 624 q 195 256 143 356 q 337 102 247 156 q 538 49 426 49 q 782 117 683 49 q 922 299 881 186 l 988 299 q 824 72 938 154 q 538 -10 710 -10 q 299 53 404 -10 q 136 231 194 117 q 78 489 78 344 q 136 747 78 633 q 299 925 194 861 q 538 989 404 989 m 481 1146 q 496 1182 481 1167 q 532 1197 511 1197 q 569 1182 554 1197 q 583 1146 583 1167 q 569 1110 583 1125 q 532 1094 554 1094 q 496 1110 511 1094 q 481 1146 481 1125 z "},"ċ":{"ha":869,"x_min":76,"x_max":793,"o":"m 443 764 q 679 690 586 764 q 793 493 772 615 l 728 493 q 633 651 711 593 q 442 710 556 710 q 292 674 360 710 q 182 563 224 638 q 140 378 140 488 q 182 193 140 268 q 292 82 224 118 q 442 46 360 46 q 633 104 556 46 q 728 263 711 163 l 793 263 q 679 65 772 139 q 443 -10 586 -10 q 253 37 336 -10 q 124 171 171 83 q 76 378 76 258 q 124 583 76 496 q 253 717 171 671 q 443 764 336 764 m 382 921 q 397 957 382 942 q 433 972 413 972 q 470 957 456 972 q 485 921 485 942 q 470 885 485 900 q 433 869 456 869 q 397 885 413 869 q 382 921 382 900 z "},"Č":{"ha":1065,"x_min":78,"x_max":988,"o":"m 538 989 q 824 906 710 989 q 988 679 938 824 l 922 679 q 782 862 881 793 q 538 931 683 931 q 337 877 426 931 q 195 724 247 824 q 143 489 143 624 q 195 256 143 356 q 337 102 247 156 q 538 49 426 49 q 782 117 683 49 q 922 299 881 186 l 988 299 q 824 72 938 154 q 538 -10 710 -10 q 299 53 404 -10 q 136 231 194 117 q 78 489 78 344 q 136 747 78 633 q 299 925 194 861 q 538 989 404 989 m 713 1190 l 535 1078 l 354 1190 l 354 1240 l 535 1126 l 713 1240 l 713 1190 z "},"č":{"ha":869,"x_min":76,"x_max":793,"o":"m 443 764 q 679 690 586 764 q 793 493 772 615 l 728 493 q 633 651 711 593 q 442 710 556 710 q 292 674 360 710 q 182 563 224 638 q 140 378 140 488 q 182 193 140 268 q 292 82 224 118 q 442 46 360 46 q 633 104 556 46 q 728 263 711 163 l 793 263 q 679 65 772 139 q 443 -10 586 -10 q 253 37 336 -10 q 124 171 171 83 q 76 378 76 258 q 124 583 76 496 q 253 717 171 671 q 443 764 336 764 m 614 965 l 436 853 l 256 965 l 256 1015 l 436 901 l 614 1015 l 614 965 z "},"Ď":{"ha":982,"x_min":113,"x_max":904,"o":"m 904 490 q 771 129 904 258 q 388 0 638 0 l 113 0 l 113 979 l 388 979 q 771 850 638 979 q 904 490 904 721 m 385 57 q 725 171 610 57 q 840 490 840 285 q 724 810 840 696 q 385 924 608 924 l 175 924 l 175 57 l 385 57 m 688 1190 l 510 1078 l 329 1190 l 329 1240 l 510 1126 l 688 1240 l 688 1190 z "},"ď":{"ha":968,"x_min":76,"x_max":1004,"o":"m 436 764 q 644 699 560 764 q 760 529 729 635 l 760 1028 l 822 1028 l 822 0 l 760 0 l 760 225 q 644 55 729 119 q 436 -10 560 -10 q 249 37 331 -10 q 122 172 168 83 q 76 378 76 260 q 122 583 76 496 q 249 717 168 671 q 436 764 331 764 m 996 1028 q 1004 921 1004 964 q 976 825 1004 854 q 894 796 949 796 l 894 833 q 944 850 929 833 q 958 901 958 867 l 958 938 l 900 938 l 900 1028 l 996 1028 m 450 708 q 224 619 308 708 q 140 378 140 531 q 224 135 140 224 q 450 46 307 46 q 610 87 539 46 q 720 203 681 128 q 760 378 760 279 q 720 551 760 476 q 610 667 681 626 q 450 708 539 708 z "},"Đ":{"ha":1031,"x_min":13,"x_max":953,"o":"m 436 979 q 819 850 686 979 q 953 490 953 721 q 819 129 953 258 q 436 0 686 0 l 161 0 l 161 464 l 13 464 l 13 515 l 161 515 l 161 979 l 436 979 m 433 57 q 774 171 658 57 q 889 490 889 285 q 773 810 889 696 q 433 924 657 924 l 224 924 l 224 515 l 529 515 l 529 464 l 224 464 l 224 57 l 433 57 z "},"đ":{"ha":929,"x_min":76,"x_max":915,"o":"m 915 893 l 822 893 l 822 0 l 760 0 l 760 225 q 644 55 729 119 q 436 -10 560 -10 q 249 37 331 -10 q 122 172 168 83 q 76 378 76 260 q 122 583 76 496 q 249 717 168 671 q 436 764 331 764 q 644 699 560 764 q 760 529 729 635 l 760 893 l 500 893 l 500 932 l 760 932 l 760 1028 l 822 1028 l 822 932 l 915 932 l 915 893 m 450 46 q 610 87 539 46 q 720 203 681 128 q 760 378 760 279 q 720 551 760 476 q 610 667 681 626 q 450 708 539 708 q 224 619 308 708 q 140 378 140 531 q 224 135 140 224 q 450 46 307 46 z "},"Ē":{"ha":679,"x_min":113,"x_max":613,"o":"m 175 926 l 175 515 l 571 515 l 571 465 l 175 465 l 175 53 l 613 53 l 613 0 l 113 0 l 113 979 l 613 979 l 613 926 l 175 926 m 589 1182 l 589 1133 l 138 1133 l 138 1182 l 589 1182 z "},"ē":{"ha":871,"x_min":76,"x_max":794,"o":"m 440 43 q 632 101 554 43 q 726 258 710 158 l 792 258 q 678 64 771 138 q 443 -10 586 -10 q 253 37 336 -10 q 124 171 171 83 q 76 378 76 258 q 124 583 76 496 q 253 717 171 671 q 443 764 336 764 q 633 717 553 764 q 753 595 713 671 q 794 433 794 519 q 788 360 794 399 l 139 360 q 183 183 140 254 q 292 77 225 111 q 440 43 360 43 m 443 713 q 293 678 361 713 q 183 572 225 643 q 139 397 140 501 l 733 397 q 699 573 739 501 q 590 678 658 644 q 443 713 522 713 m 661 957 l 661 908 l 210 908 l 210 957 l 661 957 z "},"Ĕ":{"ha":679,"x_min":113,"x_max":613,"o":"m 175 926 l 175 515 l 571 515 l 571 465 l 175 465 l 175 53 l 613 53 l 613 0 l 113 0 l 113 979 l 613 979 l 613 926 l 175 926 m 363 1078 q 232 1125 278 1078 q 186 1239 186 1172 l 186 1247 l 229 1247 q 264 1159 229 1190 q 363 1128 299 1128 q 461 1159 426 1128 q 496 1247 496 1190 l 539 1247 l 539 1239 q 494 1125 539 1172 q 363 1078 449 1078 z "},"ĕ":{"ha":871,"x_min":76,"x_max":794,"o":"m 440 43 q 632 101 554 43 q 726 258 710 158 l 792 258 q 678 64 771 138 q 443 -10 586 -10 q 253 37 336 -10 q 124 171 171 83 q 76 378 76 258 q 124 583 76 496 q 253 717 171 671 q 443 764 336 764 q 633 717 553 764 q 753 595 713 671 q 794 433 794 519 q 788 360 794 399 l 139 360 q 183 183 140 254 q 292 77 225 111 q 440 43 360 43 m 443 713 q 293 678 361 713 q 183 572 225 643 q 139 397 140 501 l 733 397 q 699 573 739 501 q 590 678 658 644 q 443 713 522 713 m 435 853 q 304 900 350 853 q 258 1014 258 947 l 258 1022 l 301 1022 q 336 934 301 965 q 435 903 371 903 q 533 934 499 903 q 568 1022 568 965 l 611 1022 l 611 1014 q 566 900 611 947 q 435 853 521 853 z "},"Ė":{"ha":679,"x_min":113,"x_max":613,"o":"m 175 926 l 175 515 l 571 515 l 571 465 l 175 465 l 175 53 l 613 53 l 613 0 l 113 0 l 113 979 l 613 979 l 613 926 l 175 926 m 310 1146 q 325 1182 310 1167 q 361 1197 340 1197 q 398 1182 383 1197 q 413 1146 413 1167 q 398 1110 413 1125 q 361 1094 383 1094 q 325 1110 340 1094 q 310 1146 310 1125 z "},"ė":{"ha":871,"x_min":76,"x_max":794,"o":"m 440 43 q 632 101 554 43 q 726 258 710 158 l 792 258 q 678 64 771 138 q 443 -10 586 -10 q 253 37 336 -10 q 124 171 171 83 q 76 378 76 258 q 124 583 76 496 q 253 717 171 671 q 443 764 336 764 q 633 717 553 764 q 753 595 713 671 q 794 433 794 519 q 788 360 794 399 l 139 360 q 183 183 140 254 q 292 77 225 111 q 440 43 360 43 m 443 713 q 293 678 361 713 q 183 572 225 643 q 139 397 140 501 l 733 397 q 699 573 739 501 q 590 678 658 644 q 443 713 522 713 m 383 921 q 399 957 383 942 q 435 972 414 972 q 472 957 457 972 q 486 921 486 942 q 472 885 486 900 q 435 869 457 869 q 399 885 414 869 q 383 921 383 900 z "},"Ę":{"ha":679,"x_min":113,"x_max":661,"o":"m 175 926 l 175 515 l 571 515 l 571 465 l 175 465 l 175 53 l 613 53 l 613 0 l 113 0 l 113 979 l 613 979 l 613 926 l 175 926 m 604 21 l 604 -21 l 553 -21 q 465 -47 497 -21 q 433 -115 433 -72 q 465 -184 433 -158 q 553 -210 497 -210 l 661 -210 l 661 -253 l 549 -253 q 428 -215 472 -253 q 383 -117 383 -178 q 427 -17 383 -56 q 546 21 471 21 l 604 21 z "},"ę":{"ha":871,"x_min":76,"x_max":794,"o":"m 440 43 q 632 101 554 43 q 726 258 710 158 l 792 258 q 697 80 775 151 q 500 -6 619 8 q 467 -42 467 -10 q 500 -101 467 -78 q 589 -124 533 -124 l 693 -124 l 693 -168 l 583 -168 q 462 -131 506 -168 q 418 -32 418 -93 l 418 -8 q 241 45 318 -3 q 120 178 164 93 q 76 378 76 264 q 124 583 76 496 q 253 717 171 671 q 443 764 336 764 q 633 717 553 764 q 753 595 713 671 q 794 433 794 519 q 788 360 794 399 l 139 360 q 183 183 140 254 q 293 77 225 111 q 440 43 361 43 m 443 713 q 293 678 361 713 q 183 572 225 643 q 139 397 140 501 l 733 397 q 699 573 739 501 q 590 678 658 644 q 443 713 522 713 z "},"Ě":{"ha":679,"x_min":113,"x_max":613,"o":"m 175 926 l 175 515 l 571 515 l 571 465 l 175 465 l 175 53 l 613 53 l 613 0 l 113 0 l 113 979 l 613 979 l 613 926 l 175 926 m 542 1190 l 364 1078 l 183 1190 l 183 1240 l 364 1126 l 542 1240 l 542 1190 z "},"ě":{"ha":871,"x_min":76,"x_max":794,"o":"m 440 43 q 632 101 554 43 q 726 258 710 158 l 792 258 q 678 64 771 138 q 443 -10 586 -10 q 253 37 336 -10 q 124 171 171 83 q 76 378 76 258 q 124 583 76 496 q 253 717 171 671 q 443 764 336 764 q 633 717 553 764 q 753 595 713 671 q 794 433 794 519 q 788 360 794 399 l 139 360 q 183 183 140 254 q 292 77 225 111 q 440 43 360 43 m 443 713 q 293 678 361 713 q 183 572 225 643 q 139 397 140 501 l 733 397 q 699 573 739 501 q 590 678 658 644 q 443 713 522 713 m 615 965 l 438 853 l 257 965 l 257 1015 l 438 901 l 615 1015 l 615 965 z "},"Ğ":{"ha":1093,"x_min":78,"x_max":1015,"o":"m 549 988 q 825 905 711 988 q 986 682 939 822 l 921 682 q 782 861 879 793 q 549 929 685 929 q 342 876 435 929 q 197 722 250 822 q 143 489 143 622 q 197 253 143 353 q 344 99 250 153 q 553 46 438 46 q 753 96 663 46 q 899 239 844 146 q 960 458 954 332 l 526 458 l 526 507 l 1015 507 l 1015 460 q 951 217 1011 325 q 787 49 892 110 q 549 -11 682 -11 q 305 53 413 -11 q 138 231 197 117 q 78 489 78 344 q 138 747 78 633 q 305 924 197 861 q 549 988 413 988 m 547 1078 q 417 1125 463 1078 q 371 1239 371 1172 l 371 1247 l 414 1247 q 449 1159 414 1190 q 547 1128 483 1128 q 646 1159 611 1128 q 681 1247 681 1190 l 724 1247 l 724 1239 q 678 1125 724 1172 q 547 1078 633 1078 z "},"ğ":{"ha":933,"x_min":76,"x_max":822,"o":"m 436 764 q 644 699 560 764 q 760 529 729 635 l 760 754 l 822 754 l 822 -22 q 777 -206 822 -126 q 653 -327 732 -285 q 481 -369 575 -369 q 247 -301 339 -369 q 124 -114 154 -232 l 185 -114 q 288 -260 213 -206 q 478 -314 363 -314 q 622 -278 557 -314 q 723 -177 686 -243 q 760 -22 760 -111 l 760 225 q 644 55 729 119 q 436 -10 560 -10 q 249 37 331 -10 q 122 172 168 83 q 76 378 76 260 q 122 583 76 496 q 249 717 168 671 q 436 764 331 764 m 450 708 q 224 619 308 708 q 140 378 140 531 q 224 135 140 224 q 450 46 307 46 q 610 87 539 46 q 720 203 681 128 q 760 378 760 279 q 720 551 760 476 q 610 667 681 626 q 450 708 539 708 m 449 853 q 318 900 364 853 q 272 1014 272 947 l 272 1022 l 315 1022 q 350 934 315 965 q 449 903 385 903 q 547 934 513 903 q 582 1022 582 965 l 625 1022 l 625 1014 q 580 900 625 947 q 449 853 535 853 z "},"Ġ":{"ha":1093,"x_min":78,"x_max":1015,"o":"m 549 988 q 825 905 711 988 q 986 682 939 822 l 921 682 q 782 861 879 793 q 549 929 685 929 q 342 876 435 929 q 197 722 250 822 q 143 489 143 622 q 197 253 143 353 q 344 99 250 153 q 553 46 438 46 q 753 96 663 46 q 899 239 844 146 q 960 458 954 332 l 526 458 l 526 507 l 1015 507 l 1015 460 q 951 217 1011 325 q 787 49 892 110 q 549 -11 682 -11 q 305 53 413 -11 q 138 231 197 117 q 78 489 78 344 q 138 747 78 633 q 305 924 197 861 q 549 988 413 988 m 494 1146 q 510 1182 494 1167 q 546 1197 525 1197 q 583 1182 568 1197 q 597 1146 597 1167 q 583 1110 597 1125 q 546 1094 568 1094 q 510 1110 525 1094 q 494 1146 494 1125 z "},"ġ":{"ha":933,"x_min":76,"x_max":822,"o":"m 436 764 q 644 699 560 764 q 760 529 729 635 l 760 754 l 822 754 l 822 -22 q 777 -206 822 -126 q 653 -327 732 -285 q 481 -369 575 -369 q 247 -301 339 -369 q 124 -114 154 -232 l 185 -114 q 288 -260 213 -206 q 478 -314 363 -314 q 622 -278 557 -314 q 723 -177 686 -243 q 760 -22 760 -111 l 760 225 q 644 55 729 119 q 436 -10 560 -10 q 249 37 331 -10 q 122 172 168 83 q 76 378 76 260 q 122 583 76 496 q 249 717 168 671 q 436 764 331 764 m 450 708 q 224 619 308 708 q 140 378 140 531 q 224 135 140 224 q 450 46 307 46 q 610 87 539 46 q 720 203 681 128 q 760 378 760 279 q 720 551 760 476 q 610 667 681 626 q 450 708 539 708 m 397 921 q 413 957 397 942 q 449 972 428 972 q 485 957 471 972 q 500 921 500 942 q 485 885 500 900 q 449 869 471 869 q 413 885 428 869 q 397 921 397 900 z "},"Ģ":{"ha":1094,"x_min":78,"x_max":1015,"o":"m 549 988 q 825 905 711 988 q 986 682 939 822 l 921 682 q 782 861 879 793 q 549 929 685 929 q 342 876 435 929 q 197 722 250 822 q 143 489 143 622 q 197 253 143 353 q 344 99 250 153 q 553 46 438 46 q 753 96 663 46 q 899 239 844 146 q 960 458 954 332 l 526 458 l 526 507 l 1015 507 l 1015 460 q 951 217 1011 325 q 787 49 892 110 q 549 -11 682 -11 q 305 53 413 -11 q 138 231 197 117 q 78 489 78 344 q 138 747 78 633 q 305 924 197 861 q 549 988 413 988 m 599 -78 q 606 -139 606 -110 q 578 -243 606 -212 q 499 -274 550 -274 l 499 -239 q 560 -160 560 -239 l 560 -150 l 510 -150 l 510 -78 l 599 -78 z "},"ģ":{"ha":933,"x_min":76,"x_max":822,"o":"m 407 825 q 397 932 397 885 q 425 1028 397 999 q 507 1057 453 1057 l 507 1019 q 458 1003 472 1019 q 443 951 443 986 l 443 915 l 501 915 l 501 825 l 407 825 m 436 764 q 644 699 560 764 q 760 529 729 635 l 760 754 l 822 754 l 822 -22 q 777 -206 822 -126 q 653 -327 732 -285 q 481 -369 575 -369 q 247 -301 339 -369 q 124 -114 154 -232 l 185 -114 q 288 -260 213 -206 q 478 -314 363 -314 q 622 -278 557 -314 q 723 -177 686 -243 q 760 -22 760 -111 l 760 225 q 644 55 729 119 q 436 -10 560 -10 q 249 37 331 -10 q 122 172 168 83 q 76 378 76 260 q 122 583 76 496 q 249 717 168 671 q 436 764 331 764 m 450 708 q 224 619 308 708 q 140 378 140 531 q 224 135 140 224 q 450 46 307 46 q 610 87 539 46 q 720 203 681 128 q 760 378 760 279 q 720 551 760 476 q 610 667 681 626 q 450 708 539 708 z "},"Ĩ":{"ha":288,"x_min":-36,"x_max":324,"o":"m 175 979 l 175 0 l 113 0 l 113 979 l 175 979 m 65 1176 q 108 1167 90 1176 q 149 1140 126 1158 q 185 1115 169 1124 q 221 1107 200 1107 q 261 1124 244 1107 q 282 1172 278 1140 l 324 1172 q 290 1094 318 1124 q 219 1064 261 1064 q 176 1073 194 1064 q 131 1101 157 1082 q 95 1124 108 1117 q 64 1132 82 1132 q 4 1065 14 1132 l -36 1065 q -3 1147 -29 1118 q 65 1176 24 1176 z "},"ĩ":{"ha":296,"x_min":-32,"x_max":328,"o":"m 179 754 l 179 0 l 117 0 l 117 754 l 179 754 m 69 951 q 113 942 94 951 q 153 915 131 933 q 189 890 174 899 q 225 882 204 882 q 265 899 249 882 q 286 947 282 915 l 328 947 q 294 869 322 899 q 224 839 265 839 q 180 848 199 839 q 135 876 161 857 q 99 899 113 892 q 68 907 86 907 q 8 840 18 907 l -32 840 q 1 922 -25 893 q 69 951 28 951 z "},"Ī":{"ha":288,"x_min":-82,"x_max":369,"o":"m 175 979 l 175 0 l 113 0 l 113 979 l 175 979 m 369 1182 l 369 1133 l -82 1133 l -82 1182 l 369 1182 z "},"ī":{"ha":296,"x_min":-78,"x_max":374,"o":"m 179 754 l 179 0 l 117 0 l 117 754 l 179 754 m 374 957 l 374 908 l -78 908 l -78 957 l 374 957 z "},"Ĭ":{"ha":288,"x_min":-33,"x_max":319,"o":"m 175 979 l 175 0 l 113 0 l 113 979 l 175 979 m 143 1078 q 13 1125 58 1078 q -33 1239 -33 1172 l -33 1247 l 10 1247 q 44 1159 10 1190 q 143 1128 79 1128 q 242 1159 207 1128 q 276 1247 276 1190 l 319 1247 l 319 1239 q 274 1125 319 1172 q 143 1078 229 1078 z "},"ĭ":{"ha":296,"x_min":-29,"x_max":324,"o":"m 179 754 l 179 0 l 117 0 l 117 754 l 179 754 m 147 853 q 17 900 63 853 q -29 1014 -29 947 l -29 1022 l 14 1022 q 49 934 14 965 q 147 903 83 903 q 246 934 211 903 q 281 1022 281 965 l 324 1022 l 324 1014 q 278 900 324 947 q 147 853 233 853 z "},"Į":{"ha":288,"x_min":-46,"x_max":232,"o":"m 175 979 l 175 0 l 113 0 l 113 979 l 175 979 m 175 7 l 175 -35 l 124 -35 q 36 -60 68 -35 q 4 -129 4 -86 q 36 -198 4 -172 q 124 -224 68 -224 l 232 -224 l 232 -267 l 119 -267 q -1 -229 43 -267 q -46 -131 -46 -192 q -2 -31 -46 -69 q 117 7 42 7 l 175 7 z "},"į":{"ha":288,"x_min":-46,"x_max":232,"o":"m 90 982 q 105 1019 90 1004 q 143 1033 119 1033 q 182 1019 167 1033 q 197 982 197 1004 q 182 944 197 958 q 143 929 167 929 q 105 944 119 929 q 90 982 90 958 m 175 754 l 175 0 l 113 0 l 113 754 l 175 754 m 175 7 l 175 -35 l 124 -35 q 36 -60 68 -35 q 4 -129 4 -86 q 36 -198 4 -172 q 124 -224 68 -224 l 232 -224 l 232 -267 l 119 -267 q -1 -229 43 -267 q -46 -131 -46 -192 q -2 -31 -46 -69 q 117 7 42 7 l 175 7 z "},"İ":{"ha":288,"x_min":92,"x_max":194,"o":"m 175 979 l 175 0 l 113 0 l 113 979 l 175 979 m 92 1146 q 107 1182 92 1167 q 143 1197 122 1197 q 180 1182 165 1197 q 194 1146 194 1167 q 180 1110 194 1125 q 143 1094 165 1094 q 107 1110 122 1094 q 92 1146 92 1125 z "},"ı":{"ha":296,"x_min":117,"x_max":179,"o":"m 179 754 l 179 0 l 117 0 l 117 754 l 179 754 z "},"Ķ":{"ha":739,"x_min":113,"x_max":706,"o":"m 226 490 l 706 0 l 626 0 l 175 464 l 175 0 l 113 0 l 113 979 l 175 979 l 175 515 l 626 979 l 706 979 l 226 490 m 408 -78 q 415 -139 415 -110 q 387 -243 415 -212 q 307 -274 358 -274 l 307 -239 q 355 -219 340 -239 q 369 -160 369 -199 l 369 -150 l 319 -150 l 319 -78 l 408 -78 z "},"ķ":{"ha":597,"x_min":113,"x_max":585,"o":"m 585 0 l 501 0 l 175 347 l 175 0 l 113 0 l 113 1028 l 175 1028 l 175 415 l 494 754 l 576 754 l 218 381 l 585 0 m 350 -78 q 357 -139 357 -110 q 328 -243 357 -212 q 249 -274 300 -274 l 249 -239 q 297 -219 282 -239 q 311 -160 311 -199 l 311 -150 l 261 -150 l 261 -78 l 350 -78 z "},"Ĺ":{"ha":568,"x_min":113,"x_max":540,"o":"m 175 51 l 540 51 l 540 0 l 113 0 l 113 979 l 175 979 l 175 51 m 400 1217 l 128 1042 l 128 1092 l 400 1274 l 400 1217 z "},"ĺ":{"ha":288,"x_min":111,"x_max":383,"o":"m 175 1028 l 175 0 l 113 0 l 113 1028 l 175 1028 m 383 1261 l 111 1086 l 111 1136 l 383 1318 l 383 1261 z "},"Ļ":{"ha":569,"x_min":113,"x_max":540,"o":"m 175 51 l 540 51 l 540 0 l 113 0 l 113 979 l 175 979 l 175 51 m 378 -78 q 385 -139 385 -110 q 356 -243 385 -212 q 276 -274 328 -274 l 276 -239 q 339 -160 339 -239 l 339 -150 l 288 -150 l 288 -78 l 378 -78 z "},"ļ":{"ha":288,"x_min":85,"x_max":193,"o":"m 175 1028 l 175 0 l 113 0 l 113 1028 l 175 1028 m 186 -78 q 193 -139 193 -110 q 165 -243 193 -212 q 85 -274 136 -274 l 85 -239 q 147 -160 147 -239 l 147 -150 l 97 -150 l 97 -78 l 186 -78 z "},"Ľ":{"ha":581,"x_min":113,"x_max":540,"o":"m 175 51 l 540 51 l 540 0 l 113 0 l 113 979 l 175 979 l 175 51 m 442 979 q 450 871 450 926 q 422 775 450 804 q 340 746 394 746 l 340 783 q 390 800 375 783 q 404 851 404 817 l 404 889 l 346 889 l 346 979 l 442 979 z "},"ľ":{"ha":321,"x_min":113,"x_max":358,"o":"m 175 1028 l 175 0 l 113 0 l 113 1028 l 175 1028 m 349 1028 q 358 921 358 968 q 330 825 358 854 q 247 796 301 796 l 247 833 q 297 850 282 833 q 313 901 313 867 l 313 938 l 253 938 l 253 1028 l 349 1028 z "},"Ŀ":{"ha":568,"x_min":113,"x_max":540,"o":"m 175 51 l 540 51 l 540 0 l 113 0 l 113 979 l 175 979 l 175 51 m 438 489 q 453 525 438 510 q 489 540 468 540 q 526 525 511 540 q 540 489 540 510 q 526 453 540 468 q 489 438 511 438 q 453 453 468 438 q 438 489 438 468 z "},"ŀ":{"ha":300,"x_min":113,"x_max":344,"o":"m 175 1028 l 175 0 l 113 0 l 113 1028 l 175 1028 m 242 514 q 257 550 242 535 q 293 565 272 565 q 330 550 315 565 q 344 514 344 535 q 330 478 344 493 q 293 463 315 463 q 257 478 272 463 q 242 514 242 493 z "},"Ł":{"ha":594,"x_min":14,"x_max":567,"o":"m 567 51 l 567 0 l 139 0 l 139 474 l 14 418 l 14 482 l 139 538 l 139 979 l 201 979 l 201 564 l 411 657 l 411 593 l 201 500 l 201 51 l 567 51 z "},"ł":{"ha":319,"x_min":14,"x_max":306,"o":"m 306 700 l 192 642 l 192 0 l 129 0 l 129 610 l 14 551 l 14 613 l 129 671 l 129 1028 l 192 1028 l 192 703 l 306 761 l 306 700 z "},"Ń":{"ha":922,"x_min":113,"x_max":810,"o":"m 810 0 l 747 0 l 175 872 l 175 0 l 113 0 l 113 978 l 175 978 l 747 106 l 747 978 l 810 978 l 810 0 m 706 1217 l 433 1042 l 433 1092 l 706 1274 l 706 1217 z "},"ń":{"ha":867,"x_min":113,"x_max":763,"o":"m 463 769 q 679 686 596 769 q 763 440 763 603 l 763 0 l 700 0 l 700 438 q 632 645 700 574 q 446 717 564 717 q 249 637 324 717 q 175 401 175 557 l 175 0 l 113 0 l 113 754 l 175 754 l 175 556 q 281 715 203 661 q 463 769 360 769 m 682 992 l 410 817 l 410 867 l 682 1049 l 682 992 z "},"Ņ":{"ha":931,"x_min":113,"x_max":810,"o":"m 810 0 l 747 0 l 175 872 l 175 0 l 113 0 l 113 978 l 175 978 l 747 106 l 747 978 l 810 978 l 810 0 m 508 -78 q 515 -139 515 -110 q 487 -243 515 -212 q 407 -274 458 -274 l 407 -239 q 455 -219 440 -239 q 469 -160 469 -199 l 469 -150 l 419 -150 l 419 -78 l 508 -78 z "},"ņ":{"ha":867,"x_min":113,"x_max":763,"o":"m 463 769 q 679 686 596 769 q 763 440 763 603 l 763 0 l 700 0 l 700 438 q 632 645 700 574 q 446 717 564 717 q 249 637 324 717 q 175 401 175 557 l 175 0 l 113 0 l 113 754 l 175 754 l 175 556 q 281 715 203 661 q 463 769 360 769 m 489 -78 q 496 -139 496 -110 q 467 -243 496 -212 q 388 -274 439 -274 l 388 -239 q 435 -219 421 -239 q 450 -160 450 -199 l 450 -150 l 400 -150 l 400 -78 l 489 -78 z "},"Ň":{"ha":922,"x_min":113,"x_max":810,"o":"m 810 0 l 747 0 l 175 872 l 175 0 l 113 0 l 113 978 l 175 978 l 747 106 l 747 978 l 810 978 l 810 0 m 640 1190 l 463 1078 l 282 1190 l 282 1240 l 463 1126 l 640 1240 l 640 1190 z "},"ň":{"ha":867,"x_min":113,"x_max":763,"o":"m 463 769 q 679 686 596 769 q 763 440 763 603 l 763 0 l 700 0 l 700 438 q 632 645 700 574 q 446 717 564 717 q 249 637 324 717 q 175 401 175 557 l 175 0 l 113 0 l 113 754 l 175 754 l 175 556 q 281 715 203 661 q 463 769 360 769 m 617 965 l 439 853 l 258 965 l 258 1015 l 439 901 l 617 1015 l 617 965 z "},"Ō":{"ha":1100,"x_min":78,"x_max":1021,"o":"m 550 988 q 792 924 685 988 q 960 747 900 861 q 1021 489 1021 633 q 960 231 1021 344 q 792 53 900 117 q 550 -11 685 -11 q 308 53 415 -11 q 139 231 200 117 q 78 489 78 344 q 139 747 78 633 q 308 924 200 861 q 550 988 415 988 m 550 931 q 342 876 435 931 q 197 722 250 822 q 143 489 143 622 q 197 256 143 356 q 342 101 250 156 q 550 47 435 47 q 757 101 664 47 q 903 256 850 156 q 957 489 957 356 q 903 722 957 622 q 757 876 850 822 q 550 931 664 931 m 776 1182 l 776 1133 l 325 1133 l 325 1182 l 776 1182 z "},"ō":{"ha":897,"x_min":76,"x_max":821,"o":"m 449 764 q 640 717 556 764 q 773 583 725 671 q 821 378 821 496 q 773 171 821 258 q 640 37 725 83 q 449 -10 556 -10 q 258 37 343 -10 q 125 172 174 83 q 76 378 76 260 q 125 583 76 496 q 258 717 174 671 q 449 764 343 764 m 449 708 q 297 672 367 708 q 183 562 226 636 q 140 378 140 488 q 183 193 140 268 q 297 82 226 118 q 449 46 367 46 q 601 82 531 46 q 714 193 671 118 q 757 378 757 268 q 715 562 757 488 q 602 672 672 636 q 449 708 532 708 m 675 957 l 675 908 l 224 908 l 224 957 l 675 957 z "},"Ŏ":{"ha":1100,"x_min":78,"x_max":1021,"o":"m 550 988 q 792 924 685 988 q 960 747 900 861 q 1021 489 1021 633 q 960 231 1021 344 q 792 53 900 117 q 550 -11 685 -11 q 308 53 415 -11 q 139 231 200 117 q 78 489 78 344 q 139 747 78 633 q 308 924 200 861 q 550 988 415 988 m 550 931 q 342 876 435 931 q 197 722 250 822 q 143 489 143 622 q 197 256 143 356 q 342 101 250 156 q 550 47 435 47 q 757 101 664 47 q 903 256 850 156 q 957 489 957 356 q 903 722 957 622 q 757 876 850 822 q 550 931 664 931 m 550 1078 q 419 1125 465 1078 q 374 1239 374 1172 l 374 1247 l 417 1247 q 451 1159 417 1190 q 550 1128 486 1128 q 649 1159 614 1128 q 683 1247 683 1190 l 726 1247 l 726 1239 q 681 1125 726 1172 q 550 1078 636 1078 z "},"ŏ":{"ha":897,"x_min":76,"x_max":821,"o":"m 449 764 q 640 717 556 764 q 773 583 725 671 q 821 378 821 496 q 773 171 821 258 q 640 37 725 83 q 449 -10 556 -10 q 258 37 343 -10 q 125 172 174 83 q 76 378 76 260 q 125 583 76 496 q 258 717 174 671 q 449 764 343 764 m 449 708 q 297 672 367 708 q 183 562 226 636 q 140 378 140 488 q 183 193 140 268 q 297 82 226 118 q 449 46 367 46 q 601 82 531 46 q 714 193 671 118 q 757 378 757 268 q 715 562 757 488 q 602 672 672 636 q 449 708 532 708 m 447 853 q 317 900 363 853 q 271 1014 271 947 l 271 1022 l 314 1022 q 349 934 314 965 q 447 903 383 903 q 546 934 511 903 q 581 1022 581 965 l 624 1022 l 624 1014 q 578 900 624 947 q 447 853 533 853 z "},"Ő":{"ha":1100,"x_min":78,"x_max":1021,"o":"m 550 988 q 792 924 685 988 q 960 747 900 861 q 1021 489 1021 633 q 960 231 1021 344 q 792 53 900 117 q 550 -11 685 -11 q 308 53 415 -11 q 139 231 200 117 q 78 489 78 344 q 139 747 78 633 q 308 924 200 861 q 550 988 415 988 m 550 931 q 342 876 435 931 q 197 722 250 822 q 143 489 143 622 q 197 256 143 356 q 342 101 250 156 q 550 47 435 47 q 757 101 664 47 q 903 256 850 156 q 957 489 957 356 q 903 722 957 622 q 757 876 850 822 q 550 931 664 931 m 479 1060 l 432 1060 l 519 1229 l 576 1229 l 479 1060 m 654 1060 l 607 1060 l 704 1229 l 761 1229 l 654 1060 z "},"ő":{"ha":897,"x_min":76,"x_max":821,"o":"m 449 764 q 640 717 556 764 q 773 583 725 671 q 821 378 821 496 q 773 171 821 258 q 640 37 725 83 q 449 -10 556 -10 q 258 37 343 -10 q 125 172 174 83 q 76 378 76 260 q 125 583 76 496 q 258 717 174 671 q 449 764 343 764 m 449 708 q 297 672 367 708 q 183 562 226 636 q 140 378 140 488 q 183 193 140 268 q 297 82 226 118 q 449 46 367 46 q 601 82 531 46 q 714 193 671 118 q 757 378 757 268 q 715 562 757 488 q 602 672 672 636 q 449 708 532 708 m 379 835 l 332 835 l 419 1004 l 476 1004 l 379 835 m 554 835 l 507 835 l 604 1004 l 661 1004 l 554 835 z "},"Œ":{"ha":1526,"x_min":78,"x_max":1460,"o":"m 1022 515 l 1418 515 l 1418 465 l 1022 465 l 1022 53 l 1460 53 l 1460 0 l 960 0 l 960 299 q 876 135 936 206 q 731 26 817 65 q 547 -12 646 -12 q 306 51 413 -12 q 138 229 199 115 q 78 488 78 343 q 138 747 78 633 q 306 924 199 860 q 547 988 413 988 q 731 949 646 988 q 876 841 817 911 q 960 678 936 771 l 960 979 l 1460 979 l 1460 926 l 1022 926 l 1022 515 m 550 46 q 757 100 664 46 q 903 254 850 154 q 957 488 957 354 q 903 722 957 622 q 757 876 850 822 q 550 931 664 931 q 342 876 435 931 q 197 722 250 822 q 143 488 143 622 q 197 254 143 354 q 342 100 250 154 q 550 46 435 46 z "},"œ":{"ha":1557,"x_min":76,"x_max":1476,"o":"m 1122 43 q 1314 101 1236 43 q 1408 258 1392 158 l 1474 258 q 1360 64 1453 138 q 1125 -10 1268 -10 q 912 54 1001 -10 q 789 233 822 118 q 663 54 754 118 q 449 -10 572 -10 q 258 37 343 -10 q 125 172 174 83 q 76 378 76 260 q 125 583 76 496 q 258 717 174 671 q 449 764 343 764 q 663 700 572 764 q 789 521 754 636 q 912 700 822 636 q 1125 764 1001 764 q 1315 717 1235 764 q 1435 595 1394 671 q 1476 433 1476 519 q 1471 360 1476 392 l 821 360 q 865 183 822 254 q 975 77 907 111 q 1122 43 1043 43 m 1125 713 q 975 678 1043 713 q 865 572 907 643 q 821 397 822 501 l 1415 397 q 1381 572 1421 501 q 1273 678 1342 643 q 1125 713 1204 713 m 449 46 q 601 82 531 46 q 714 193 671 118 q 757 378 757 268 q 715 562 757 488 q 602 672 672 636 q 449 708 532 708 q 297 672 367 708 q 183 562 226 636 q 140 378 140 488 q 183 193 140 268 q 297 82 226 118 q 449 46 367 46 z "},"Ŕ":{"ha":767,"x_min":113,"x_max":714,"o":"m 642 0 l 358 417 l 175 417 l 175 0 l 113 0 l 113 979 l 386 979 q 627 903 549 979 q 706 696 706 826 q 634 499 706 571 q 426 418 563 428 l 714 0 l 642 0 m 175 468 l 382 468 q 643 694 643 468 q 581 863 643 804 q 382 922 519 922 l 175 922 l 175 468 m 660 1217 l 388 1042 l 388 1092 l 660 1274 l 660 1217 z "},"ŕ":{"ha":492,"x_min":113,"x_max":535,"o":"m 175 588 q 278 723 204 676 q 465 769 351 769 l 465 701 l 444 701 q 253 638 331 701 q 175 431 175 574 l 175 0 l 113 0 l 113 754 l 175 754 l 175 588 m 535 992 l 263 817 l 263 867 l 535 1049 l 535 992 z "},"Ŗ":{"ha":772,"x_min":113,"x_max":714,"o":"m 714 0 l 642 0 l 358 417 l 175 417 l 175 0 l 113 0 l 113 979 l 386 979 q 627 903 549 979 q 706 696 706 826 q 634 499 706 571 q 426 418 563 428 l 714 0 m 175 468 l 382 468 q 643 694 643 468 q 581 863 643 804 q 382 922 519 922 l 175 922 l 175 468 m 424 -78 q 431 -139 431 -110 q 403 -243 431 -212 q 324 -274 375 -274 l 324 -239 q 385 -160 385 -239 l 385 -150 l 335 -150 l 335 -78 l 424 -78 z "},"ŗ":{"ha":492,"x_min":83,"x_max":465,"o":"m 175 588 q 278 723 204 676 q 465 769 351 769 l 465 701 l 444 701 q 253 638 331 701 q 175 431 175 574 l 175 0 l 113 0 l 113 754 l 175 754 l 175 588 m 185 -78 q 192 -139 192 -110 q 163 -243 192 -212 q 83 -274 135 -274 l 83 -239 q 131 -219 117 -239 q 146 -160 146 -199 l 146 -150 l 96 -150 l 96 -78 l 185 -78 z "},"Ř":{"ha":767,"x_min":113,"x_max":714,"o":"m 642 0 l 358 417 l 175 417 l 175 0 l 113 0 l 113 979 l 386 979 q 627 903 549 979 q 706 696 706 826 q 634 499 706 571 q 426 418 563 428 l 714 0 l 642 0 m 175 468 l 382 468 q 643 694 643 468 q 581 863 643 804 q 382 922 519 922 l 175 922 l 175 468 m 593 1190 l 415 1078 l 235 1190 l 235 1240 l 415 1126 l 593 1240 l 593 1190 z "},"ř":{"ha":492,"x_min":110,"x_max":468,"o":"m 175 588 q 278 723 204 676 q 465 769 351 769 l 465 701 l 444 701 q 253 638 331 701 q 175 431 175 574 l 175 0 l 113 0 l 113 754 l 175 754 l 175 588 m 468 965 l 290 853 l 110 965 l 110 1015 l 290 901 l 468 1015 l 468 965 z "},"Ś":{"ha":760,"x_min":78,"x_max":682,"o":"m 682 242 q 653 120 682 178 q 561 26 624 63 q 404 -10 499 -10 q 243 25 314 -10 q 131 118 172 60 q 82 244 89 176 l 147 244 q 183 153 154 200 q 267 74 211 106 q 403 42 322 42 q 561 99 506 42 q 617 240 617 156 q 582 358 617 314 q 497 426 547 403 q 358 476 446 450 q 210 530 265 504 q 116 608 154 556 q 78 747 78 661 q 151 921 78 853 q 356 989 225 989 q 565 923 488 989 q 660 765 642 857 l 593 765 q 519 884 579 831 q 356 938 460 938 q 202 888 260 938 q 144 749 144 839 q 178 637 144 679 q 260 572 211 594 q 394 524 310 549 q 546 469 489 496 q 642 388 603 442 q 682 242 682 333 m 626 1217 l 354 1042 l 354 1092 l 626 1274 l 626 1217 z "},"ś":{"ha":688,"x_min":78,"x_max":610,"o":"m 326 764 q 517 701 444 764 q 603 528 589 638 l 543 528 q 478 662 535 608 q 326 715 422 715 q 194 674 242 715 q 146 563 146 632 q 174 481 146 511 q 244 435 203 450 q 358 403 285 421 q 490 365 440 385 q 575 304 540 346 q 610 190 610 263 q 546 46 610 101 q 378 -10 482 -10 q 173 53 253 -10 q 78 226 93 117 l 140 226 q 210 92 149 146 q 379 39 272 39 q 505 81 460 39 q 550 192 550 124 q 521 278 550 246 q 448 326 492 311 q 332 358 404 342 q 202 397 250 378 q 120 455 154 415 q 86 563 86 494 q 151 709 86 654 q 326 764 217 764 m 589 992 l 317 817 l 317 867 l 589 1049 l 589 992 z "},"Ş":{"ha":760,"x_min":78,"x_max":682,"o":"m 682 242 q 653 120 682 178 q 561 26 624 63 q 404 -10 499 -10 q 243 25 314 -10 q 131 118 172 60 q 82 244 89 176 l 147 244 q 183 153 154 200 q 267 74 211 106 q 403 42 322 42 q 561 99 506 42 q 617 240 617 156 q 582 358 617 314 q 497 426 547 403 q 358 476 446 450 q 210 530 265 504 q 116 608 154 556 q 78 747 78 661 q 151 921 78 853 q 356 989 225 989 q 565 923 488 989 q 660 765 642 857 l 593 765 q 519 884 579 831 q 356 938 460 938 q 202 888 260 938 q 144 749 144 839 q 178 637 144 679 q 260 572 211 594 q 394 524 310 549 q 546 469 489 496 q 642 388 603 442 q 682 242 682 333 m 406 -112 q 535 -139 489 -108 q 582 -231 582 -169 q 540 -322 582 -287 q 426 -356 499 -356 l 319 -356 l 319 -312 l 419 -312 q 532 -229 532 -312 q 505 -174 532 -194 q 419 -153 478 -153 l 360 -153 l 360 10 l 406 10 l 406 -112 z "},"ş":{"ha":688,"x_min":78,"x_max":610,"o":"m 326 764 q 517 701 444 764 q 603 528 589 638 l 543 528 q 478 662 535 608 q 326 715 422 715 q 194 674 242 715 q 146 563 146 632 q 174 481 146 511 q 244 435 203 450 q 358 403 285 421 q 490 365 440 385 q 575 304 540 346 q 610 190 610 263 q 546 46 610 101 q 378 -10 482 -10 q 173 53 253 -10 q 78 226 93 117 l 140 226 q 210 92 149 146 q 379 39 272 39 q 505 81 460 39 q 550 192 550 124 q 521 278 550 246 q 448 326 492 311 q 332 358 404 342 q 202 397 250 378 q 120 455 154 415 q 86 563 86 494 q 151 709 86 654 q 326 764 217 764 m 367 -112 q 497 -139 450 -108 q 543 -231 543 -169 q 501 -322 543 -287 q 388 -356 460 -356 l 281 -356 l 281 -312 l 381 -312 q 493 -229 493 -312 q 466 -174 493 -194 q 381 -153 439 -153 l 321 -153 l 321 10 l 367 10 l 367 -112 z "},"Š":{"ha":760,"x_min":78,"x_max":682,"o":"m 682 242 q 653 120 682 178 q 561 26 624 63 q 404 -10 499 -10 q 243 25 314 -10 q 131 118 172 60 q 82 244 89 176 l 147 244 q 183 153 154 200 q 267 74 211 106 q 403 42 322 42 q 561 99 506 42 q 617 240 617 156 q 582 358 617 314 q 497 426 547 403 q 358 476 446 450 q 210 530 265 504 q 116 608 154 556 q 78 747 78 661 q 151 921 78 853 q 356 989 225 989 q 565 923 488 989 q 660 765 642 857 l 593 765 q 519 884 579 831 q 356 938 460 938 q 202 888 260 938 q 144 749 144 839 q 178 637 144 679 q 260 572 211 594 q 394 524 310 549 q 546 469 489 496 q 642 388 603 442 q 682 242 682 333 m 560 1190 l 382 1078 l 201 1190 l 201 1240 l 382 1126 l 560 1240 l 560 1190 z "},"š":{"ha":688,"x_min":78,"x_max":610,"o":"m 326 764 q 517 701 444 764 q 603 528 589 638 l 543 528 q 478 662 535 608 q 326 715 422 715 q 194 674 242 715 q 146 563 146 632 q 174 481 146 511 q 244 435 203 450 q 358 403 285 421 q 490 365 440 385 q 575 304 540 346 q 610 190 610 263 q 546 46 610 101 q 378 -10 482 -10 q 173 53 253 -10 q 78 226 93 117 l 140 226 q 210 92 149 146 q 379 39 272 39 q 505 81 460 39 q 550 192 550 124 q 521 278 550 246 q 448 326 492 311 q 332 358 404 342 q 202 397 250 378 q 120 455 154 415 q 86 563 86 494 q 151 709 86 654 q 326 764 217 764 m 524 965 l 346 853 l 165 965 l 165 1015 l 346 901 l 524 1015 l 524 965 z "},"Ţ":{"ha":678,"x_min":26,"x_max":653,"o":"m 371 926 l 371 1 q 532 -112 532 -3 q 491 -205 532 -171 q 378 -239 450 -239 l 272 -239 l 272 -194 l 371 -194 q 456 -173 431 -194 q 482 -111 482 -151 q 371 -35 482 -35 l 307 -35 l 307 926 l 26 926 l 26 979 l 653 979 l 653 926 l 371 926 z "},"ţ":{"ha":486,"x_min":26,"x_max":501,"o":"m 325 -112 q 455 -139 408 -108 q 501 -231 501 -169 q 460 -322 501 -287 q 346 -356 418 -356 l 239 -356 l 239 -312 l 339 -312 q 451 -229 451 -312 q 424 -174 451 -194 q 339 -153 397 -153 l 279 -153 l 279 6 q 178 68 211 19 q 146 213 146 117 l 146 697 l 26 697 l 26 754 l 146 754 l 146 946 l 208 946 l 208 754 l 432 754 l 432 697 l 208 697 l 208 213 q 240 90 208 122 q 353 57 272 57 l 432 57 l 432 0 l 346 0 l 325 0 l 325 -112 z "},"Ť":{"ha":678,"x_min":26,"x_max":653,"o":"m 653 979 l 653 926 l 371 926 l 371 0 l 307 0 l 307 926 l 26 926 l 26 979 l 653 979 m 519 1190 l 342 1078 l 161 1190 l 161 1240 l 342 1126 l 519 1240 l 519 1190 z "},"ť":{"ha":486,"x_min":26,"x_max":432,"o":"m 408 949 q 381 855 408 883 q 299 826 353 826 l 299 864 q 348 879 333 864 q 363 926 363 894 l 363 964 l 304 964 l 304 1054 l 400 1054 q 408 949 408 990 m 208 697 l 208 213 q 240 90 208 122 q 353 57 272 57 l 432 57 l 432 0 l 346 0 q 194 49 242 0 q 146 213 146 97 l 146 697 l 26 697 l 26 754 l 146 754 l 146 946 l 208 946 l 208 754 l 432 754 l 432 697 l 208 697 z "},"Ũ":{"ha":889,"x_min":106,"x_max":785,"o":"m 168 979 l 168 378 q 243 128 168 207 q 447 49 318 49 q 648 128 575 49 q 721 378 721 207 l 721 979 l 785 979 l 785 378 q 694 86 785 182 q 447 -10 603 -10 q 198 86 290 -10 q 106 378 106 182 l 106 979 l 168 979 m 365 1176 q 408 1167 390 1176 q 449 1140 426 1158 q 485 1115 469 1124 q 521 1107 500 1107 q 561 1124 544 1107 q 582 1172 578 1140 l 624 1172 q 590 1094 618 1124 q 519 1064 561 1064 q 476 1073 494 1064 q 431 1101 457 1082 q 395 1124 408 1117 q 364 1132 382 1132 q 304 1065 314 1132 l 264 1065 q 297 1147 271 1118 q 365 1176 324 1176 z "},"ũ":{"ha":849,"x_min":88,"x_max":738,"o":"m 738 754 l 738 0 l 674 0 l 674 197 q 567 39 646 93 q 386 -15 489 -15 q 171 68 254 -15 q 88 315 88 151 l 88 754 l 149 754 l 149 317 q 217 110 149 182 q 403 39 285 39 q 600 119 526 39 q 674 354 674 199 l 674 754 l 738 754 m 333 951 q 376 942 358 951 q 417 915 394 933 q 453 890 438 899 q 489 882 468 882 q 529 899 513 882 q 550 947 546 915 l 592 947 q 558 869 586 899 q 488 839 529 839 q 444 848 463 839 q 399 876 425 857 q 363 899 376 892 q 332 907 350 907 q 272 840 282 907 l 232 840 q 265 922 239 893 q 333 951 292 951 z "},"Ū":{"ha":889,"x_min":106,"x_max":785,"o":"m 168 979 l 168 378 q 243 128 168 207 q 447 49 318 49 q 648 128 575 49 q 721 378 721 207 l 721 979 l 785 979 l 785 378 q 694 86 785 182 q 447 -10 603 -10 q 198 86 290 -10 q 106 378 106 182 l 106 979 l 168 979 m 671 1182 l 671 1133 l 219 1133 l 219 1182 l 671 1182 z "},"ū":{"ha":849,"x_min":88,"x_max":738,"o":"m 738 754 l 738 0 l 674 0 l 674 197 q 567 39 646 93 q 386 -15 489 -15 q 171 68 254 -15 q 88 315 88 151 l 88 754 l 149 754 l 149 317 q 217 110 149 182 q 403 39 285 39 q 600 119 526 39 q 674 354 674 199 l 674 754 l 738 754 m 638 957 l 638 908 l 186 908 l 186 957 l 638 957 z "},"Ŭ":{"ha":889,"x_min":106,"x_max":785,"o":"m 168 979 l 168 378 q 243 128 168 207 q 447 49 318 49 q 648 128 575 49 q 721 378 721 207 l 721 979 l 785 979 l 785 378 q 694 86 785 182 q 447 -10 603 -10 q 198 86 290 -10 q 106 378 106 182 l 106 979 l 168 979 m 444 1078 q 314 1125 360 1078 q 268 1239 268 1172 l 268 1247 l 311 1247 q 346 1159 311 1190 q 444 1128 381 1128 q 543 1159 508 1128 q 578 1247 578 1190 l 621 1247 l 621 1239 q 576 1125 621 1172 q 444 1078 531 1078 z "},"ŭ":{"ha":849,"x_min":88,"x_max":738,"o":"m 738 754 l 738 0 l 674 0 l 674 197 q 567 39 646 93 q 386 -15 489 -15 q 171 68 254 -15 q 88 315 88 151 l 88 754 l 149 754 l 149 317 q 217 110 149 182 q 403 39 285 39 q 600 119 526 39 q 674 354 674 199 l 674 754 l 738 754 m 411 853 q 281 900 326 853 q 235 1014 235 947 l 235 1022 l 278 1022 q 313 934 278 965 q 411 903 347 903 q 510 934 475 903 q 544 1022 544 965 l 588 1022 l 588 1014 q 542 900 588 947 q 411 853 497 853 z "},"Ů":{"ha":889,"x_min":106,"x_max":785,"o":"m 168 979 l 168 378 q 243 128 168 207 q 447 49 318 49 q 648 128 575 49 q 721 378 721 207 l 721 979 l 785 979 l 785 378 q 694 86 785 182 q 447 -10 603 -10 q 198 86 290 -10 q 106 378 106 182 l 106 979 l 168 979 m 444 1340 q 538 1304 500 1340 q 576 1208 576 1268 q 538 1111 576 1147 q 444 1075 500 1075 q 350 1111 389 1075 q 311 1208 311 1147 q 350 1304 311 1268 q 444 1340 389 1340 m 444 1303 q 377 1278 403 1303 q 351 1208 351 1253 q 377 1138 351 1164 q 444 1113 403 1113 q 511 1138 485 1113 q 538 1208 538 1164 q 511 1277 538 1251 q 444 1303 485 1303 z "},"ů":{"ha":849,"x_min":88,"x_max":738,"o":"m 738 754 l 738 0 l 674 0 l 674 197 q 567 39 646 93 q 386 -15 489 -15 q 171 68 254 -15 q 88 315 88 151 l 88 754 l 149 754 l 149 317 q 217 110 149 182 q 403 39 285 39 q 600 119 526 39 q 674 354 674 199 l 674 754 l 738 754 m 413 1115 q 506 1079 468 1115 q 544 983 544 1043 q 506 886 544 922 q 413 850 468 850 q 318 886 357 850 q 279 983 279 922 q 318 1079 279 1043 q 413 1115 357 1115 m 413 1078 q 345 1053 371 1078 q 319 983 319 1028 q 345 913 319 939 q 413 888 371 888 q 479 913 453 888 q 506 983 506 939 q 479 1052 506 1026 q 413 1078 453 1078 z "},"Ű":{"ha":889,"x_min":106,"x_max":785,"o":"m 168 979 l 168 378 q 243 128 168 207 q 447 49 318 49 q 648 128 575 49 q 721 378 721 207 l 721 979 l 785 979 l 785 378 q 694 86 785 182 q 447 -10 603 -10 q 198 86 290 -10 q 106 378 106 182 l 106 979 l 168 979 m 363 1060 l 315 1060 l 403 1229 l 460 1229 l 363 1060 m 538 1060 l 490 1060 l 588 1229 l 644 1229 l 538 1060 z "},"ű":{"ha":849,"x_min":88,"x_max":738,"o":"m 738 754 l 738 0 l 674 0 l 674 197 q 567 39 646 93 q 386 -15 489 -15 q 171 68 254 -15 q 88 315 88 151 l 88 754 l 149 754 l 149 317 q 217 110 149 182 q 403 39 285 39 q 600 119 526 39 q 674 354 674 199 l 674 754 l 738 754 m 331 835 l 283 835 l 371 1004 l 428 1004 l 331 835 m 506 835 l 458 835 l 556 1004 l 613 1004 l 506 835 z "},"Ų":{"ha":897,"x_min":110,"x_max":789,"o":"m 499 -240 q 379 -202 422 -240 q 336 -101 336 -164 q 353 -42 336 -69 q 400 -6 371 -15 q 190 110 269 14 q 110 378 110 206 l 110 979 l 172 979 l 172 378 q 247 128 172 207 q 451 49 322 49 q 726 378 726 49 l 726 979 l 789 979 l 789 378 q 708 101 789 194 q 489 -7 628 7 q 413 -37 440 -11 q 386 -103 386 -62 q 418 -172 386 -147 q 506 -196 450 -196 l 611 -196 l 611 -240 l 499 -240 z "},"ų":{"ha":849,"x_min":88,"x_max":793,"o":"m 738 754 l 738 0 l 674 0 l 674 197 q 567 39 646 93 q 386 -15 489 -15 q 171 68 254 -15 q 88 315 88 151 l 88 754 l 149 754 l 149 317 q 217 110 149 182 q 403 39 285 39 q 600 119 526 39 q 674 354 674 199 l 674 754 l 738 754 m 736 7 l 736 -35 l 685 -35 q 597 -60 629 -35 q 565 -129 565 -86 q 597 -198 565 -172 q 685 -224 629 -224 l 793 -224 l 793 -267 l 681 -267 q 560 -229 604 -267 q 515 -131 515 -192 q 559 -31 515 -69 q 678 7 603 7 l 736 7 z "},"Ŵ":{"ha":1290,"x_min":47,"x_max":1242,"o":"m 1242 979 l 985 0 l 913 0 l 644 883 l 378 0 l 306 0 l 47 979 l 118 979 l 342 90 l 610 979 l 681 979 l 947 90 l 1171 979 l 1242 979 m 647 1194 l 467 1082 l 467 1131 l 647 1244 l 825 1131 l 825 1082 l 647 1194 z "},"ŵ":{"ha":1133,"x_min":24,"x_max":1108,"o":"m 1108 754 l 879 0 l 818 0 l 567 671 l 315 0 l 254 0 l 24 754 l 89 754 l 288 78 l 536 754 l 599 754 l 849 78 l 1047 754 l 1108 754 m 568 969 l 388 857 l 388 906 l 568 1019 l 746 906 l 746 857 l 568 969 z "},"Ŷ":{"ha":757,"x_min":36,"x_max":719,"o":"m 719 979 l 411 396 l 411 0 l 349 0 l 349 396 l 36 979 l 110 979 l 379 463 l 647 979 l 719 979 m 381 1194 l 200 1082 l 200 1131 l 381 1244 l 558 1131 l 558 1082 l 381 1194 z "},"ŷ":{"ha":729,"x_min":22,"x_max":707,"o":"m 92 754 l 375 83 l 638 754 l 707 754 l 269 -356 l 197 -356 l 342 4 l 22 754 l 92 754 m 365 969 l 185 857 l 185 906 l 365 1019 l 543 906 l 543 857 l 365 969 z "},"Ÿ":{"ha":757,"x_min":36,"x_max":719,"o":"m 719 979 l 411 396 l 411 0 l 349 0 l 349 396 l 36 979 l 110 979 l 379 463 l 647 979 l 719 979 m 226 1146 q 241 1182 226 1167 q 278 1197 256 1197 q 315 1182 300 1197 q 329 1146 329 1167 q 315 1110 329 1125 q 278 1094 300 1094 q 241 1110 256 1094 q 226 1146 226 1125 m 429 1146 q 444 1182 429 1167 q 481 1197 458 1197 q 516 1182 501 1197 q 531 1146 531 1167 q 516 1110 531 1125 q 481 1094 501 1094 q 444 1110 458 1094 q 429 1146 429 1125 z "},"Ź":{"ha":701,"x_min":51,"x_max":650,"o":"m 121 54 l 650 54 l 650 0 l 51 0 l 51 53 l 569 924 l 67 924 l 67 979 l 638 979 l 638 925 l 121 54 m 596 1217 l 324 1042 l 324 1092 l 596 1274 l 596 1217 z "},"ź":{"ha":585,"x_min":40,"x_max":544,"o":"m 108 54 l 544 54 l 544 0 l 40 0 l 40 53 l 460 700 l 53 700 l 53 754 l 531 754 l 531 703 l 108 54 m 538 992 l 265 817 l 265 867 l 538 1049 l 538 992 z "},"Ż":{"ha":701,"x_min":51,"x_max":650,"o":"m 121 54 l 650 54 l 650 0 l 51 0 l 51 53 l 569 924 l 67 924 l 67 979 l 638 979 l 638 925 l 121 54 m 299 1146 q 314 1182 299 1167 q 350 1197 329 1197 q 387 1182 372 1197 q 401 1146 401 1167 q 387 1110 401 1125 q 350 1094 372 1094 q 314 1110 329 1094 q 299 1146 299 1125 z "},"ż":{"ha":585,"x_min":40,"x_max":544,"o":"m 108 54 l 544 54 l 544 0 l 40 0 l 40 53 l 460 700 l 53 700 l 53 754 l 531 754 l 531 703 l 108 54 m 240 921 q 256 957 240 942 q 292 972 271 972 q 328 957 314 972 q 343 921 343 942 q 328 885 343 900 q 292 869 314 869 q 256 885 271 869 q 240 921 240 900 z "},"Ž":{"ha":701,"x_min":51,"x_max":650,"o":"m 121 54 l 650 54 l 650 0 l 51 0 l 51 53 l 569 924 l 67 924 l 67 979 l 638 979 l 638 925 l 121 54 m 531 1190 l 353 1078 l 172 1190 l 172 1240 l 353 1126 l 531 1240 l 531 1190 z "},"ž":{"ha":585,"x_min":40,"x_max":544,"o":"m 108 54 l 544 54 l 544 0 l 40 0 l 40 53 l 460 700 l 53 700 l 53 754 l 531 754 l 531 703 l 108 54 m 472 965 l 294 853 l 114 965 l 114 1015 l 294 901 l 472 1015 l 472 965 z "},"ƒ":{"ha":461,"x_min":-43,"x_max":481,"o":"m 475 999 q 329 960 381 999 q 269 839 278 921 l 261 754 l 460 754 l 456 700 l 254 700 l 175 -58 q 126 -180 167 -140 q 0 -219 86 -219 l -43 -219 l -39 -164 l 1 -164 q 80 -142 56 -164 q 113 -58 104 -121 l 193 700 l 81 700 l 85 754 l 199 754 l 208 839 q 288 1001 219 950 q 481 1053 357 1053 l 475 999 z "},"Ǽ":{"ha":1189,"x_min":13,"x_max":1122,"o":"m 686 926 l 686 517 l 1081 517 l 1081 465 l 686 465 l 686 53 l 1122 53 l 1122 0 l 624 0 l 624 253 l 233 253 l 82 0 l 13 0 l 597 979 l 1122 979 l 1122 926 l 686 926 m 624 304 l 624 904 l 264 304 l 624 304 m 886 1217 l 614 1042 l 614 1092 l 886 1274 l 886 1217 z "},"ǽ":{"ha":1563,"x_min":76,"x_max":1486,"o":"m 1129 43 q 1323 101 1244 43 q 1419 258 1401 158 l 1483 258 q 1374 64 1464 138 q 1143 -10 1283 -10 q 938 51 1025 -10 q 822 226 850 113 l 822 0 l 760 0 l 760 225 q 644 55 729 119 q 436 -10 560 -10 q 249 37 331 -10 q 122 172 168 83 q 76 378 76 260 q 122 583 76 496 q 249 717 168 671 q 436 764 331 764 q 644 699 560 764 q 760 529 729 635 l 760 754 l 822 754 l 822 528 q 938 702 850 640 q 1143 764 1025 764 q 1329 717 1251 764 q 1447 595 1407 671 q 1486 433 1486 519 q 1481 360 1486 392 l 824 360 q 869 183 826 254 q 980 78 911 113 q 1129 43 1049 43 m 1131 713 q 981 678 1050 713 q 868 573 911 644 q 824 397 825 501 l 1425 397 q 1390 572 1431 501 q 1281 678 1350 643 q 1131 713 1211 713 m 450 46 q 610 87 539 46 q 720 203 681 128 q 760 378 760 279 q 720 551 760 476 q 610 667 681 626 q 450 708 539 708 q 224 619 308 708 q 140 378 140 531 q 224 135 140 224 q 450 46 307 46 m 1026 992 l 754 817 l 754 867 l 1026 1049 l 1026 992 z "},"Ș":{"ha":771,"x_min":78,"x_max":682,"o":"m 682 242 q 653 120 682 178 q 561 26 624 63 q 404 -10 499 -10 q 243 25 314 -10 q 131 118 172 60 q 82 244 89 176 l 147 244 q 183 153 154 200 q 267 74 211 106 q 403 42 322 42 q 561 99 506 42 q 617 240 617 156 q 582 358 617 314 q 497 426 547 403 q 358 476 446 450 q 210 530 265 504 q 116 608 154 556 q 78 747 78 661 q 151 921 78 853 q 356 989 225 989 q 565 923 488 989 q 660 765 642 857 l 593 765 q 519 884 579 831 q 356 938 460 938 q 202 888 260 938 q 144 749 144 839 q 178 637 144 679 q 260 572 211 594 q 394 524 310 549 q 546 469 489 496 q 642 388 603 442 q 682 242 682 333 m 460 -78 q 467 -139 467 -110 q 438 -243 467 -212 q 358 -274 410 -274 l 358 -239 q 406 -219 392 -239 q 421 -160 421 -199 l 421 -150 l 371 -150 l 371 -78 l 460 -78 z "},"ș":{"ha":688,"x_min":78,"x_max":610,"o":"m 326 764 q 517 701 444 764 q 603 528 589 638 l 543 528 q 478 662 535 608 q 326 715 422 715 q 194 674 242 715 q 146 563 146 632 q 174 481 146 511 q 244 435 203 450 q 358 403 285 421 q 490 365 440 385 q 575 304 540 346 q 610 190 610 263 q 546 46 610 101 q 378 -10 482 -10 q 173 53 253 -10 q 78 226 93 117 l 140 226 q 210 92 149 146 q 379 39 272 39 q 505 81 460 39 q 550 192 550 124 q 521 278 550 246 q 448 326 492 311 q 332 358 404 342 q 202 397 250 378 q 120 455 154 415 q 86 563 86 494 q 151 709 86 654 q 326 764 217 764 m 414 -78 q 419 -139 419 -104 q 392 -243 419 -212 q 313 -274 364 -274 l 313 -239 q 375 -160 375 -239 l 375 -150 l 324 -150 l 324 -78 l 414 -78 z "},"Ț":{"ha":678,"x_min":26,"x_max":653,"o":"m 653 979 l 653 926 l 371 926 l 371 0 l 307 0 l 307 926 l 26 926 l 26 979 l 653 979 m 381 -78 q 388 -139 388 -110 q 359 -243 388 -212 q 279 -274 331 -274 l 279 -239 q 327 -219 313 -239 q 342 -160 342 -199 l 342 -150 l 292 -150 l 292 -78 l 381 -78 z "},"ț":{"ha":486,"x_min":26,"x_max":432,"o":"m 208 697 l 208 213 q 240 90 208 122 q 353 57 272 57 l 432 57 l 432 0 l 346 0 q 194 49 242 0 q 146 213 146 97 l 146 697 l 26 697 l 26 754 l 146 754 l 146 946 l 208 946 l 208 754 l 432 754 l 432 697 l 208 697 m 329 -78 q 336 -139 336 -103 q 308 -243 336 -212 q 229 -274 281 -274 l 229 -239 q 290 -160 290 -239 l 290 -150 l 240 -150 l 240 -78 l 329 -78 z "},"ʼ":{"ha":197,"x_min":42,"x_max":151,"o":"m 143 1051 q 151 944 151 1000 q 124 849 151 878 q 42 819 96 819 l 42 857 q 92 874 76 857 q 107 925 107 890 l 107 961 l 47 961 l 47 1051 l 143 1051 z "},"ˆ":{"ha":458,"x_min":50,"x_max":408,"o":"m 231 969 l 50 857 l 50 906 l 231 1019 l 408 906 l 408 857 l 231 969 z "},"ˇ":{"ha":458,"x_min":50,"x_max":408,"o":"m 408 965 l 231 853 l 50 965 l 50 1015 l 231 901 l 408 1015 l 408 965 z "},"ˉ":{"ha":551,"x_min":50,"x_max":501,"o":"m 501 957 l 501 908 l 50 908 l 50 957 l 501 957 z "},"˘":{"ha":453,"x_min":50,"x_max":403,"o":"m 226 853 q 96 900 142 853 q 50 1014 50 947 l 50 1022 l 93 1022 q 128 934 93 965 q 226 903 163 903 q 325 934 290 903 q 360 1022 360 965 l 403 1022 l 403 1014 q 358 900 403 947 q 226 853 313 853 z "},"˙":{"ha":221,"x_min":58,"x_max":161,"o":"m 58 921 q 74 957 58 942 q 110 972 89 972 q 147 957 132 972 q 161 921 161 942 q 147 885 161 900 q 110 869 132 869 q 74 885 89 869 q 58 921 58 900 z "},"˚":{"ha":365,"x_min":50,"x_max":315,"o":"m 183 1115 q 277 1079 239 1115 q 315 983 315 1043 q 277 886 315 922 q 183 850 239 850 q 89 886 128 850 q 50 983 50 922 q 89 1079 50 1043 q 183 1115 128 1115 m 183 1078 q 116 1053 142 1078 q 90 983 90 1028 q 116 913 90 939 q 183 888 142 888 q 250 913 224 888 q 276 983 276 939 q 250 1052 276 1026 q 183 1078 224 1078 z "},"˛":{"ha":375,"x_min":49,"x_max":326,"o":"m 269 -39 l 269 -81 l 218 -81 q 131 -106 163 -81 q 99 -175 99 -132 q 131 -244 99 -218 q 218 -269 163 -269 l 326 -269 l 326 -312 l 214 -312 q 93 -275 138 -312 q 49 -176 49 -237 q 92 -77 49 -115 q 211 -39 136 -39 l 269 -39 z "},"˜":{"ha":457,"x_min":49,"x_max":408,"o":"m 150 951 q 193 942 175 951 q 233 915 211 933 q 269 890 254 899 q 306 882 285 882 q 346 899 329 882 q 367 947 363 915 l 408 947 q 374 869 403 899 q 304 839 346 839 q 260 848 279 839 q 215 876 242 857 q 180 899 193 892 q 149 907 167 907 q 89 840 99 907 l 49 840 q 82 922 56 893 q 150 951 108 951 z "},"˝":{"ha":429,"x_min":50,"x_max":379,"o":"m 97 835 l 50 835 l 138 1004 l 194 1004 l 97 835 m 272 835 l 225 835 l 322 1004 l 379 1004 l 272 835 z "},"π":{"ha":999,"x_min":81,"x_max":919,"o":"m 919 754 l 919 704 l 803 704 l 803 0 l 739 0 l 739 704 l 261 704 l 261 0 l 197 0 l 197 704 l 81 704 l 81 754 l 919 754 z "},"Ẁ":{"ha":1290,"x_min":47,"x_max":1242,"o":"m 1242 979 l 985 0 l 913 0 l 644 883 l 378 0 l 306 0 l 47 979 l 118 979 l 342 90 l 610 979 l 681 979 l 947 90 l 1171 979 l 1242 979 m 660 1092 l 660 1042 l 388 1217 l 388 1274 l 660 1092 z "},"ẁ":{"ha":1133,"x_min":24,"x_max":1108,"o":"m 1108 754 l 879 0 l 818 0 l 567 671 l 315 0 l 254 0 l 24 754 l 89 754 l 288 78 l 536 754 l 599 754 l 849 78 l 1047 754 l 1108 754 m 581 867 l 581 817 l 308 992 l 308 1049 l 581 867 z "},"Ẃ":{"ha":1290,"x_min":47,"x_max":1242,"o":"m 1242 979 l 985 0 l 913 0 l 644 883 l 378 0 l 306 0 l 47 979 l 118 979 l 342 90 l 610 979 l 681 979 l 947 90 l 1171 979 l 1242 979 m 890 1217 l 618 1042 l 618 1092 l 890 1274 l 890 1217 z "},"ẃ":{"ha":1133,"x_min":24,"x_max":1108,"o":"m 1108 754 l 879 0 l 818 0 l 567 671 l 315 0 l 254 0 l 24 754 l 89 754 l 288 78 l 536 754 l 599 754 l 849 78 l 1047 754 l 1108 754 m 811 992 l 539 817 l 539 867 l 811 1049 l 811 992 z "},"Ẅ":{"ha":1290,"x_min":47,"x_max":1242,"o":"m 1242 979 l 985 0 l 913 0 l 644 883 l 378 0 l 306 0 l 47 979 l 118 979 l 342 90 l 610 979 l 681 979 l 947 90 l 1171 979 l 1242 979 m 493 1146 q 508 1182 493 1167 q 544 1197 522 1197 q 581 1182 567 1197 q 596 1146 596 1167 q 581 1110 596 1125 q 544 1094 567 1094 q 508 1110 522 1094 q 493 1146 493 1125 m 696 1146 q 710 1182 696 1167 q 747 1197 725 1197 q 783 1182 768 1197 q 797 1146 797 1167 q 783 1110 797 1125 q 747 1094 768 1094 q 710 1110 725 1094 q 696 1146 696 1125 z "},"ẅ":{"ha":1133,"x_min":24,"x_max":1108,"o":"m 1108 754 l 879 0 l 818 0 l 567 671 l 315 0 l 254 0 l 24 754 l 89 754 l 288 78 l 536 754 l 599 754 l 849 78 l 1047 754 l 1108 754 m 414 921 q 428 957 414 942 q 465 972 443 972 q 502 957 488 972 q 517 921 517 942 q 502 885 517 900 q 465 869 488 869 q 428 885 443 869 q 414 921 414 900 m 617 921 q 631 957 617 942 q 668 972 646 972 q 703 957 689 972 q 718 921 718 942 q 703 885 718 900 q 668 869 689 869 q 631 885 646 869 q 617 921 617 900 z "},"Ẽ":{"ha":679,"x_min":113,"x_max":613,"o":"m 175 926 l 175 515 l 571 515 l 571 465 l 175 465 l 175 53 l 613 53 l 613 0 l 113 0 l 113 979 l 613 979 l 613 926 l 175 926 m 283 1176 q 326 1167 308 1176 q 367 1140 344 1158 q 403 1115 388 1124 q 439 1107 418 1107 q 479 1124 463 1107 q 500 1172 496 1140 l 542 1172 q 508 1094 536 1124 q 438 1064 479 1064 q 394 1073 413 1064 q 349 1101 375 1082 q 313 1124 326 1117 q 282 1132 300 1132 q 222 1065 232 1132 l 182 1065 q 215 1147 189 1118 q 283 1176 242 1176 z "},"ẽ":{"ha":871,"x_min":76,"x_max":794,"o":"m 440 43 q 632 101 554 43 q 726 258 710 158 l 792 258 q 678 64 771 138 q 443 -10 586 -10 q 253 37 336 -10 q 124 171 171 83 q 76 378 76 258 q 124 583 76 496 q 253 717 171 671 q 443 764 336 764 q 633 717 553 764 q 753 595 713 671 q 794 433 794 519 q 788 360 794 399 l 139 360 q 183 183 140 254 q 292 77 225 111 q 440 43 360 43 m 443 713 q 293 678 361 713 q 183 572 225 643 q 139 397 140 501 l 733 397 q 699 573 739 501 q 590 678 658 644 q 443 713 522 713 m 357 951 q 400 942 382 951 q 440 915 418 933 q 476 890 461 899 q 513 882 492 882 q 553 899 536 882 q 574 947 569 915 l 615 947 q 581 869 610 899 q 511 839 553 839 q 467 848 486 839 q 422 876 449 857 q 387 899 400 892 q 356 907 374 907 q 296 840 306 907 l 256 840 q 289 922 263 893 q 357 951 315 951 z "},"Ỳ":{"ha":757,"x_min":36,"x_max":719,"o":"m 719 979 l 411 396 l 411 0 l 349 0 l 349 396 l 36 979 l 110 979 l 379 463 l 647 979 l 719 979 m 393 1092 l 393 1042 l 121 1217 l 121 1274 l 393 1092 z "},"ỳ":{"ha":729,"x_min":22,"x_max":707,"o":"m 92 754 l 375 83 l 638 754 l 707 754 l 269 -356 l 197 -356 l 342 4 l 22 754 l 92 754 m 379 867 l 379 817 l 107 992 l 107 1049 l 379 867 z "},"Ỹ":{"ha":757,"x_min":36,"x_max":719,"o":"m 719 979 l 411 396 l 411 0 l 349 0 l 349 396 l 36 979 l 110 979 l 379 463 l 647 979 l 719 979 m 300 1176 q 343 1167 325 1176 q 383 1140 361 1158 q 419 1115 404 1124 q 456 1107 435 1107 q 496 1124 479 1107 q 517 1172 513 1140 l 558 1172 q 524 1094 553 1124 q 454 1064 496 1064 q 410 1073 429 1064 q 365 1101 392 1082 q 330 1124 343 1117 q 299 1132 317 1132 q 239 1065 249 1132 l 199 1065 q 232 1147 206 1118 q 300 1176 258 1176 z "},"ỹ":{"ha":729,"x_min":22,"x_max":707,"o":"m 92 754 l 375 83 l 638 754 l 707 754 l 269 -356 l 197 -356 l 342 4 l 22 754 l 92 754 m 286 951 q 329 942 311 951 q 369 915 347 933 q 406 890 390 899 q 442 882 421 882 q 482 899 465 882 q 503 947 499 915 l 544 947 q 510 869 539 899 q 440 839 482 839 q 397 848 415 839 q 351 876 378 857 q 316 899 329 892 q 285 907 303 907 q 225 840 235 907 l 185 840 q 218 922 192 893 q 286 951 244 951 z "},"–":{"ha":825,"x_min":58,"x_max":767,"o":"m 767 549 l 767 494 l 58 494 l 58 549 l 767 549 z "},"—":{"ha":1092,"x_min":58,"x_max":1033,"o":"m 1033 549 l 1033 494 l 58 494 l 58 549 l 1033 549 z "},"‘":{"ha":197,"x_min":46,"x_max":156,"o":"m 54 819 q 46 926 46 871 q 74 1022 46 993 q 156 1051 101 1051 l 156 1014 q 106 997 121 1014 q 92 946 92 981 l 92 908 l 150 908 l 150 819 l 54 819 z "},"’":{"ha":197,"x_min":42,"x_max":151,"o":"m 143 1051 q 151 944 151 1000 q 124 849 151 878 q 42 819 96 819 l 42 857 q 92 874 76 857 q 107 925 107 890 l 107 961 l 47 961 l 47 1051 l 143 1051 z "},"‚":{"ha":215,"x_min":40,"x_max":149,"o":"m 142 61 q 149 -10 149 28 q 121 -108 149 -74 q 40 -142 93 -142 l 40 -106 q 88 -87 74 -106 q 103 -29 103 -68 l 103 -19 l 50 -19 l 50 61 l 142 61 z "},"“":{"ha":340,"x_min":46,"x_max":299,"o":"m 54 819 q 46 926 46 871 q 74 1022 46 993 q 156 1051 101 1051 l 156 1014 q 106 997 121 1014 q 92 946 92 981 l 92 908 l 150 908 l 150 819 l 54 819 m 199 819 q 189 926 189 879 q 217 1022 189 993 q 299 1051 244 1051 l 299 1014 q 249 997 264 1014 q 235 946 235 981 l 235 908 l 293 908 l 293 819 l 199 819 z "},"”":{"ha":340,"x_min":42,"x_max":296,"o":"m 143 1051 q 151 944 151 1000 q 124 849 151 878 q 42 819 96 819 l 42 857 q 92 874 76 857 q 107 925 107 890 l 107 961 l 47 961 l 47 1051 l 143 1051 m 286 1051 q 296 944 296 992 q 268 849 296 878 q 186 819 240 819 l 186 857 q 235 874 221 857 q 250 925 250 890 l 250 961 l 192 961 l 192 1051 l 286 1051 z "},"„":{"ha":340,"x_min":42,"x_max":296,"o":"m 143 90 q 151 -17 151 39 q 124 -112 151 -83 q 42 -142 96 -142 l 42 -104 q 92 -87 76 -104 q 107 -36 107 -71 l 107 0 l 47 0 l 47 90 l 143 90 m 286 90 q 296 -17 296 31 q 268 -112 296 -83 q 186 -142 240 -142 l 186 -104 q 235 -87 221 -104 q 250 -36 250 -71 l 250 0 l 192 0 l 192 90 l 286 90 z "},"†":{"ha":646,"x_min":46,"x_max":600,"o":"m 600 701 l 347 707 l 354 -356 l 293 -356 l 299 707 l 46 701 l 46 754 l 299 749 l 293 1079 l 354 1079 l 347 749 l 600 754 l 600 701 z "},"‡":{"ha":647,"x_min":46,"x_max":601,"o":"m 349 707 l 349 15 l 601 24 l 601 -32 l 349 -25 l 354 -356 l 293 -356 l 300 -25 l 46 -32 l 46 24 l 300 15 l 300 707 l 46 701 l 46 754 l 300 749 l 293 1079 l 354 1079 l 349 749 l 601 754 l 601 701 l 349 707 z "},"•":{"ha":404,"x_min":54,"x_max":350,"o":"m 54 463 q 98 569 54 525 q 203 613 142 613 q 308 569 265 613 q 350 463 350 525 q 308 358 350 401 q 203 315 265 315 q 98 358 142 315 q 54 463 54 401 z "},"…":{"ha":633,"x_min":43,"x_max":590,"o":"m 365 96 l 365 0 l 267 0 l 267 96 l 365 96 m 590 96 l 590 0 l 492 0 l 492 96 l 590 96 m 142 96 l 142 0 l 43 0 l 43 96 l 142 96 z "},"‰":{"ha":1231,"x_min":53,"x_max":1178,"o":"m 238 989 q 371 937 318 989 q 424 801 424 885 q 371 665 424 718 q 238 613 318 613 q 106 665 158 613 q 53 801 53 718 q 106 937 53 885 q 238 989 158 989 m 721 979 l 142 0 l 76 0 l 656 979 l 721 979 m 101 801 q 140 698 101 739 q 238 657 178 657 q 335 698 297 657 q 374 801 374 739 q 335 904 374 864 q 238 944 297 944 q 140 904 178 944 q 101 801 101 864 m 561 365 q 694 313 642 365 q 746 176 746 260 q 694 41 746 93 q 561 -11 642 -11 q 428 41 481 -11 q 375 176 375 93 q 428 313 375 260 q 561 365 481 365 m 993 365 q 1126 313 1074 365 q 1178 176 1178 260 q 1126 41 1178 93 q 993 -11 1074 -11 q 860 41 913 -11 q 807 176 807 93 q 860 313 807 260 q 993 365 913 365 m 425 176 q 463 74 425 114 q 561 33 501 33 q 659 74 621 33 q 697 176 697 114 q 659 281 697 240 q 561 321 621 321 q 463 281 501 321 q 425 176 425 240 m 857 176 q 895 74 857 114 q 993 33 933 33 q 1091 74 1053 33 q 1129 176 1129 114 q 1091 281 1129 240 q 993 321 1053 321 q 895 281 933 321 q 857 176 857 240 z "},"‹":{"ha":343,"x_min":63,"x_max":274,"o":"m 206 167 l 63 410 l 206 653 l 274 653 l 128 410 l 274 167 l 206 167 z "},"›":{"ha":343,"x_min":69,"x_max":281,"o":"m 217 410 l 69 653 l 139 653 l 281 410 l 139 167 l 69 167 l 217 410 z "},"⁄":{"ha":349,"x_min":-150,"x_max":494,"o":"m 494 979 l -85 0 l -150 0 l 428 979 l 494 979 z "},"€":{"ha":1154,"x_min":26,"x_max":1076,"o":"m 626 49 q 871 117 772 49 q 1011 299 969 186 l 1076 299 q 913 72 1026 154 q 626 -10 799 -10 q 424 35 515 -10 q 269 160 332 79 q 182 350 207 242 l 26 350 l 26 389 l 175 389 q 167 489 167 438 q 171 567 167 529 l 26 567 l 26 606 l 178 606 q 261 806 199 719 q 418 941 324 893 q 626 989 513 989 q 913 906 799 989 q 1076 679 1026 824 l 1011 679 q 871 862 969 793 q 626 931 772 931 q 380 844 485 931 q 243 606 275 757 l 635 606 l 635 567 l 238 567 q 232 489 232 533 q 240 389 232 438 l 635 389 l 635 350 l 249 350 q 388 129 285 210 q 626 49 490 49 z "},"₺":{"ha":1076,"x_min":81,"x_max":996,"o":"m 996 547 q 876 115 996 263 q 504 -32 756 -32 q 335 -11 422 -32 l 335 353 l 81 283 l 81 331 l 335 400 l 335 585 l 81 514 l 81 560 l 335 631 l 335 979 l 399 979 l 399 649 l 685 729 l 685 682 l 399 603 l 399 417 l 685 494 l 685 447 l 399 369 l 399 38 q 504 26 454 26 q 933 547 933 26 l 996 547 z "},"₽":{"ha":838,"x_min":81,"x_max":786,"o":"m 258 431 l 258 257 l 611 257 l 611 206 l 258 206 l 258 0 l 196 0 l 196 206 l 81 206 l 81 257 l 196 257 l 196 431 l 81 431 l 81 486 l 196 486 l 196 979 l 465 979 q 707 906 628 979 q 786 704 786 833 q 704 500 786 569 q 465 431 622 431 l 258 431 m 258 486 l 463 486 q 722 704 722 486 q 661 869 722 813 q 463 925 600 925 l 258 925 l 258 486 z "},"ℓ":{"ha":271,"x_min":113,"x_max":175,"o":"m 175 1028 l 175 0 l 113 0 l 113 1028 l 175 1028 z "},"™":{"ha":1001,"x_min":42,"x_max":949,"o":"m 42 979 l 378 979 l 378 932 l 236 932 l 236 490 l 186 490 l 186 932 l 42 932 l 42 979 m 949 979 l 949 490 l 899 490 l 899 889 l 718 490 l 676 490 l 496 889 l 496 490 l 447 490 l 447 979 l 508 979 l 697 553 l 890 979 l 949 979 z "},"Ω":{"ha":1103,"x_min":67,"x_max":1036,"o":"m 1036 494 q 960 214 1036 335 q 750 51 885 93 l 1011 51 l 1011 0 l 626 0 l 626 57 q 806 128 728 71 q 928 278 885 185 q 972 489 972 371 q 917 720 972 619 q 765 876 861 821 q 551 932 668 932 q 335 875 432 932 q 184 717 239 818 q 129 489 129 617 q 174 278 129 371 q 296 128 218 185 q 475 57 374 71 l 475 0 l 90 0 l 90 51 l 351 51 q 142 214 218 93 q 67 494 67 335 q 131 753 67 640 q 306 927 196 865 q 551 989 417 989 q 796 927 685 989 q 972 752 907 865 q 1036 494 1036 639 z "},"℮":{"ha":1067,"x_min":75,"x_max":993,"o":"m 546 -10 q 303 44 410 -10 q 135 204 196 99 q 75 456 75 310 q 128 714 75 599 q 286 896 182 829 q 533 963 390 963 q 780 901 675 963 q 939 736 885 839 q 993 517 993 633 l 993 433 l 218 433 l 218 210 q 355 84 278 125 q 546 43 432 43 q 729 90 647 43 q 913 235 811 136 l 954 192 q 546 -10 764 -10 m 832 756 q 708 868 785 828 q 533 908 631 908 q 351 866 432 908 q 218 738 269 824 l 218 503 l 832 503 l 832 756 z "},"∂":{"ha":756,"x_min":57,"x_max":699,"o":"m 415 768 q 642 514 626 768 q 589 860 646 736 q 382 985 532 985 q 271 968 335 985 l 271 1011 q 396 1028 331 1028 q 699 579 699 1028 q 651 265 699 399 q 515 58 603 131 q 310 -15 426 -15 q 128 62 200 -15 q 57 288 57 139 q 99 522 57 413 q 222 700 140 632 q 415 768 303 768 m 419 714 q 264 658 332 714 q 158 505 196 601 q 121 289 121 408 q 175 103 121 165 q 313 42 229 42 q 475 99 406 42 q 581 253 544 157 q 618 461 618 349 q 419 714 618 714 z "},"∆":{"ha":901,"x_min":28,"x_max":874,"o":"m 478 954 l 874 51 l 874 0 l 28 0 l 28 51 l 424 954 l 478 954 m 90 51 l 811 51 l 449 882 l 90 51 z "},"∏":{"ha":1019,"x_min":81,"x_max":939,"o":"m 939 979 l 939 928 l 821 928 l 821 0 l 758 0 l 758 928 l 261 928 l 261 0 l 197 0 l 197 928 l 81 928 l 81 979 l 939 979 z "},"∑":{"ha":571,"x_min":56,"x_max":576,"o":"m 576 903 l 108 903 l 488 451 l 488 399 l 108 -58 l 576 -58 l 576 -110 l 56 -110 l 56 -40 l 432 422 l 56 885 l 56 954 l 576 954 l 576 903 z "},"−":{"ha":628,"x_min":53,"x_max":575,"o":"m 575 549 l 575 494 l 53 494 l 53 549 l 575 549 z "},"∕":{"ha":506,"x_min":31,"x_max":476,"o":"m 476 1303 l 92 -224 l 31 -224 l 413 1303 l 476 1303 z "},"∙":{"ha":190,"x_min":46,"x_max":144,"o":"m 144 538 l 144 442 l 46 442 l 46 538 l 144 538 z "},"√":{"ha":979,"x_min":21,"x_max":949,"o":"m 949 1178 l 300 -62 l 275 -62 l 121 206 l 43 163 l 21 200 l 153 274 l 297 18 l 903 1178 l 949 1178 z "},"∞":{"ha":847,"x_min":24,"x_max":861,"o":"m 671 671 q 810 620 758 669 q 861 483 861 571 q 807 346 861 396 q 667 296 753 296 q 540 335 592 296 q 436 446 488 375 q 346 338 400 381 q 218 296 292 296 q 76 345 129 296 q 24 482 24 394 q 78 620 24 569 q 219 671 133 671 q 343 630 293 671 q 447 513 393 589 q 538 626 482 581 q 671 671 593 671 m 218 344 q 408 483 328 344 q 319 588 360 553 q 222 624 278 624 q 116 585 154 624 q 78 482 78 546 q 115 382 78 419 q 218 344 151 344 m 663 342 q 769 381 731 342 q 808 483 808 419 q 772 583 808 546 q 668 621 735 621 q 474 475 553 621 q 562 376 519 410 q 663 342 604 342 z "},"∫":{"ha":339,"x_min":-46,"x_max":401,"o":"m 213 1107 q 260 1219 222 1182 q 369 1256 299 1256 l 401 1256 l 396 1200 l 365 1200 q 303 1180 326 1200 q 275 1107 281 1160 l 143 -58 q 101 -181 135 -142 q -8 -219 68 -219 l -46 -219 l -40 -164 l -3 -164 q 44 -155 28 -164 q 69 -124 61 -146 q 82 -58 76 -103 l 213 1107 z "},"≈":{"ha":624,"x_min":53,"x_max":572,"o":"m 201 490 q 263 478 236 490 q 326 440 290 465 q 381 408 360 418 q 429 397 403 397 q 488 424 464 397 q 519 490 511 450 l 572 490 q 522 378 560 418 q 424 338 483 338 q 363 350 390 338 q 300 388 335 363 q 245 420 268 410 q 196 431 222 431 q 138 404 161 431 q 106 338 114 378 l 53 338 q 103 450 65 410 q 201 490 142 490 m 201 751 q 263 739 236 751 q 326 701 290 726 q 381 669 360 679 q 429 658 403 658 q 488 685 464 658 q 519 751 511 711 l 572 751 q 522 639 560 679 q 424 599 483 599 q 363 611 390 599 q 300 649 335 624 q 245 681 268 671 q 196 692 222 692 q 138 665 161 692 q 106 599 114 639 l 53 599 q 103 711 65 671 q 201 751 142 751 z "},"≠":{"ha":794,"x_min":53,"x_max":742,"o":"m 500 625 l 342 418 l 742 418 l 742 361 l 299 361 l 183 210 l 138 210 l 253 361 l 53 361 l 53 418 l 296 418 l 453 625 l 53 625 l 53 682 l 496 682 l 611 833 l 658 833 l 543 682 l 742 682 l 742 625 l 500 625 z "},"≤":{"ha":563,"x_min":53,"x_max":510,"o":"m 421 306 l 53 575 l 421 847 l 503 847 l 139 575 l 503 306 l 421 306 m 510 251 l 510 200 l 60 200 l 60 251 l 510 251 z "},"≥":{"ha":563,"x_min":53,"x_max":510,"o":"m 60 306 l 424 575 l 60 847 l 140 847 l 510 575 l 140 306 l 60 306 m 53 251 l 503 251 l 503 200 l 53 200 l 53 251 z "},"◊":{"ha":761,"x_min":63,"x_max":699,"o":"m 699 483 l 379 165 l 63 483 l 382 803 l 699 483 m 144 483 l 379 247 l 617 483 l 382 721 l 144 483 z "},"ﬁ":{"ha":724,"x_min":29,"x_max":643,"o":"m 207 754 l 619 754 l 619 0 l 557 0 l 557 697 l 207 697 l 207 0 l 143 0 l 143 697 l 29 697 l 29 754 l 143 754 l 143 800 q 205 980 143 921 q 407 1038 267 1039 l 407 981 q 251 938 294 981 q 207 796 207 894 l 207 754 m 590 1028 q 628 1014 614 1028 q 643 978 643 1000 q 628 940 643 954 q 590 926 614 926 q 551 940 567 926 q 536 978 536 954 q 551 1014 536 1000 q 590 1028 567 1028 z "},"ﬂ":{"ha":719,"x_min":26,"x_max":632,"o":"m 410 981 q 251 938 296 981 q 207 796 207 894 l 207 754 l 410 754 l 410 697 l 207 697 l 207 0 l 143 0 l 143 697 l 26 697 l 26 754 l 143 754 l 143 800 q 206 980 143 921 q 410 1038 269 1039 l 410 981 m 632 1028 l 632 0 l 569 0 l 569 1028 l 632 1028 z "}}}
